<svg width="130" height="130" fill="none" xmlns="http://www.w3.org/2000/svg"><circle cx="65" cy="65" r="65" fill="#00A7C7"/><path d="M98.703 39.61H32.297a6.648 6.648 0 00-6.64 6.64v42.5a6.648 6.648 0 006.64 6.64h66.406a6.648 6.648 0 006.641-6.64v-42.5a6.648 6.648 0 00-6.64-6.64zm-66.406 2.656h66.406a3.99 3.99 0 013.985 3.984v3.984H28.312V46.25a3.99 3.99 0 013.985-3.984zm66.406 50.468H32.297a3.99 3.99 0 01-3.984-3.984V52.89h74.375v35.86a3.99 3.99 0 01-3.985 3.984zM58.654 28.243a39.44 39.44 0 00-2.691.565l.637 2.578a37 37 0 012.508-.526l-.454-2.617zm-10.439 3.355c-.82.397-1.637.828-2.43 1.28l1.314 2.307a38.218 38.218 0 012.272-1.195l-1.156-2.392zm5.102-2.04a39.97 39.97 0 00-2.583.931l.985 2.466a36.94 36.94 0 012.412-.868l-.814-2.529zm10.799-1.877c-.912.031-1.833.095-2.739.188l.27 2.643a39.174 39.174 0 012.562-.177l-.093-2.654zm18.64 3.903l-1.154 2.391c.758.366 1.522.768 2.27 1.193l1.315-2.308c-.8-.456-1.62-.885-2.43-1.276zm4.77 2.718l-1.473 2.21c.714.476 1.416.978 2.086 1.494l1.62-2.106a41.29 41.29 0 00-2.233-1.598zM72.322 28.24l-.45 2.617c.832.142 1.675.319 2.507.523l.633-2.578a38.862 38.862 0 00-2.69-.563zm5.333 1.31l-.811 2.529c.807.259 1.619.55 2.412.866l.982-2.466a39.636 39.636 0 00-2.583-.929zm-10.792-1.869l-.085 2.654a36.69 36.69 0 012.555.174l.27-2.643a38.731 38.731 0 00-2.74-.184zM43.448 34.32a39.925 39.925 0 00-2.208 1.581l1.622 2.104c.67-.515 1.361-1.01 2.057-1.474l-1.471-2.21zm23.343 70.345l.093 2.654a40.325 40.325 0 002.739-.188l-.27-2.643a37.13 37.13 0 01-2.562.177zm5.101-.526l.454 2.618a39.516 39.516 0 002.691-.565l-.637-2.578c-.821.202-1.665.38-2.508.525zm4.977-1.226l.814 2.529a40.062 40.062 0 002.583-.931l-.986-2.466a37.4 37.4 0 01-2.411.868zm9.211-4.443l1.47 2.209a40.04 40.04 0 002.208-1.58l-1.621-2.104c-.668.515-1.36 1.01-2.056 1.474zm-4.451 2.54l1.157 2.392a42.22 42.22 0 002.43-1.279l-1.315-2.308c-.742.422-1.507.826-2.272 1.195zm-30.869 3.511c.85.339 1.719.651 2.584.929l.81-2.529a37.377 37.377 0 01-2.41-.866l-.984 2.466zM41.242 99.1a41 41 0 002.232 1.598l1.473-2.21a37.235 37.235 0 01-2.086-1.494L41.24 99.1zm4.571 3.04c.8.456 1.619.885 2.43 1.277l1.155-2.392a38.298 38.298 0 01-2.27-1.193l-1.315 2.308zm15.585 4.995c.917.093 1.84.156 2.738.185l.085-2.654a36.758 36.758 0 01-2.555-.174l-.268 2.643zm-5.408-.936c.89.219 1.796.409 2.689.562l.449-2.618a36.022 36.022 0 01-2.507-.523l-.632 2.579z" fill="#F3E9E7"/><path d="M74.797 58.203h-14.61v2.656h14.61v-2.656zm18.593 0H78.782v2.656h14.61v-2.656zm-26.562 6.641h-6.64V67.5h6.64v-2.656zm9.297 0h-5.313V67.5h5.313v-2.656zm-9.297 6.64h-6.64v2.657h6.64v-2.657zm-3.984 6.641h-2.657v2.656h2.657v-2.656zm5.312 0H65.5v2.656h2.656v-2.656zm5.313 0h-2.656v2.656h2.656v-2.656zm14.609 0H76.125v2.656h11.953v-2.656zm11.953 0h-9.297v2.656h9.297v-2.656zm-1.328-13.281h-9.297c-.734 0-1.328.593-1.328 1.328v6.64c0 .735.594 1.329 1.328 1.329h9.297c.735 0 1.328-.594 1.328-1.329v-6.64c0-.735-.593-1.328-1.328-1.328zm-1.328 6.64h-6.64V67.5h6.64v3.984zM56.203 55.547H32.297c-.735 0-1.328.594-1.328 1.328v26.563c0 .734.593 1.328 1.328 1.328h23.906c.735 0 1.328-.594 1.328-1.329V56.876c0-.734-.593-1.328-1.328-1.328zm-6.64 26.562H38.937v-2.656a1.33 1.33 0 011.329-1.328h7.968c.733 0 1.328.595 1.328 1.328v2.656zm5.312 0h-2.656v-2.656a3.99 3.99 0 00-3.985-3.984h-7.968a3.99 3.99 0 00-3.985 3.984v2.656h-2.656V58.203h21.25V82.11zm2.656 5.313H30.97v2.656h26.56v-2.656z" fill="#F3E9E7"/><path d="M44.25 72.813a3.99 3.99 0 003.984-3.985v-2.656a3.99 3.99 0 00-3.984-3.984 3.99 3.99 0 00-3.984 3.984v2.656a3.99 3.99 0 003.984 3.984zm-1.328-6.641a1.329 1.329 0 012.656 0v2.656a1.329 1.329 0 01-2.656 0v-2.656zm35.859 21.25H66.828v2.656h11.953v-2.656zm18.594 0H85.422v2.656h11.953v-2.656z" fill="#F3E9E7"/></svg>