<svg width="130" height="130" fill="none" xmlns="http://www.w3.org/2000/svg"><circle cx="65" cy="65" r="65" fill="#00A7C7"/><g clip-path="url(#clip0_49_224)"><path d="M51.842 60.373a.724.724 0 01.247.184l2.939 3.417c1.18 1.372 2.419 2.77 3.955 3.792 1.479.99 3.275 1.658 5.649 1.664 2.57.006 4.456-.692 5.98-1.734 1.586-1.086 2.837-2.572 4.068-4.052l1.606-1.938c.197-.241.267-.317.337-.4.197-.228.419-.489.64-.762a.69.69 0 01.21-.171c.26-.858.464-1.754.603-2.7.457-3.062.47-5.437-.907-8.257-1.187-2.433-2.87-3.69-4.691-4.599 1.974 2.204 3.599 4.338 3.174 6.091-2.406-2.648-4.895-4.954-7.465-6.866C62.81 41.26 59.649 37.5 58.24 32.94c-7.973 7.977-9.357 17.295-6.398 27.433zm29.941 23.19l2.882-3.024 4.158 4.002 6.475-8.632 3.218 2.598c-1.517 1.88-6.925 9.305-8.106 10.27-.971.794-2.368.794-3.27-.076l-5.357-5.138zM54.457 72.395c4.011 8.372 16.18 8.67 20.02.051l-2.596-3.328-.317-.464c-1.778 1.181-3.968 1.956-6.932 1.95-2.844-.006-4.983-.8-6.741-1.969a13.213 13.213 0 01-1.289-.978 38.787 38.787 0 01-1.009 2.553c-.362.832-.755 1.62-1.136 2.185zm23.778-10.753c-.082.095-.165.19-.241.28l-.33.387-1.606 1.937c-1.022 1.232-2.063 2.465-3.32 3.519l.356.52c.736 1.08 1.479 2.16 2.43 3.126a.641.641 0 01.083.101c.565.4 1.244.763 2 1.093a16 16 0 011.403-1.607 15.743 15.743 0 0111.178-4.63 15.77 15.77 0 0111.178 4.63A15.768 15.768 0 01106 82.184c0 4.37-1.771 8.32-4.634 11.186A15.743 15.743 0 0190.188 98a15.77 15.77 0 01-11.178-4.63 15.769 15.769 0 01-4.634-11.186c0-3.163.926-6.11 2.526-8.58a13.71 13.71 0 01-1.396-.706c-1.943 9.007-17.285 11.179-22.02.514-3.34 1.684-6.742 2.96-10.626 3.564l2.253 16.317H31.656c-6.678-.508-2.558-10.162-.546-12.824.965-1.276 2.165-2.216 3.491-2.96 3.987-2.223 14.365-2.96 18.669-5.964l.984-1.918 1.18-3.068c-.628-.635-1.206-1.302-1.77-1.956L51.15 61.68l-1.873.05-3.561.096c-3.06-3.519-2.87-11.084-2.57-15.447 1.421-8.791 4.81-15.11 10.333-18.763 3.739-2.477 5.973-2.61 10.347-2.617 3.815 0 6.157-.083 9.407 2.058 10.607 6.987 13.889 23.476 8.71 34.585h-3.708zM99.64 72.72a13.317 13.317 0 00-9.451-3.919 13.329 13.329 0 00-9.452 3.92 13.334 13.334 0 00-3.916 9.457c0 3.69 1.498 7.038 3.916 9.457a13.317 13.317 0 009.452 3.92c3.688 0 7.033-1.5 9.451-3.92a13.334 13.334 0 003.917-9.457c0-3.69-1.498-7.038-3.917-9.458z" fill="#F3E9E7"/></g><defs><clipPath id="clip0_49_224"><path fill="#fff" transform="translate(28 25)" d="M0 0h78v73H0z"/></clipPath></defs></svg>