<svg width="723" height="539" fill="none" xmlns="http://www.w3.org/2000/svg"><g clip-path="url(#clip0_86_2)"><path d="M723 473.492H0v.362h723v-.362zm-72.445 23.267h-47.892v.361h47.892v-.361zm-171.611 3.933h-12.566v.361h12.566v-.361zm122.274-17.352h-27.749v.361h27.749v-.361zm-462.909 2.429H75.856v.362h62.453v-.362zm22.038 0h-9.154v.362h9.154v-.362zm165.219 6.102H190.105v.362h135.461v-.362zm17.15-82.87H63.508c-4.555 0-8.257-3.702-8.257-8.257V8.257C55.251 3.702 58.953 0 63.508 0H342.73c4.555 0 8.257 3.702 8.257 8.257v392.487c-.015 4.555-3.716 8.257-8.271 8.257zM63.508.361c-4.353 0-7.896 3.543-7.896 7.896v392.487c0 4.353 3.543 7.895 7.896 7.895H342.73c4.353 0 7.895-3.542 7.895-7.895V8.257c0-4.353-3.542-7.896-7.895-7.896H63.508zm591.978 408.64H376.263c-4.555 0-8.257-3.702-8.257-8.257V8.257c0-4.555 3.702-8.257 8.257-8.257h279.223c4.555 0 8.256 3.702 8.256 8.257v392.487c0 4.555-3.701 8.257-8.256 8.257zM376.263.361c-4.352 0-7.895 3.543-7.895 7.896v392.487c0 4.353 3.543 7.895 7.895 7.895h279.223c4.352 0 7.895-3.542 7.895-7.895V8.257c0-4.353-3.543-7.896-7.895-7.896H376.263z" fill="#EBEBEB"/><path d="M636.312 472.379v-89.363h-5.915v-32.925h-8.632V235.582h-12.494v-14.763l-26.664-12.436v-14.894h-3.687v42.093h-5.177v114.509h-5.177v-60.212H554.54v-31.016h-3.918v91.228h-10.657v-34.719h-7.028v-8.864h-16.239v-30.293h-8.907V254.8h-10.932v-31.22h-3.904v31.22h-10.946v21.415h-8.893v30.293h-16.253v8.864h-7.028v34.719h-8.314v-43.583h-16.253v-93.816h-5.177v-10.339h-34.718v10.339h-7.375v67.962h-29.556v6.637h-11.076v5.177h11.076v26.592h-31.017v-88.64h-6.651v-18.841h-14.403V144.73h-4.063v66.849h-10.353v18.841h-60.616v-6.203h-3.702v42.107h-5.162v.738h-3.109v42.107h-5.177v11.452h-10.932V289.59h-3.904v73.876h-4.367v-31.031h-3.919v48.383h-2.385V346.1h-7.014v-8.864h-16.253v-30.279h-8.893v-21.43h-10.946v-31.205h-3.904v31.205H120.74v21.43h-8.907v30.279H95.58v8.864h-7.013v33.981h-1.258v.737h-3.47v91.561h552.473z" fill="#E6E6E6"/><path d="M259.34 234.556h-4.179v4.178h4.179v-4.178zm0 7.027h-4.179v4.179h4.179v-4.179zm0 28.067h-4.179v4.179h4.179v-4.179zm0 7.013h-4.179v4.179h4.179v-4.179zm0 7.013h-4.179v4.179h4.179v-4.179zm0 21.054h-4.179v4.179h4.179v-4.179zm0 7.027h-4.179v4.179h4.179v-4.179zm6.651-49.12h-4.179v4.179h4.179v-4.179zm0 7.013h-4.179v4.179h4.179v-4.179zm0 7.013h-4.179v4.179h4.179v-4.179zm0 7.013h-4.179v4.179h4.179v-4.179zm0 7.028h-4.179v4.179h4.179v-4.179zm0 14.026h-4.179v4.179h4.179v-4.179zm0 7.027h-4.179v4.179h4.179v-4.179zm6.652-77.201h-4.179v4.178h4.179v-4.178zm0 7.027h-4.179v4.179h4.179v-4.179zm0 7.013h-4.179v4.179h4.179v-4.179zm0 7.013h-4.179v4.179h4.179v-4.179zm0 7.028h-4.179v4.179h4.179v-4.179zm0 7.013h-4.179v4.179h4.179v-4.179zm0 7.013h-4.179v4.179h4.179v-4.179zm0 7.013h-4.179v4.179h4.179v-4.179zm0 7.028h-4.179v4.179h4.179v-4.179zm0 7.013h-4.179v4.193h4.179v-4.193zm0 14.04h-4.179v4.179h4.179v-4.179zm6.637-77.201h-4.179v4.178h4.179v-4.178zm0 7.027h-4.179v4.179h4.179v-4.179zm0 7.013h-4.179v4.179h4.179v-4.179zm0 7.013h-4.179v4.179h4.179v-4.179zm0 7.028h-4.179v4.179h4.179v-4.179zm0 7.013h-4.179v4.179h4.179v-4.179zm0 7.013h-4.179v4.179h4.179v-4.179zm0 63.161h-4.179v4.179h4.179v-4.179zm6.651-105.268h-4.179v4.178h4.179v-4.178zm0 7.027h-4.179v4.179h4.179v-4.179zm0 7.013h-4.179v4.179h4.179v-4.179zm0 7.013h-4.179v4.179h4.179v-4.179zm0 7.028h-4.179v4.179h4.179v-4.179zm0 7.013h-4.179v4.179h4.179v-4.179zm0 7.013h-4.179v4.179h4.179v-4.179zm0 7.013h-4.179v4.179h4.179v-4.179zm0 42.108h-4.179v4.179h4.179v-4.179zm0 7.027h-4.179v4.179h4.179v-4.179zm0 7.013h-4.179v4.179h4.179v-4.179zm0 7.013h-4.179v4.179h4.179v-4.179zm0 28.067h-4.179v4.179h4.179v-4.179zm6.652-140.348h-4.179v4.178h4.179v-4.178zm0 7.027h-4.179v4.179h4.179v-4.179zm0 7.013h-4.179v4.179h4.179v-4.179zm0 7.013h-4.179v4.179h4.179v-4.179zm0 7.028h-4.179v4.179h4.179v-4.179zm0 7.013h-4.179v4.179h4.179v-4.179zm0 7.013h-4.179v4.179h4.179v-4.179zm0 7.013h-4.179v4.179h4.179v-4.179zm0 7.028h-4.179v4.179h4.179v-4.179zm0 7.013h-4.179v4.193h4.179v-4.193zm0 21.054h-4.179v4.179h4.179v-4.179zm0 7.013h-4.179v4.179h4.179v-4.179zm0 7.027h-4.179v4.179h4.179v-4.179zm0 7.013h-4.179v4.179h4.179v-4.179zm0 7.013h-4.179v4.179h4.179v-4.179zm0 28.067h-4.179v4.179h4.179v-4.179zm6.652-140.348h-4.179v4.178h4.179v-4.178zm0 7.027h-4.179v4.179h4.179v-4.179zm0 7.013h-4.179v4.179h4.179v-4.179zm0 7.013h-4.179v4.179h4.179v-4.179zm0 7.028h-4.179v4.179h4.179v-4.179zm0 7.013h-4.179v4.179h4.179v-4.179zm0 7.013h-4.179v4.179h4.179v-4.179zm0 7.013h-4.179v4.179h4.179v-4.179zm0 7.028h-4.179v4.179h4.179v-4.179zm0 7.013h-4.179v4.193h4.179v-4.193zm0 7.013h-4.179v4.179h4.179v-4.179zm0 7.027h-4.179v4.179h4.179v-4.179zm0 7.014h-4.179v4.179h4.179v-4.179zm0 7.013h-4.179v4.179h4.179v-4.179zm0 7.027h-4.179v4.179h4.179v-4.179zm0 7.013h-4.179v4.179h4.179v-4.179zm0 7.013h-4.179v4.179h4.179v-4.179zm0 7.028h-4.179v4.179h4.179v-4.179zm6.637-119.309h-4.179v4.178h4.179v-4.178zm0 7.027h-4.179v4.179h4.179v-4.179zm0 7.013h-4.179v4.179h4.179v-4.179zm0 7.013h-4.179v4.179h4.179v-4.179zm0 7.028h-4.179v4.179h4.179v-4.179zm0 7.013h-4.179v4.179h4.179v-4.179zm0 7.013h-4.179v4.179h4.179v-4.179zm0 7.013h-4.179v4.179h4.179v-4.179zm0 7.028h-4.179v4.179h4.179v-4.179zm0 7.013h-4.179v4.193h4.179v-4.193zm0 21.054h-4.179v4.179h4.179v-4.179zm0 7.013h-4.179v4.179h4.179v-4.179zm0 7.027h-4.179v4.179h4.179v-4.179zm0 7.013h-4.179v4.179h4.179v-4.179zm6.651-105.268h-4.179v4.178h4.179v-4.178zm0 7.027h-4.179v4.179h4.179v-4.179zm0 7.013h-4.179v4.179h4.179v-4.179zm0 7.013h-4.179v4.179h4.179v-4.179zm0 7.028h-4.179v4.179h4.179v-4.179zm0 7.013h-4.179v4.179h4.179v-4.179zm0 7.013h-4.179v4.179h4.179v-4.179zm0 7.013h-4.179v4.179h4.179v-4.179zm0 7.028h-4.179v4.179h4.179v-4.179zm0 7.013h-4.179v4.193h4.179v-4.193zm0 21.054h-4.179v4.179h4.179v-4.179zm0 7.013h-4.179v4.179h4.179v-4.179zm0 7.027h-4.179v4.179h4.179v-4.179zm74.86-116.475h-4.179v4.179h4.179v-4.179zm0 7.028h-4.179v4.178h4.179v-4.178zm0 7.013h-4.179v4.179h4.179v-4.179zm0 7.013h-4.179v4.179h4.179v-4.179zm0 7.013h-4.179v4.179h4.179v-4.179zm0 7.027h-4.179v4.179h4.179v-4.179zm0 7.013h-4.179v4.179h4.179v-4.179zm0 7.014h-4.179v4.178h4.179v-4.178zm0 21.053h-4.179v4.179h4.179v-4.179zm0 7.028h-4.179v4.179h4.179v-4.179zm6.666-77.202h-4.194v4.179h4.194v-4.179zm0 7.028h-4.194v4.178h4.194v-4.178zm0 7.013h-4.194v4.179h4.194v-4.179zm0 7.013h-4.194v4.179h4.194v-4.179zm0 7.013h-4.194v4.179h4.194v-4.179zm0 7.027h-4.194v4.179h4.194v-4.179zm0 7.013h-4.194v4.179h4.194v-4.179zm0 7.014h-4.194v4.178h4.194v-4.178zm0 28.081h-4.194v4.179h4.194v-4.179zm6.637-77.202h-4.193v4.179h4.193v-4.179zm0 7.028h-4.193v4.178h4.193v-4.178zm0 7.013h-4.193v4.179h4.193v-4.179zm0 7.013h-4.193v4.179h4.193v-4.179zm0 7.013h-4.193v4.179h4.193v-4.179zm0 7.027h-4.193v4.179h4.193v-4.179zm0 7.013h-4.193v4.179h4.193v-4.179zm0 7.014h-4.193v4.178h4.193v-4.178zm6.637-49.121h-4.179v4.179h4.179v-4.179zm0 7.028h-4.179v4.178h4.179v-4.178zm0 7.013h-4.179v4.179h4.179v-4.179zm0 7.013h-4.179v4.179h4.179v-4.179zm0 7.013h-4.179v4.179h4.179v-4.179zm0 7.027h-4.179v4.179h4.179v-4.179zm0 14.027h-4.179v4.178h4.179v-4.178zm0 7.027h-4.179v4.179h4.179v-4.179zm0 21.054h-4.179v4.179h4.179v-4.179zm0 7.013h-4.179v4.179h4.179v-4.179zm0 7.013h-4.179v4.179h4.179v-4.179zm0 7.028h-4.179v4.179h4.179v-4.179zm0 7.013h-4.179v4.179h4.179v-4.179zm0 7.013h-4.179v4.179h4.179v-4.179zm0 7.013h-4.179v4.179h4.179v-4.179zm6.652-119.295h-4.179v4.179h4.179v-4.179zm0 7.028h-4.179v4.178h4.179v-4.178zm0 7.013h-4.179v4.179h4.179v-4.179zm0 7.013h-4.179v4.179h4.179v-4.179zm0 7.013h-4.179v4.179h4.179v-4.179zm0 7.027h-4.179v4.179h4.179v-4.179zm0 21.054h-4.179v4.179h4.179v-4.179zm0 7.013h-4.179v4.179h4.179v-4.179zm0 7.013h-4.179v4.179h4.179v-4.179zm0 7.028h-4.179v4.179h4.179v-4.179zm0 7.013h-4.179v4.179h4.179v-4.179zm0 7.013h-4.179v4.179h4.179v-4.179zm0 7.028h-4.179v4.179h4.179v-4.179zm0 7.013h-4.179v4.179h4.179v-4.179zm0 7.013h-4.179v4.179h4.179v-4.179zm0 7.013h-4.179v4.179h4.179v-4.179zm0 7.027h-4.179v4.179h4.179v-4.179zm0 14.027h-4.179v4.179h4.179v-4.179zm6.666-140.349h-4.194v4.179h4.194v-4.179zm0 7.028h-4.194v4.178h4.194v-4.178zm0 7.013h-4.194v4.179h4.194v-4.179zm0 7.013h-4.194v4.179h4.194v-4.179zm0 7.013h-4.194v4.179h4.194v-4.179zm0 7.027h-4.194v4.179h4.194v-4.179zm0 21.054h-4.194v4.179h4.194v-4.179zm0 7.013h-4.194v4.179h4.194v-4.179zm0 7.013h-4.194v4.179h4.194v-4.179zm0 7.028h-4.194v4.179h4.194v-4.179zm0 21.054h-4.194v4.179h4.194v-4.179zm0 7.013h-4.194v4.179h4.194v-4.179zm0 7.013h-4.194v4.179h4.194v-4.179zm0 7.013h-4.194v4.179h4.194v-4.179zm0 7.027h-4.194v4.179h4.194v-4.179zm0 14.027h-4.194v4.179h4.194v-4.179zm0 7.027h-4.194v4.179h4.194v-4.179zm60.312-82.118h-4.179v4.179h4.179v-4.179zm0 7.013h-4.179v4.179h4.179v-4.179zm0 7.013h-4.179v4.179h4.179v-4.179zm0 7.028h-4.179v4.179h4.179v-4.179zm0 7.013h-4.179v4.179h4.179v-4.179zm0 7.013h-4.179v4.179h4.179v-4.179zm0 7.027h-4.179v4.179h4.179v-4.179zm0 21.054h-4.179v4.179h4.179v-4.179zm0 7.013h-4.179v4.179h4.179v-4.179zm0 7.013h-4.179v4.179h4.179v-4.179zm6.638-77.187h-4.179v4.179h4.179v-4.179zm0 7.013h-4.179v4.179h4.179v-4.179zm0 7.013h-4.179v4.179h4.179v-4.179zm0 7.028h-4.179v4.179h4.179v-4.179zm0 7.013h-4.179v4.179h4.179v-4.179zm0 7.013h-4.179v4.179h4.179v-4.179zm0 7.027h-4.179v4.179h4.179v-4.179zm6.651-42.107h-4.179v4.179h4.179v-4.179zm0 7.013h-4.179v4.179h4.179v-4.179zm0 7.013h-4.179v4.179h4.179v-4.179zm0 7.028h-4.179v4.179h4.179v-4.179zm0 7.013h-4.179v4.179h4.179v-4.179zm0 7.013h-4.179v4.179h4.179v-4.179zm0 7.027h-4.179v4.179h4.179v-4.179zm6.652-42.107h-4.179v4.179h4.179v-4.179zm0 7.013h-4.179v4.179h4.179v-4.179zm0 7.013h-4.179v4.179h4.179v-4.179zm0 7.028h-4.179v4.179h4.179v-4.179zm0 7.013h-4.179v4.179h4.179v-4.179zm0 7.013h-4.179v4.179h4.179v-4.179zm0 7.027h-4.179v4.179h4.179v-4.179zm0 7.014h-4.179v4.179h4.179v-4.179zm0 7.013h-4.179v4.179h4.179v-4.179zm0 7.027h-4.179v4.179h4.179v-4.179zm0 7.013h-4.179v4.179h4.179v-4.179zm6.651-70.174h-4.179v4.179h4.179v-4.179zm0 7.013h-4.179v4.179h4.179v-4.179zm0 7.013h-4.179v4.179h4.179v-4.179zm0 7.028h-4.179v4.179h4.179v-4.179zm0 7.013h-4.179v4.179h4.179v-4.179zm0 7.013h-4.179v4.179h4.179v-4.179zm0 7.027h-4.179v4.179h4.179v-4.179zm0 7.014h-4.179v4.179h4.179v-4.179zm0 7.013h-4.179v4.179h4.179v-4.179zm0 7.027h-4.179v4.179h4.179v-4.179zm0 7.013h-4.179v4.179h4.179v-4.179zm0 7.013h-4.179v4.179h4.179v-4.179zm0 21.054h-4.179v4.179h4.179v-4.179zm0 7.013h-4.179v4.179h4.179v-4.179zm6.637-105.254h-4.178v4.179h4.178v-4.179zm0 7.013h-4.178v4.179h4.178v-4.179zm0 7.013h-4.178v4.179h4.178v-4.179zm0 21.054h-4.178v4.179h4.178v-4.179zm0 7.027h-4.178v4.179h4.178v-4.179zm0 7.014h-4.178v4.179h4.178v-4.179zm0 7.013h-4.178v4.179h4.178v-4.179zm0 7.027h-4.178v4.179h4.178v-4.179zm0 7.013h-4.178v4.179h4.178v-4.179zm0 7.013h-4.178v4.179h4.178v-4.179zm0 21.054h-4.178v4.179h4.178v-4.179zm0 7.013h-4.178v4.179h4.178v-4.179zm0 7.028h-4.178v4.179h4.178v-4.179zm69.683-154.39h-4.179v4.179h4.179v-4.179zm0 7.014h-4.179v4.178h4.179V246.5zm0 7.027h-4.179v4.179h4.179v-4.179zm0 7.013h-4.179v4.179h4.179v-4.179zm0 7.013h-4.179v4.179h4.179v-4.179zm0 7.013h-4.179v4.179h4.179v-4.179zm0 7.028h-4.179v4.179h4.179v-4.179zm0 7.013h-4.179v4.179h4.179v-4.179zm0 7.013h-4.179v4.179h4.179v-4.179zm0 7.028h-4.179v4.179h4.179v-4.179zm0 7.013h-4.179v4.179h4.179v-4.179zm0 7.013h-4.179v4.179h4.179v-4.179zm0 7.027h-4.179v4.179h4.179v-4.179zm0 7.014h-4.179v4.179h4.179v-4.179zm0 7.013h-4.179v4.179h4.179v-4.179zm0 7.027h-4.179v4.179h4.179v-4.179zm0 7.013h-4.179v4.179h4.179v-4.179zm0 7.013h-4.179v4.179h4.179v-4.179zm0 7.013h-4.179v4.179h4.179v-4.179zm0 7.028h-4.179v4.179h4.179v-4.179zm0 7.013h-4.179v4.179h4.179v-4.179zm0 7.013h-4.179v4.179h4.179v-4.179zm0 7.028h-4.179v4.179h4.179v-4.179zm6.652-154.39h-4.179v4.179h4.179v-4.179zm0 7.014h-4.179v4.178h4.179V246.5zm0 7.027h-4.179v4.179h4.179v-4.179zm0 7.013h-4.179v4.179h4.179v-4.179zm0 7.013h-4.179v4.179h4.179v-4.179zm0 7.013h-4.179v4.179h4.179v-4.179zm0 7.028h-4.179v4.179h4.179v-4.179zm0 7.013h-4.179v4.179h4.179v-4.179zm0 7.013h-4.179v4.179h4.179v-4.179zm0 7.028h-4.179v4.179h4.179v-4.179zm0 7.013h-4.179v4.179h4.179v-4.179zm0 7.013h-4.179v4.179h4.179v-4.179zm0 7.027h-4.179v4.179h4.179v-4.179zm0 7.014h-4.179v4.179h4.179v-4.179zm0 7.013h-4.179v4.179h4.179v-4.179zm0 7.027h-4.179v4.179h4.179v-4.179zm0 7.013h-4.179v4.179h4.179v-4.179zm0 7.013h-4.179v4.179h4.179v-4.179zm0 7.013h-4.179v4.179h4.179v-4.179zm6.652-126.308h-4.179v4.179h4.179v-4.179zm0 7.014h-4.179v4.178h4.179V246.5zm0 7.027h-4.179v4.179h4.179v-4.179zm0 7.013h-4.179v4.179h4.179v-4.179zm0 7.013h-4.179v4.179h4.179v-4.179zm0 7.013h-4.179v4.179h4.179v-4.179zm0 7.028h-4.179v4.179h4.179v-4.179zm0 7.013h-4.179v4.179h4.179v-4.179zm0 7.013h-4.179v4.179h4.179v-4.179zm0 7.028h-4.179v4.179h4.179v-4.179zm0 7.013h-4.179v4.179h4.179v-4.179zm0 7.013h-4.179v4.179h4.179v-4.179zm0 7.027h-4.179v4.179h4.179v-4.179zm0 7.014h-4.179v4.179h4.179v-4.179zm0 7.013h-4.179v4.179h4.179v-4.179zm0 7.027h-4.179v4.179h4.179v-4.179zm0 7.013h-4.179v4.179h4.179v-4.179zm0 7.013h-4.179v4.179h4.179v-4.179zm0 7.013h-4.179v4.179h4.179v-4.179zm6.651-126.308h-4.179v4.179h4.179v-4.179zm0 7.014h-4.179v4.178h4.179V246.5zm0 7.027h-4.179v4.179h4.179v-4.179zm0 7.013h-4.179v4.179h4.179v-4.179zm0 7.013h-4.179v4.179h4.179v-4.179zm0 7.013h-4.179v4.179h4.179v-4.179zm0 7.028h-4.179v4.179h4.179v-4.179zm0 7.013h-4.179v4.179h4.179v-4.179zm0 7.013h-4.179v4.179h4.179v-4.179zm0 7.028h-4.179v4.179h4.179v-4.179zm0 7.013h-4.179v4.179h4.179v-4.179zm0 7.013h-4.179v4.179h4.179v-4.179zm0 7.027h-4.179v4.179h4.179v-4.179zm0 7.014h-4.179v4.179h4.179v-4.179zm0 7.013h-4.179v4.179h4.179v-4.179zm6.637-98.242h-4.179v4.179h4.179v-4.179zm0 7.014h-4.179v4.178h4.179V246.5zm0 7.027h-4.179v4.179h4.179v-4.179zm0 7.013h-4.179v4.179h4.179v-4.179zm0 7.013h-4.179v4.179h4.179v-4.179zm0 7.013h-4.179v4.179h4.179v-4.179zm0 7.028h-4.179v4.179h4.179v-4.179zm0 7.013h-4.179v4.179h4.179v-4.179zm0 7.013h-4.179v4.179h4.179v-4.179zm0 7.028h-4.179v4.179h4.179v-4.179zm0 7.013h-4.179v4.179h4.179v-4.179zm0 7.013h-4.179v4.179h4.179v-4.179zm0 7.027h-4.179v4.179h4.179v-4.179zm6.652-84.215h-4.179v4.179h4.179v-4.179zm0 7.014h-4.179v4.178h4.179V246.5zm0 7.027h-4.179v4.179h4.179v-4.179zm0 7.013h-4.179v4.179h4.179v-4.179zm0 7.013h-4.179v4.179h4.179v-4.179zm0 7.013h-4.179v4.179h4.179v-4.179zm0 7.028h-4.179v4.179h4.179v-4.179zm0 7.013h-4.179v4.179h4.179v-4.179zm0 7.013h-4.179v4.179h4.179v-4.179zm0 7.028h-4.179v4.179h4.179v-4.179zm0 7.013h-4.179v4.179h4.179v-4.179zm0 7.013h-4.179v4.179h4.179v-4.179zm-488.517-25.97h-4.179v4.179h4.179v-4.179zm0 7.013h-4.179v4.193h4.179v-4.193zm0 7.013h-4.179v4.179h4.179v-4.179zm0 7.027h-4.179v4.179h4.179v-4.179zm0 7.014h-4.179v4.179h4.179v-4.179zm0 7.013h-4.179v4.179h4.179v-4.179zm0 7.027h-4.179v4.179h4.179v-4.179zm0 7.013h-4.179v4.179h4.179v-4.179zm0 7.013h-4.179v4.179h4.179v-4.179zm0 7.028h-4.179v4.179h4.179v-4.179zm0 7.013h-4.179v4.179h4.179v-4.179zm0 7.013h-4.179v4.179h4.179v-4.179zm0 7.013h-4.179v4.179h4.179v-4.179zm0 7.028h-4.179v4.179h4.179v-4.179zm0 7.013h-4.179v4.179h4.179v-4.179zm0 7.013h-4.179v4.179h4.179v-4.179zm0 7.028h-4.179v4.179h4.179v-4.179zm0 7.013h-4.179v4.179h4.179v-4.179zm0 7.013h-4.179v4.179h4.179v-4.179zm0 7.027h-4.179v4.179h4.179v-4.179zm6.652-133.335h-4.179v4.179h4.179v-4.179zm0 7.013h-4.179v4.193h4.179v-4.193zm0 7.013h-4.179v4.179h4.179v-4.179zm0 7.027h-4.179v4.179h4.179v-4.179zm0 7.014h-4.179v4.179h4.179v-4.179zm0 7.013h-4.179v4.179h4.179v-4.179zm0 7.027h-4.179v4.179h4.179v-4.179zm0 7.013h-4.179v4.179h4.179v-4.179zm0 7.013h-4.179v4.179h4.179v-4.179zm0 7.028h-4.179v4.179h4.179v-4.179zm0 7.013h-4.179v4.179h4.179v-4.179zm0 7.013h-4.179v4.179h4.179v-4.179zm0 7.013h-4.179v4.179h4.179v-4.179zm0 7.028h-4.179v4.179h4.179v-4.179zm0 7.013h-4.179v4.179h4.179v-4.179zm0 7.013h-4.179v4.179h4.179v-4.179zm0 7.028h-4.179v4.179h4.179v-4.179zm0 7.013h-4.179v4.179h4.179v-4.179zm6.651-119.295h-4.179v4.179h4.179v-4.179zm0 7.013h-4.179v4.193h4.179v-4.193zm0 7.013h-4.179v4.179h4.179v-4.179zm0 7.027h-4.179v4.179h4.179v-4.179zm0 7.014h-4.179v4.179h4.179v-4.179zm0 7.013h-4.179v4.179h4.179v-4.179zm0 7.027h-4.179v4.179h4.179v-4.179zm0 7.013h-4.179v4.179h4.179v-4.179zm0 7.013h-4.179v4.179h4.179v-4.179zm0 7.028h-4.179v4.179h4.179v-4.179zm0 7.013h-4.179v4.179h4.179v-4.179zm0 7.013h-4.179v4.179h4.179v-4.179zm0 7.013h-4.179v4.179h4.179v-4.179zm0 7.028h-4.179v4.179h4.179v-4.179zm0 7.013h-4.179v4.179h4.179v-4.179zm0 7.013h-4.179v4.179h4.179v-4.179zm0 7.028h-4.179v4.179h4.179v-4.179zm0 7.013h-4.179v4.179h4.179v-4.179zm-38.174-68.078h-4.179v4.179h4.179v-4.179zm0 7.013h-4.179v4.179h4.179v-4.179zm0 7.013h-4.179v4.179h4.179v-4.179zm0 7.028h-4.179v4.179h4.179v-4.179zm0 7.013h-4.179v4.179h4.179v-4.179zm0 7.013h-4.179v4.179h4.179v-4.179zm0 7.028h-4.179v4.179h4.179v-4.179zm0 7.013h-4.179v4.179h4.179v-4.179zm0 7.013h-4.179v4.179h4.179v-4.179zm0 7.013h-4.179v4.179h4.179v-4.179zm0 7.027h-4.179v4.179h4.179v-4.179zm0 7.014h-4.179v4.178h4.179v-4.178zm0 7.013h-4.179v4.179h4.179v-4.179zm6.651-84.201h-4.179v4.179h4.179v-4.179zm0 7.013h-4.179v4.179h4.179v-4.179zm0 7.013h-4.179v4.179h4.179v-4.179zm0 7.028h-4.179v4.179h4.179v-4.179zm0 7.013h-4.179v4.179h4.179v-4.179zm0 7.013h-4.179v4.179h4.179v-4.179zm0 7.028h-4.179v4.179h4.179v-4.179zm0 7.013h-4.179v4.179h4.179v-4.179zm0 7.013h-4.179v4.179h4.179v-4.179zm0 7.013h-4.179v4.179h4.179v-4.179zm0 7.027h-4.179v4.179h4.179v-4.179zm0 7.014h-4.179v4.178h4.179v-4.178zm0 7.013h-4.179v4.179h4.179v-4.179zm6.652-84.201h-4.179v4.179h4.179v-4.179zm0 7.013h-4.179v4.179h4.179v-4.179zm0 7.013h-4.179v4.179h4.179v-4.179zm0 7.028h-4.179v4.179h4.179v-4.179zm0 7.013h-4.179v4.179h4.179v-4.179zm0 7.013h-4.179v4.179h4.179v-4.179zm0 7.028h-4.179v4.179h4.179v-4.179zm0 7.013h-4.179v4.179h4.179v-4.179zm0 7.013h-4.179v4.179h4.179v-4.179zm0 7.013h-4.179v4.179h4.179v-4.179zm0 7.027h-4.179v4.179h4.179v-4.179zm0 7.014h-4.179v4.178h4.179v-4.178zm0 7.013h-4.179v4.179h4.179v-4.179zm0 7.027h-4.179v4.179h4.179v-4.179zm36.931-89.146h-4.179v4.179h4.179v-4.179zm0 7.028h-4.179v4.179h4.179v-4.179zm0 7.013h-4.179v4.179h4.179v-4.179zm0 7.013h-4.179v4.179h4.179v-4.179zm0 7.028h-4.179v4.179h4.179v-4.179zm0 7.013h-4.179v4.179h4.179v-4.179zm0 7.013h-4.179v4.179h4.179v-4.179zm0 7.027h-4.179v4.179h4.179v-4.179zm0 7.013h-4.179v4.179h4.179v-4.179zm0 7.014h-4.179v4.179h4.179v-4.179zm0 21.053h-4.179v4.179h4.179v-4.179zm6.666-84.215h-4.193v4.179h4.193v-4.179zm0 7.028h-4.193v4.179h4.193v-4.179zm0 7.013h-4.193v4.179h4.193v-4.179zm0 7.013h-4.193v4.179h4.193v-4.179zm0 7.028h-4.193v4.179h4.193v-4.179zm0 7.013h-4.193v4.179h4.193v-4.179zm0 7.013h-4.193v4.179h4.193v-4.179zm0 7.027h-4.193v4.179h4.193v-4.179zm0 7.013h-4.193v4.179h4.193v-4.179zm0 21.054h-4.193v4.179h4.193v-4.179zm0 7.013h-4.193v4.179h4.193v-4.179zm6.623-84.215h-4.179v4.179h4.179v-4.179zm0 7.028h-4.179v4.179h4.179v-4.179zm0 7.013h-4.179v4.179h4.179v-4.179zm0 7.013h-4.179v4.179h4.179v-4.179zm0 7.028h-4.179v4.179h4.179v-4.179zm0 7.013h-4.179v4.179h4.179v-4.179zm0 7.013h-4.179v4.179h4.179v-4.179zm0 7.027h-4.179v4.179h4.179v-4.179zm0 21.054h-4.179v4.179h4.179v-4.179zm0 7.013h-4.179v4.179h4.179v-4.179zm0 7.013h-4.179v4.179h4.179v-4.179zM229.06 237.39h-4.179v4.179h4.179v-4.179zm0 7.013h-4.179v4.179h4.179v-4.179zm0 7.027h-4.179v4.179h4.179v-4.179zm0 7.013h-4.179v4.179h4.179v-4.179zm0 7.014h-4.179v4.178h4.179v-4.178zm0 7.027h-4.179v4.179h4.179v-4.179zm0 7.013h-4.179v4.179h4.179v-4.179zm0 7.013h-4.179v4.179h4.179v-4.179zm0 7.028h-4.179v4.179h4.179v-4.179zm0 7.013h-4.179v4.179h4.179v-4.179zm0 7.013h-4.179v4.179h4.179v-4.179zm0 7.028h-4.179v4.179h4.179v-4.179zm0 7.013h-4.179v4.179h4.179v-4.179zm0 7.013h-4.179v4.179h4.179v-4.179zm0 7.013h-4.179v4.179h4.179v-4.179zm0 7.027h-4.179v4.179h4.179v-4.179zm0 7.014h-4.179v4.179h4.179v-4.179zm0 14.04h-4.179v4.179h4.179v-4.179zm0 7.013h-4.179v4.179h4.179v-4.179zm0 7.013h-4.179v4.179h4.179v-4.179zm0 7.028h-4.179v4.179h4.179v-4.179zm0 7.013h-4.179v4.179h4.179v-4.179zm6.637-154.389h-4.178v4.179h4.178v-4.179zm0 7.013h-4.178v4.179h4.178v-4.179zm0 7.027h-4.178v4.179h4.178v-4.179zm0 7.013h-4.178v4.179h4.178v-4.179zm0 7.014h-4.178v4.178h4.178v-4.178zm0 7.027h-4.178v4.179h4.178v-4.179zm0 7.013h-4.178v4.179h4.178v-4.179zm0 7.013h-4.178v4.179h4.178v-4.179zm0 7.028h-4.178v4.179h4.178v-4.179zm0 7.013h-4.178v4.179h4.178v-4.179zm0 7.013h-4.178v4.179h4.178v-4.179zm0 7.028h-4.178v4.179h4.178v-4.179zm0 7.013h-4.178v4.179h4.178v-4.179zm0 7.013h-4.178v4.179h4.178v-4.179zm0 7.013h-4.178v4.179h4.178v-4.179zm0 7.027h-4.178v4.179h4.178v-4.179zm0 42.108h-4.178v4.179h4.178v-4.179zm0 7.013h-4.178v4.179h4.178v-4.179zm6.652-154.389h-4.179v4.179h4.179v-4.179zm0 7.013h-4.179v4.179h4.179v-4.179zm0 7.027h-4.179v4.179h4.179v-4.179zm0 7.013h-4.179v4.179h4.179v-4.179zm0 7.014h-4.179v4.178h4.179v-4.178zm0 7.027h-4.179v4.179h4.179v-4.179zm0 7.013h-4.179v4.179h4.179v-4.179zm0 7.013h-4.179v4.179h4.179v-4.179zm0 7.028h-4.179v4.179h4.179v-4.179zm0 7.013h-4.179v4.179h4.179v-4.179zm0 7.013h-4.179v4.179h4.179v-4.179zm0 7.028h-4.179v4.179h4.179v-4.179zm0 7.013h-4.179v4.179h4.179v-4.179zm0 7.013h-4.179v4.179h4.179v-4.179zm0 7.013h-4.179v4.179h4.179v-4.179zm0 7.027h-4.179v4.179h4.179v-4.179zm0 14.027h-4.179v4.179h4.179v-4.179zm0 7.027h-4.179v4.179h4.179v-4.179zm0 7.013h-4.179v4.179h4.179v-4.179zm0 7.013h-4.179v4.179h4.179v-4.179zm0 14.041h-4.179v4.179h4.179v-4.179zm-37.408-65.995h-4.193v4.179h4.193v-4.179zm0 7.027h-4.193v4.179h4.193v-4.179zm0 7.013h-4.193v4.179h4.193v-4.179zm0 7.013h-4.193v4.179h4.193v-4.179zm0 7.028h-4.193v4.179h4.193v-4.179zm0 7.013h-4.193v4.179h4.193v-4.179zm0 7.013h-4.193v4.179h4.193v-4.179zm0 14.041h-4.193v4.179h4.193v-4.179zm0 7.013h-4.193v4.179h4.193v-4.179zm0 7.013h-4.193v4.179h4.193v-4.179zm0 7.028h-4.193v4.179h4.193v-4.179zm0 7.013h-4.193v4.179h4.193v-4.179zm0 7.013h-4.193v4.179h4.193v-4.179zm0 7.027h-4.193v4.179h4.193v-4.179zm0 7.013h-4.193v4.179h4.193v-4.179zm6.637-105.268h-4.179v4.179h4.179v-4.179zm0 7.027h-4.179v4.179h4.179v-4.179zm0 7.013h-4.179v4.179h4.179v-4.179zm0 7.013h-4.179v4.179h4.179v-4.179zm0 7.028h-4.179v4.179h4.179v-4.179zm0 7.013h-4.179v4.179h4.179v-4.179zm0 21.054h-4.179v4.179h4.179v-4.179zm0 7.013h-4.179v4.179h4.179v-4.179zm0 7.013h-4.179v4.179h4.179v-4.179zm0 7.028h-4.179v4.179h4.179v-4.179zm0 7.013h-4.179v4.179h4.179v-4.179zm0 7.013h-4.179v4.179h4.179v-4.179zm0 7.027h-4.179v4.179h4.179v-4.179zm0 7.013h-4.179v4.179h4.179v-4.179zm6.637-105.268h-4.179v4.179h4.179v-4.179zm0 7.027h-4.179v4.179h4.179v-4.179zm0 7.013h-4.179v4.179h4.179v-4.179zm0 7.013h-4.179v4.179h4.179v-4.179zm0 7.028h-4.179v4.179h4.179v-4.179zm0 7.013h-4.179v4.179h4.179v-4.179zm0 14.026h-4.179v4.179h4.179v-4.179zm0 7.028h-4.179v4.179h4.179v-4.179zm0 7.013h-4.179v4.179h4.179v-4.179zm0 7.013h-4.179v4.179h4.179v-4.179zm0 7.028h-4.179v4.179h4.179v-4.179zm0 7.013h-4.179v4.179h4.179v-4.179zm0 7.013h-4.179v4.179h4.179v-4.179zm0 7.027h-4.179v4.179h4.179v-4.179zm0 7.013h-4.179v4.179h4.179v-4.179zM358.318 286.51h-4.179v4.179h4.179v-4.179zm0 7.028h-4.179v4.179h4.179v-4.179zm0 7.013h-4.179v4.179h4.179v-4.179zm0 7.013h-4.179v4.179h4.179v-4.179zm0 7.028h-4.179v4.179h4.179v-4.179zm0 7.013h-4.179v4.179h4.179v-4.179zm0 7.013h-4.179v4.179h4.179v-4.179zm0 7.013h-4.179v4.179h4.179v-4.179zm0 7.027h-4.179v4.179h4.179v-4.179zm0 7.014h-4.179v4.179h4.179v-4.179zm0 7.013h-4.179v4.179h4.179v-4.179zm0 7.027h-4.179v4.179h4.179v-4.179zm0 7.013h-4.179v4.179h4.179v-4.179zm0 14.041h-4.179v4.179h4.179v-4.179zm0 7.013h-4.179v4.179h4.179v-4.179zm0 7.013h-4.179v4.179h4.179v-4.179zm0 7.028h-4.179v4.179h4.179v-4.179zm0 14.026h-4.179v4.179h4.179v-4.179zm0 7.013h-4.179v4.179h4.179v-4.179zm0 7.028h-4.179v4.179h4.179v-4.179zm6.652-147.377h-4.179v4.179h4.179v-4.179zm0 7.028h-4.179v4.179h4.179v-4.179zm0 7.013h-4.179v4.179h4.179v-4.179zm0 7.013h-4.179v4.179h4.179v-4.179zm0 7.028h-4.179v4.179h4.179v-4.179zm0 7.013h-4.179v4.179h4.179v-4.179zm0 7.013h-4.179v4.179h4.179v-4.179zm0 7.013h-4.179v4.179h4.179v-4.179zm0 7.027h-4.179v4.179h4.179v-4.179zm0 7.014h-4.179v4.179h4.179v-4.179zm0 7.013h-4.179v4.179h4.179v-4.179zm0 7.027h-4.179v4.179h4.179v-4.179zm0 7.013h-4.179v4.179h4.179v-4.179zm0 21.054h-4.179v4.179h4.179v-4.179zm0 7.013h-4.179v4.179h4.179v-4.179zm0 14.041h-4.179v4.179h4.179v-4.179zm0 7.013h-4.179v4.179h4.179v-4.179zm0 7.013h-4.179v4.179h4.179v-4.179zm0 7.028h-4.179v4.179h4.179v-4.179zm6.651-147.377h-4.179v4.179h4.179v-4.179zm0 7.028h-4.179v4.179h4.179v-4.179zm0 7.013h-4.179v4.179h4.179v-4.179zm0 7.013h-4.179v4.179h4.179v-4.179zm0 7.028h-4.179v4.179h4.179v-4.179zm0 7.013h-4.179v4.179h4.179v-4.179zm0 7.013h-4.179v4.179h4.179v-4.179zm0 7.013h-4.179v4.179h4.179v-4.179zm0 7.027h-4.179v4.179h4.179v-4.179zm0 7.014h-4.179v4.179h4.179v-4.179zm0 7.013h-4.179v4.179h4.179v-4.179zm0 7.027h-4.179v4.179h4.179v-4.179zm0 7.013h-4.179v4.179h4.179v-4.179zm0 7.013h-4.179v4.179h4.179v-4.179zm0 14.041h-4.179v4.179h4.179v-4.179zm0 14.041h-4.179v4.179h4.179v-4.179zm0 7.013h-4.179v4.179h4.179v-4.179zm0 7.013h-4.179v4.179h4.179v-4.179zm0 7.013h-4.179v4.179h4.179v-4.179zm0 7.028h-4.179v4.179h4.179v-4.179zm-40.386-107.366h-4.179v4.179h4.179v-4.179zm0 7.028h-4.179v4.179h4.179v-4.179zm0 7.013h-4.179v4.179h4.179v-4.179zm0 7.013h-4.179v4.179h4.179v-4.179zm0 7.027h-4.179v4.179h4.179v-4.179zm0 7.013h-4.179v4.179h4.179v-4.179zm0 21.054h-4.179v4.179h4.179v-4.179zm0 7.013h-4.179v4.179h4.179v-4.179zm0 7.028h-4.179v4.179h4.179v-4.179zm0 7.013h-4.179v4.179h4.179v-4.179zm0 7.013h-4.179v4.179h4.179v-4.179zm0 7.013h-4.179v4.179h4.179v-4.179zm0 7.028h-4.179v4.179h4.179v-4.179zm6.651-98.256h-4.179v4.179h4.179v-4.179zm0 7.028h-4.179v4.179h4.179v-4.179zm0 7.013h-4.179v4.179h4.179v-4.179zm0 7.013h-4.179v4.179h4.179v-4.179zm0 7.027h-4.179v4.179h4.179v-4.179zm0 7.013h-4.179v4.179h4.179v-4.179zm0 21.054h-4.179v4.179h4.179v-4.179zm0 7.013h-4.179v4.179h4.179v-4.179zm0 7.028h-4.179v4.179h4.179v-4.179zm0 7.013h-4.179v4.179h4.179v-4.179zm0 7.013h-4.179v4.179h4.179v-4.179zm0 7.013h-4.179v4.179h4.179v-4.179zm0 14.041h-4.179v4.179h4.179v-4.179zm220.862-136.17h-4.179v4.179h4.179v-4.179zm0 7.028h-4.179v4.179h4.179v-4.179zm0 7.013h-4.179v4.179h4.179v-4.179zm0 7.013h-4.179v4.179h4.179v-4.179zm0 7.027h-4.179v4.179h4.179v-4.179zm0 7.014h-4.179v4.179h4.179v-4.179zm0 7.013h-4.179v4.179h4.179v-4.179zm0 7.027h-4.179v4.179h4.179v-4.179zm0 7.013h-4.179v4.179h4.179v-4.179zm0 7.013h-4.179v4.179h4.179v-4.179zm0 7.013h-4.179v4.179h4.179v-4.179zm0 14.041h-4.179v4.179h4.179v-4.179zm0 7.013h-4.179v4.179h4.179v-4.179zm0 7.028h-4.179v4.179h4.179v-4.179zm0 7.013h-4.179v4.179h4.179v-4.179zm0 7.013h-4.179v4.179h4.179v-4.179zm0 7.028h-4.179v4.179h4.179v-4.179zm0 7.013h-4.179v4.179h4.179v-4.179zm0 7.013h-4.179v4.179h4.179v-4.179zM565.4 295.62h-4.179v4.179h4.179v-4.179zm0 7.028h-4.179v4.179h4.179v-4.179zm0 7.013h-4.179v4.179h4.179v-4.179zm0 7.013h-4.179v4.179h4.179v-4.179zm0 7.027h-4.179v4.179h4.179v-4.179zm0 7.014h-4.179v4.179h4.179v-4.179zm0 7.013h-4.179v4.179h4.179v-4.179zm0 7.027h-4.179v4.179h4.179v-4.179zm0 7.013h-4.179v4.179h4.179v-4.179zm0 7.013h-4.179v4.179h4.179v-4.179zm0 7.013h-4.179v4.179h4.179v-4.179zm0 7.028h-4.179v4.179h4.179v-4.179zm0 7.013h-4.179v4.179h4.179v-4.179zm0 7.013h-4.179v4.179h4.179v-4.179zm0 7.028h-4.179v4.179h4.179v-4.179zm0 7.013h-4.179v4.179h4.179v-4.179zm0 7.013h-4.179v4.179h4.179v-4.179zm0 7.028h-4.179v4.179h4.179v-4.179zm0 7.013h-4.179v4.179h4.179v-4.179zm0 7.013h-4.179v4.179h4.179v-4.179zm-39.389-105.992h-4.179v4.179h4.179v-4.179zm0 7.013h-4.179v4.179h4.179v-4.179zm0 7.013h-4.179v4.179h4.179v-4.179zm0 7.013h-4.179v4.179h4.179v-4.179zm0 7.028h-4.179v4.179h4.179v-4.179zm0 7.013h-4.179v4.179h4.179v-4.179zm0 7.013h-4.179v4.179h4.179v-4.179zm0 7.028h-4.179v4.179h4.179v-4.179zm0 7.013h-4.179v4.179h4.179v-4.179zm0 7.013h-4.179v4.179h4.179v-4.179zm6.651-63.147h-4.179v4.179h4.179v-4.179zm0 7.013h-4.179v4.179h4.179v-4.179zm0 7.013h-4.179v4.179h4.179v-4.179zm0 7.013h-4.179v4.179h4.179v-4.179zm0 7.028h-4.179v4.179h4.179v-4.179zm0 7.013h-4.179v4.179h4.179v-4.179zm0 7.013h-4.179v4.179h4.179v-4.179zm0 7.028h-4.179v4.179h4.179v-4.179zm0 7.013h-4.179v4.179h4.179v-4.179zm-73.933-260.7c0-6.579 5.335-11.915 11.915-11.915 1.185 0 2.342.174 3.412.506-.173-1.2-.26-2.414-.26-3.658 0-13.925 11.293-25.218 25.218-25.218 1.591 0 3.138.159 4.642.434 3.875-6.348 10.845-10.6 18.827-10.6 12.074 0 21.878 9.703 22.051 21.734.13 0 .246-.015.362-.015 11.221 0 20.316 9.096 20.316 20.317s-9.095 20.316-20.316 20.316h-74.614l.015-.015c-6.421-.173-11.568-5.422-11.568-11.886zM127.146 88.076a7.606 7.606 0 019.789-7.288 15.714 15.714 0 01-.173-2.328c0-8.893 7.215-16.109 16.108-16.109 1.013 0 2.01.102 2.965.275 2.472-4.049 6.926-6.767 12.016-6.767 7.707 0 13.968 6.189 14.084 13.881.072 0 .159-.014.231-.014 7.158 0 12.971 5.813 12.971 12.97 0 7.158-5.813 12.971-12.971 12.971h-47.645l.014-.014a7.565 7.565 0 01-7.389-7.577zm206.171-16.094a4.653 4.653 0 014.656-4.656c.463 0 .911.072 1.33.202a9.308 9.308 0 01-.101-1.431 9.855 9.855 0 0111.684-9.689c1.518-2.487 4.237-4.15 7.36-4.15a8.607 8.607 0 018.618 8.503h.145a7.948 7.948 0 017.953 7.953 7.948 7.948 0 01-7.953 7.953h-29.181c-2.487-.101-4.511-2.155-4.511-4.685z" fill="#F0F0F0"/><path d="M361.5 538.794c154.841 0 280.365-7.329 280.365-16.369S516.341 506.056 361.5 506.056c-154.842 0-280.365 7.329-280.365 16.369s125.523 16.369 280.365 16.369z" fill="#F5F5F5"/><path d="M321.648 209.728c-1.736-1.36-4.049-1.75-6.247-1.895-1.273-1.72-.058-4.15 1.345-5.769 1.402-1.62 3.094-3.471 2.704-5.567-.593-3.181-4.989-3.5-8.185-3.051-1.084-1.952-.94-4.324-1.402-6.507-.463-2.184-2.068-4.526-4.295-4.367-2.097.159-3.485 2.443-5.553 2.834-2.4.448-4.352-1.75-6.145-3.427-.217-.203-.463-.391-.709-.579v-.014c.709-6.493 6.869-5.162 12.205-5.784 4.164-.492-6.276-11.467 2.226-14.417 1.577-.549 3.297-1.171 4.15-2.602 1.143-1.895.203-4.497-1.532-5.871-1.736-1.359-4.049-1.75-6.247-1.894-1.273-1.721-.058-4.15 1.345-5.77 1.402-1.619 3.094-3.47 2.704-5.567-.608-3.181-4.989-3.499-8.185-3.051-1.084-1.952-.94-4.324-1.402-6.507-.463-2.184-2.068-4.526-4.295-4.367-2.097.159-3.485 2.444-5.552 2.834-2.401.448-4.353-1.75-6.146-3.427-1.793-1.663-5.003-2.805-6.377-.795-.824 1.2-.448 2.964-1.316 4.15-1.489 2.053-4.699.578-6.666-1.027-1.966-1.605-5.148-3.123-6.68-1.099-.477.622-.608 1.417-.897 2.14-.217.55-.535 1.012-.882 1.461-.332-1.475-.376-3.051-.694-4.541-.463-2.183-2.068-4.526-4.295-4.367-2.096.159-3.484 2.444-5.552 2.835-2.401.448-4.353-1.75-6.146-3.427-1.793-1.663-5.003-2.806-6.377-.796-.824 1.2-.448 2.965-1.315 4.15a2.453 2.453 0 01-.695.651 25.783 25.783 0 00-2.096-.246c-1.273-1.721-.058-4.15 1.345-5.769 1.402-1.62 3.094-3.471 2.704-5.568-.593-3.181-4.989-3.499-8.185-3.051-1.084-1.952-.94-4.323-1.402-6.507-.463-2.183-2.068-4.526-4.295-4.367-2.097.16-3.485 2.444-5.553 2.835-2.4.448-4.352-1.75-6.145-3.427-1.793-1.663-5.003-2.806-6.377-.796-.824 1.2-.448 2.965-1.316 4.15-1.489 2.054-4.699.579-6.666-1.026-1.967-1.605-5.148-3.124-6.68-1.1-.478.623-.608 1.418-.897 2.141-1.099 2.733-4.179 3.976-6.608 5.639-2.429 1.678-4.454 5.134-2.574 7.404.925 1.128 2.632 1.634 3.051 3.036.521 1.736-1.301 3.182-2.733 4.295-1.779 1.359-2.617 4.916-1.735 7.375-.767.564-1.562 1.113-2.473 1.287-2.4.448-4.352-1.75-6.145-3.428-1.793-1.662-5.003-2.805-6.377-.795-.824 1.2-.448 2.964-1.316 4.15-1.489 2.054-4.7.579-6.666-1.026-1.967-1.606-5.148-3.124-6.681-1.099-.477.621-.607 1.417-.896 2.14-1.099 2.733-4.179 3.976-6.608 5.639-2.43 1.677-4.454 5.133-2.574 7.404.882 1.084 2.472 1.605 2.979 2.877-1.606-.723-3.399-.839-4.338.535-.825 1.2-.449 2.964-1.316 4.15-1.49 2.053-4.7.579-6.666-1.026-1.967-1.606-5.148-3.124-6.681-1.099-.477.621-.607 1.417-.896 2.14-1.099 2.733-4.179 3.976-6.609 5.639-2.429 1.677-4.453 5.133-2.574 7.404.926 1.127 2.632 1.634 3.052 3.036.52 1.735-1.302 3.181-2.733 4.295-2.401 1.851-3.095 7.692-.131 9.442 1.244.738 3.109 1.027 3.355 2.458.217 1.273-1.113 2.198-2.01 3.124-2.458 2.559-1.706 7.403 1.417 9.095.709.39 1.605.723 1.837 1.489.173.55-.073 1.143-.261 1.692a8.867 8.867 0 00-.448 3.254c.015.376.072.781.347 1.041.246.231.608.289.955.318 4.381.405 6.579-1.041 9.08 2.906.246.376.492.767.868 1.013.347.231.781.303 1.2.361 3.008.391 5.076-1.388 7.852-1.605 3.861-.304 4.569 1.706 7.866 3.456 5.191 2.747 7.838 1.345 9.009-2.227.303-.911.506-1.952.622-3.123.217-2.01.968-3.283 2.053-4.078.029 0 .058.015.087.015 2.805.376 4.8-1.143 7.302-1.533.521-.029 1.041-.044 1.562-.087 2.978.116 3.875 1.894 6.854 3.47 1.778.94 3.253 1.389 4.482 1.432.362 1.663-1.373 3.051-2.762 4.121-2.4 1.851-3.094 7.693-.13 9.442 1.244.738 3.109 1.027 3.355 2.459.217 1.272-1.113 2.198-2.01 3.123-2.458 2.559-1.706 7.404 1.417 9.095.709.391 1.591.723 1.837 1.49.173.549-.073 1.142-.261 1.692a8.862 8.862 0 00-.448 3.253c.015.376.072.781.347 1.041.246.232.607.289.954.318 4.382.405 6.58-1.041 9.081 2.907.246.376.492.766.868 1.012.347.231.781.304 1.2.361 3.008.391 5.076-1.388 7.852-1.619 3.861-.304 4.569 1.706 7.866 3.47 5.191 2.748 7.837 1.345 9.009-2.226.303-.911.506-1.953.622-3.124.708-6.492 6.868-5.162 12.204-5.784.477-.058.752-.246.896-.549.116.014.217.043.333.058 3.008.39 5.075-1.389 7.852-1.606 3.86-.303 4.569 1.707 7.866 3.471 5.191 2.747 7.837 1.345 9.008-2.227.304-.911.507-1.952.622-3.123.55-5.047 4.396-5.365 8.589-5.553.102 1.981 1.085 3.933 2.835 4.888.708.39 1.59.722 1.836 1.489.174.549-.072 1.142-.26 1.692a8.862 8.862 0 00-.448 3.253c.014.376.072.781.347 1.041.245.232.607.29.954.318 4.381.405 6.579-1.041 9.081 2.907.246.376.491.766.867 1.012.347.231.781.304 1.201.362 3.007.39 5.075-1.389 7.851-1.62 3.861-.304 4.57 1.706 7.867 3.47 5.191 2.748 7.837 1.345 9.008-2.226.304-.911.506-1.952.622-3.124.708-6.492 6.868-5.162 12.204-5.784 4.165-.491-6.275-11.466 2.227-14.416 1.576-.55 3.297-1.172 4.15-2.603 1.056-1.909.13-4.526-1.619-5.885zm-56.25 6.651c.434.304.767.68.868 1.229.072.42-.029.781-.217 1.143-.26-.796-.506-1.591-.651-2.372zm-54.312-56.943c-1.561-.217-2.935-1.432-4.193-2.632 1.475.506 2.487 1.562 4.193 2.632zm42.932 15.53c.246-.709.579-1.287.998-1.75.463.26.882.564 1.027 1.07.043.145.057.289.057.434a2.721 2.721 0 00-.911-.087c-.405.029-.795.159-1.171.333zm5.741 5.683c2.472-.044 4.135-.044 5.957 2.848.246.376.492.767.868 1.012.347.232.781.304 1.2.362 1.721.231 3.138-.26 4.555-.766-.145.404-.26.824-.419 1.214-.55 1.374-1.605 2.372-2.82 3.239-.593-3.181-4.989-3.499-8.184-3.051-.825-1.46-.94-3.167-1.157-4.858zm19.738 3.643a11.28 11.28 0 00-.897-.665c1.244.478 2.184 1.345 3.528 2.256-.954-.39-1.879-.983-2.631-1.591zm-116.273 83.001c-1.374-1.07-3.181-1.374-4.917-1.49-1.012-1.359-.043-3.268 1.056-4.54 1.099-1.272 2.444-2.733 2.126-4.381-.478-2.502-3.919-2.762-6.45-2.401-.853-1.532-.737-3.412-1.113-5.133-.362-1.721-1.634-3.572-3.384-3.442-1.648.116-2.747 1.924-4.381 2.227-1.894.347-3.427-1.388-4.844-2.689-1.403-1.316-3.933-2.213-5.032-.622-.651.954-.362 2.328-1.027 3.268-1.171 1.619-3.702.448-5.249-.81-1.547-1.258-4.049-2.458-5.263-.867-.376.491-.477 1.113-.709 1.691-.867 2.155-3.282 3.124-5.205 4.44-1.909 1.315-3.514 4.034-2.025 5.827.723.882 2.068 1.287 2.401 2.386.419 1.374-1.027 2.516-2.155 3.384-1.894 1.46-2.444 6.058-.101 7.432.983.578 2.444.81 2.646 1.938.173.997-.868 1.72-1.576 2.458-1.938 2.01-1.345 5.827 1.113 7.158.564.303 1.258.563 1.446 1.171.13.434-.058.896-.202 1.33a7.312 7.312 0 00-.362 2.56c.015.289.058.621.275.824.188.188.477.231.752.246 3.456.318 5.177-.825 7.143 2.299.188.303.391.607.68.795.275.174.622.246.94.289 2.371.318 3.991-1.099 6.189-1.272 3.036-.232 3.6 1.345 6.203 2.733 4.092 2.169 6.174 1.055 7.1-1.75.231-.709.39-1.547.491-2.458.55-5.119 5.408-4.063 9.616-4.555 3.283-.391-4.931-9.023 1.75-11.351 1.244-.434 2.588-.926 3.268-2.054.896-1.518.159-3.571-1.2-4.641z" fill="#9BCFE0"/><g opacity=".3"><path opacity=".3" d="M321.648 209.728c-1.736-1.36-4.049-1.75-6.247-1.895-1.273-1.72-.058-4.15 1.345-5.769 1.402-1.62 3.094-3.471 2.704-5.567-.593-3.181-4.989-3.5-8.185-3.051-1.084-1.952-.94-4.324-1.402-6.507-.463-2.184-2.068-4.526-4.295-4.367-2.097.159-3.485 2.443-5.553 2.834-2.4.448-4.352-1.75-6.145-3.427-.217-.203-.463-.391-.709-.579v-.014c.709-6.493 6.869-5.162 12.205-5.784 4.164-.492-6.276-11.467 2.226-14.417 1.577-.549 3.297-1.171 4.15-2.602 1.143-1.895.203-4.497-1.532-5.871-1.736-1.359-4.049-1.75-6.247-1.894-1.273-1.721-.058-4.15 1.345-5.77 1.402-1.619 3.094-3.47 2.704-5.567-.608-3.181-4.989-3.499-8.185-3.051-1.084-1.952-.94-4.324-1.402-6.507-.463-2.184-2.068-4.526-4.295-4.367-2.097.159-3.485 2.444-5.552 2.834-2.401.448-4.353-1.75-6.146-3.427-1.793-1.663-5.003-2.805-6.377-.795-.824 1.2-.448 2.964-1.316 4.15-1.489 2.053-4.699.578-6.666-1.027-1.966-1.605-5.148-3.123-6.68-1.099-.477.622-.608 1.417-.897 2.14-.217.55-.535 1.012-.882 1.461-.332-1.475-.376-3.051-.694-4.541-.463-2.183-2.068-4.526-4.295-4.367-2.096.159-3.484 2.444-5.552 2.835-2.401.448-4.353-1.75-6.146-3.427-1.793-1.663-5.003-2.806-6.377-.796-.824 1.2-.448 2.965-1.315 4.15a2.453 2.453 0 01-.695.651 25.783 25.783 0 00-2.096-.246c-1.273-1.721-.058-4.15 1.345-5.769 1.402-1.62 3.094-3.471 2.704-5.568-.593-3.181-4.989-3.499-8.185-3.051-1.084-1.952-.94-4.323-1.402-6.507-.463-2.183-2.068-4.526-4.295-4.367-2.097.16-3.485 2.444-5.553 2.835-2.4.448-4.352-1.75-6.145-3.427-1.793-1.663-5.003-2.806-6.377-.796-.824 1.2-.448 2.965-1.316 4.15-1.489 2.054-4.699.579-6.666-1.026-1.967-1.605-5.148-3.124-6.68-1.1-.478.623-.608 1.418-.897 2.141-1.099 2.733-4.179 3.976-6.608 5.639-2.429 1.678-4.454 5.134-2.574 7.404.925 1.128 2.632 1.634 3.051 3.036.521 1.736-1.301 3.182-2.733 4.295-1.779 1.359-2.617 4.916-1.735 7.375-.767.564-1.562 1.113-2.473 1.287-2.4.448-4.352-1.75-6.145-3.428-1.793-1.662-5.003-2.805-6.377-.795-.824 1.2-.448 2.964-1.316 4.15-1.489 2.054-4.7.579-6.666-1.026-1.967-1.606-5.148-3.124-6.681-1.099-.477.621-.607 1.417-.896 2.14-1.099 2.733-4.179 3.976-6.608 5.639-2.43 1.677-4.454 5.133-2.574 7.404.882 1.084 2.472 1.605 2.979 2.877-1.606-.723-3.399-.839-4.338.535-.825 1.2-.449 2.964-1.316 4.15-1.49 2.053-4.7.579-6.666-1.026-1.967-1.606-5.148-3.124-6.681-1.099-.477.621-.607 1.417-.896 2.14-1.099 2.733-4.179 3.976-6.609 5.639-2.429 1.677-4.453 5.133-2.574 7.404.926 1.127 2.632 1.634 3.052 3.036.52 1.735-1.302 3.181-2.733 4.295-2.401 1.851-3.095 7.692-.131 9.442 1.244.738 3.109 1.027 3.355 2.458.217 1.273-1.113 2.198-2.01 3.124-2.458 2.559-1.706 7.403 1.417 9.095.709.39 1.605.723 1.837 1.489.173.55-.073 1.143-.261 1.692a8.867 8.867 0 00-.448 3.254c.015.376.072.781.347 1.041.246.231.608.289.955.318 4.381.405 6.579-1.041 9.08 2.906.246.376.492.767.868 1.013.347.231.781.303 1.2.361 3.008.391 5.076-1.388 7.852-1.605 3.861-.304 4.569 1.706 7.866 3.456 5.191 2.747 7.838 1.345 9.009-2.227.303-.911.506-1.952.622-3.123.217-2.01.968-3.283 2.053-4.078.029 0 .058.015.087.015 2.805.376 4.8-1.143 7.302-1.533.521-.029 1.041-.044 1.562-.087 2.978.116 3.875 1.894 6.854 3.47 1.778.94 3.253 1.389 4.482 1.432.362 1.663-1.373 3.051-2.762 4.121-2.4 1.851-3.094 7.693-.13 9.442 1.244.738 3.109 1.027 3.355 2.459.217 1.272-1.113 2.198-2.01 3.123-2.458 2.559-1.706 7.404 1.417 9.095.709.391 1.591.723 1.837 1.49.173.549-.073 1.142-.261 1.692a8.862 8.862 0 00-.448 3.253c.015.376.072.781.347 1.041.246.232.607.289.954.318 4.382.405 6.58-1.041 9.081 2.907.246.376.492.766.868 1.012.347.231.781.304 1.2.361 3.008.391 5.076-1.388 7.852-1.619 3.861-.304 4.569 1.706 7.866 3.47 5.191 2.748 7.837 1.345 9.009-2.226.303-.911.506-1.953.622-3.124.708-6.492 6.868-5.162 12.204-5.784.477-.058.752-.246.896-.549.116.014.217.043.333.058 3.008.39 5.075-1.389 7.852-1.606 3.86-.303 4.569 1.707 7.866 3.471 5.191 2.747 7.837 1.345 9.008-2.227.304-.911.507-1.952.622-3.123.55-5.047 4.396-5.365 8.589-5.553.102 1.981 1.085 3.933 2.835 4.888.708.39 1.59.722 1.836 1.489.174.549-.072 1.142-.26 1.692a8.862 8.862 0 00-.448 3.253c.014.376.072.781.347 1.041.245.232.607.29.954.318 4.381.405 6.579-1.041 9.081 2.907.246.376.491.766.867 1.012.347.231.781.304 1.201.362 3.007.39 5.075-1.389 7.851-1.62 3.861-.304 4.57 1.706 7.867 3.47 5.191 2.748 7.837 1.345 9.008-2.226.304-.911.506-1.952.622-3.124.708-6.492 6.868-5.162 12.204-5.784 4.165-.491-6.275-11.466 2.227-14.416 1.576-.55 3.297-1.172 4.15-2.603 1.056-1.909.13-4.526-1.619-5.885zm-56.25 6.651c.434.304.767.68.868 1.229.072.42-.029.781-.217 1.143-.26-.796-.506-1.591-.651-2.372zm-54.312-56.943c-1.561-.217-2.935-1.432-4.193-2.632 1.475.506 2.487 1.562 4.193 2.632zm42.932 15.53c.246-.709.579-1.287.998-1.75.463.26.882.564 1.027 1.07.043.145.057.289.057.434a2.721 2.721 0 00-.911-.087c-.405.029-.795.159-1.171.333zm5.741 5.683c2.472-.044 4.135-.044 5.957 2.848.246.376.492.767.868 1.012.347.232.781.304 1.2.362 1.721.231 3.138-.26 4.555-.766-.145.404-.26.824-.419 1.214-.55 1.374-1.605 2.372-2.82 3.239-.593-3.181-4.989-3.499-8.184-3.051-.825-1.46-.94-3.167-1.157-4.858zm19.738 3.643a11.28 11.28 0 00-.897-.665c1.244.478 2.184 1.345 3.528 2.256-.954-.39-1.879-.983-2.631-1.591z" fill="#9BCFE0"/><path opacity=".3" d="M163.224 267.293c-1.374-1.07-3.181-1.374-4.917-1.49-1.012-1.359-.043-3.268 1.056-4.54 1.099-1.272 2.444-2.733 2.126-4.381-.478-2.502-3.919-2.762-6.45-2.401-.853-1.532-.737-3.412-1.113-5.133-.362-1.721-1.634-3.572-3.384-3.442-1.648.116-2.747 1.924-4.381 2.227-1.894.347-3.427-1.388-4.844-2.689-1.403-1.316-3.933-2.213-5.032-.622-.651.954-.362 2.328-1.027 3.268-1.171 1.619-3.702.448-5.249-.81-1.547-1.258-4.049-2.458-5.263-.867-.376.491-.477 1.113-.709 1.691-.867 2.155-3.282 3.124-5.205 4.44-1.909 1.315-3.514 4.034-2.025 5.827.723.882 2.068 1.287 2.401 2.386.419 1.374-1.027 2.516-2.155 3.384-1.894 1.46-2.444 6.058-.101 7.432.983.578 2.444.81 2.646 1.938.173.997-.868 1.72-1.576 2.458-1.938 2.01-1.345 5.827 1.113 7.158.564.303 1.258.563 1.446 1.171.13.434-.058.896-.202 1.33a7.312 7.312 0 00-.362 2.56c.015.289.058.621.275.824.188.188.477.231.752.246 3.456.318 5.177-.825 7.143 2.299.188.303.391.607.68.795.275.174.622.246.94.289 2.371.318 3.991-1.099 6.189-1.272 3.036-.232 3.6 1.345 6.203 2.733 4.092 2.169 6.174 1.055 7.1-1.75.231-.709.39-1.547.491-2.458.55-5.119 5.408-4.063 9.616-4.555 3.283-.391-4.931-9.023 1.75-11.351 1.244-.434 2.588-.926 3.268-2.054.896-1.518.159-3.571-1.2-4.641z" fill="#fff"/></g><path d="M256.78 236.565l7.88-21.285 14.099-16.426-2.183-2.01-13.174 13.043-1.185-21.719-4.975-.246s5.394 25.03.622 34.241c0 0-19.795 39.635-29.686 47.747a8.33 8.33 0 00-1.489 1.62c-3.167-8.995-6.536-15.834-9.992-21.17 4.193-9.399 13.245-30.106 16.513-41.167 4.324-14.62 6.102-26.318 6.102-26.318l-3.629-2.212s-10.281 42.888-25.754 61.108c-4.685-4.859-9.442-7.823-14.04-10.411-.897-5.9-.911-16.094 3.745-31.783l-2.748-2.791s-6.825 15.067-7.099 31.161c-2.112-1.229-4.165-2.516-6.131-4.049-13.549-10.541-22.544-28.847-22.544-28.847l-5.321-.261s13.014 29.774 29.267 39.375c16.268 9.601 26.028 31.508 26.607 37.162.173 1.605-.29 18.538-1.013 41.92-17.699-11.944-61.194-41.341-63.436-43.38l-.26 5.422 63.263 51.651c-1.75 54.312-4.483 130.473-4.931 142.706l25.84 1.258c1.099-16.846 7.172-115.289 1.619-169.514.347-1.62.709-3.471 1.085-5.625 3.571-20.187 24.018-49.989 28.052-54.746 4.034-4.743 15.79-19.767 15.79-19.767l-2.111-3.528-18.783 18.841z" fill="#263238"/><path opacity=".6" d="M256.78 236.565l7.88-21.285 14.099-16.426-2.183-2.01-13.174 13.043-1.185-21.719-4.975-.246s5.394 25.03.622 34.241c0 0-19.795 39.635-29.686 47.747a8.33 8.33 0 00-1.489 1.62c-3.167-8.995-6.536-15.834-9.992-21.17 4.193-9.399 13.245-30.106 16.513-41.167 4.324-14.62 6.102-26.318 6.102-26.318l-3.629-2.212s-10.281 42.888-25.754 61.108c-4.685-4.859-9.442-7.823-14.04-10.411-.897-5.9-.911-16.094 3.745-31.783l-2.748-2.791s-6.825 15.067-7.099 31.161c-2.112-1.229-4.165-2.516-6.131-4.049-13.549-10.541-22.544-28.847-22.544-28.847l-5.321-.261s13.014 29.774 29.267 39.375c16.268 9.601 26.028 31.508 26.607 37.162.173 1.605-.29 18.538-1.013 41.92-17.699-11.944-61.194-41.341-63.436-43.38l-.26 5.422 63.263 51.651c-1.75 54.312-4.483 130.473-4.931 142.706l25.84 1.258c1.099-16.846 7.172-115.289 1.619-169.514.347-1.62.709-3.471 1.085-5.625 3.571-20.187 24.018-49.989 28.052-54.746 4.034-4.743 15.79-19.767 15.79-19.767l-2.111-3.528-18.783 18.841z" fill="#fff"/><path d="M528.064 473.261s-3.759-12.609 3.847-15.125c7.62-2.516 12.131-8.401 11.871-15.082-.26-6.666 7.765-13.158 13.766-6.912 6.015 6.247 5.206-4.8 13.231-7.49 8.011-2.689 14.807 3.832 12.609 9.789-2.198 5.958 5.712 9.674 15.183 4.613 9.471-5.061 19.883 4.15 17.887 11.366-2.01 7.215-.361 8.011 5.625 5.61 5.987-2.4 16.716 4.411 12.956 13.231-3.759 8.821-106.975 0-106.975 0zm-394.874 1.33c-6.752-4.583-.679-12.377 6.088-13.288 6.753-.911 13.549-8.98 13.882-14.113.318-5.134 12.493-20.938 31.421-11.178 18.928 9.761 13.173 1.432 26.867-1.301 13.694-2.748 22.326 5.148 16.325 11.062 0 0 13.752-2.343 19.42 6.377 5.668 8.704 0 14.127 0 14.127s25.869-.521 23.541 10.324c-2.343 10.831-137.544-2.01-137.544-2.01zm-23.671-5.393s12.263-23.931 9.183-26.288c-3.08-2.343-9.183 19.998-9.183 18.263 0-1.736.348-32.174-5.321-30.959-5.668 1.2 0 29.223 0 29.223s-7.62-14.315-10.613-13.23c-2.994 1.084 8.806 18.103 8.806 18.103s-7.042-4.265-8.806-3.933c-1.765.333 8.806 8.821 8.806 8.821h7.128zm345.247 2.921s-12.262-23.932-9.182-26.288c3.08-2.343 9.182 19.998 9.182 18.263 0-1.736-.347-32.174 5.322-30.959 5.668 1.2 0 29.223 0 29.223s7.62-14.315 10.613-13.231c2.993 1.085-8.806 18.104-8.806 18.104s7.042-4.265 8.806-3.933c1.764.333-8.806 8.821-8.806 8.821h-7.129z" fill="#9BCFE0"/><path opacity=".6" d="M528.064 473.261s-3.759-12.609 3.847-15.125c7.62-2.516 12.131-8.401 11.871-15.082-.26-6.666 7.765-13.158 13.766-6.912 6.015 6.247 5.206-4.8 13.231-7.49 8.011-2.689 14.807 3.832 12.609 9.789-2.198 5.958 5.712 9.674 15.183 4.613 9.471-5.061 19.883 4.15 17.887 11.366-2.01 7.215-.361 8.011 5.625 5.61 5.987-2.4 16.716 4.411 12.956 13.231-3.759 8.821-106.975 0-106.975 0zm-394.874 1.33c-6.752-4.583-.679-12.377 6.088-13.288 6.753-.911 13.549-8.98 13.882-14.113.318-5.134 12.493-20.938 31.421-11.178 18.928 9.761 13.173 1.432 26.867-1.301 13.694-2.748 22.326 5.148 16.325 11.062 0 0 13.752-2.343 19.42 6.377 5.668 8.704 0 14.127 0 14.127s25.869-.521 23.541 10.324c-2.343 10.831-137.544-2.01-137.544-2.01zm-23.671-5.393s12.263-23.931 9.183-26.288c-3.08-2.343-9.183 19.998-9.183 18.263 0-1.736.348-32.174-5.321-30.959-5.668 1.2 0 29.223 0 29.223s-7.62-14.315-10.613-13.23c-2.994 1.084 8.806 18.103 8.806 18.103s-7.042-4.265-8.806-3.933c-1.765.333 8.806 8.821 8.806 8.821h7.128zm345.247 2.921s-12.262-23.932-9.182-26.288c3.08-2.343 9.182 19.998 9.182 18.263 0-1.736-.347-32.174 5.322-30.959 5.668 1.2 0 29.223 0 29.223s7.62-14.315 10.613-13.231c2.993 1.085-8.806 18.104-8.806 18.104s7.042-4.265 8.806-3.933c1.764.333-8.806 8.821-8.806 8.821h-7.129z" fill="#9BCFE0"/><path d="M378.533 471.352s13.954-12.276 9.775-14.344c-4.179-2.068-9.254 9.269-9.775 7.563-.506-1.707 2.733-17.294-5.017-16.21-7.736 1.085 0 16.21 0 16.21s-5.741-6.204-7.736-5.235c-2.01.969 6.102 12.016 6.102 12.016h6.651z" fill="#9BCFE0"/><path opacity=".6" d="M378.533 471.352s13.954-12.276 9.775-14.344c-4.179-2.068-9.254 9.269-9.775 7.563-.506-1.707 2.733-17.294-5.017-16.21-7.736 1.085 0 16.21 0 16.21s-5.741-6.204-7.736-5.235c-2.01.969 6.102 12.016 6.102 12.016h6.651z" fill="#9BCFE0"/><path d="M645.769 467.289H73.803a2.922 2.922 0 00-2.92 2.921v26.404h577.806V470.21a2.913 2.913 0 00-2.92-2.921z" fill="#263238"/><path opacity=".5" d="M645.769 467.289H73.803a2.922 2.922 0 00-2.92 2.921v26.404h577.806V470.21a2.913 2.913 0 00-2.92-2.921z" fill="#fff"/><path opacity=".2" d="M645.855 473.16h-37.842v19.868h37.842V473.16zm-39.866-1.894h-37.842v19.868h37.842v-19.868zm-39.462 7.23h-24.625v12.638h24.625v-12.638zM104.82 480.13H80.194v12.638h24.626V480.13zm435.101-7.939h-25.898v17.294h25.898v-17.294zm-27.792-2.342h-17.627v17.294h17.627v-17.294zm-386.834 3.311h-17.627v17.294h17.627V473.16zm312.596 0h-17.626v17.294h17.626V473.16zm18.495-3.311h-17.627v11.958h17.627v-11.958zm36.309 4.598h-29.007v17.294h29.007v-17.294zm-74.44-2.256h-29.007v17.294h29.007v-17.294zm146.566-.925h-18.682v5.567h18.682v-5.567zm-465.944.39H80.194v5.567h18.683v-5.567zm361.413 12.71h-18.683v5.568h18.683v-5.568zm-73.601-11.206h-37.842v19.868h37.842V473.16zm-39.867-1.894H308.98v19.868h37.842v-19.868zm-39.461 7.23h-24.626v12.638h24.626v-12.638zm-26.592-6.305h-25.898v17.294h25.898v-17.294zm-27.792-2.342H235.35v17.294h17.627v-17.294zm-74.252 3.311h-17.627v17.294h17.627V473.16zm18.509-3.311h-17.627v11.958h17.627v-11.958zm36.308 4.598h-29.006v17.294h29.006v-17.294zm-74.44-2.256h-29.006v17.294h29.006v-17.294zm146.552-.925h-18.682v5.567h18.682v-5.567zm-104.531 13.1h-18.682v5.568h18.682v-5.568zm-9.413-21.415h-40.618a2.58 2.58 0 01-2.574-2.574v-17.352a2.58 2.58 0 012.574-2.574h40.618a2.58 2.58 0 012.574 2.574v17.352a2.57 2.57 0 01-2.574 2.574z" fill="#fff"/><path d="M542.712 93.079s.651-7.317 2.372-8.46c1.721-1.142 12.247-3.918 12.247-3.918s-4.164 11.293-6.695 12.58c-2.53 1.287-7.924-.202-7.924-.202z" fill="#9BCFE0"/><path opacity=".5" d="M557.331 80.701c-.13.347-4.207 11.308-6.695 12.58-1.344.694-3.484.593-5.191.347-1.532-.217-2.718-.55-2.718-.55s.651-7.316 2.371-8.458c1.634-1.085 11.279-3.673 12.176-3.904.029 0 .043 0 .043-.015h.014z" fill="#fff"/><path opacity=".2" d="M557.331 80.701c-.13.347-4.193 11.308-6.695 12.58-1.344.694-3.484.593-5.191.347-2.414-1.605 2.69-3.369 3.442-3.947.853-.651.289-1.143.043-1.547-.246-.405.651-1.389 1.721-1.793 1.07-.405 1.388-1.23 1.142-2.459-.231-1.142 4.844-2.935 5.481-3.166.014-.015.043-.015.057-.015-.014 0-.014 0 0 0z" fill="#000"/><path d="M537.348 88.683c2.4-.072 7.823 2.603 9.616 2.747 1.793.13 10.7-6 12.623-7.013 1.923-1.012 18.697-3.268 18.697-3.268s-11.134 11.41-18.697 11.727c0 0 5.596 1.562 7.23 1.143 6.493-1.649 15.747-1.533 15.747-1.533l-10.353 3.37 9.023 1.156s-4.179 1.041-12.754.492c0 0-3.253 1.33-9.977 2.761-7.534 1.591-12.147-1.59-13.636-2.79-3.268-2.632-14.041-5.64-14.041-5.64l3.673-1.316c-.029 0 .709-1.778 2.849-1.836z" fill="#9BCFE0"/><path opacity=".6" d="M572.196 95.84l9.023 1.172s-4.179 1.041-12.753.492c0 0-2.632 1.07-8.026 2.328-.607.144-1.272.289-1.952.433-7.533 1.591-12.146-1.59-13.636-2.79-1.316-1.07-3.875-2.198-6.449-3.167-.405-.16-.824-.304-1.214-.448-.304-.102-.608-.217-.911-.319a75.054 75.054 0 00-1.938-.636c-2.024-.65-3.514-1.07-3.514-1.07l3.673-1.316s.737-1.764 2.878-1.836c1.576-.043 4.453 1.084 6.752 1.909 1.215.433 2.242.78 2.863.824 1.793.13 10.701-6.001 12.61-7.028.925-.491 5.321-1.258 9.615-1.937 4.599-.723 9.081-1.33 9.081-1.33s-7.721 7.895-14.662 10.729c-1.244.506-2.458.853-3.586.969h-.015a4.342 4.342 0 01-.433.028s.029 0 .086.03c.709.187 5.625 1.503 7.144 1.113a38.612 38.612 0 013.643-.723h.015c5.827-.897 12.074-.81 12.074-.81l-10.368 3.384z" fill="#fff"/><path opacity=".2" d="M544.101 90.592c-1.157.014-2.661.144-3.196.723-.723.766-1.374 2.371-2.516 2.978-.405-.159-.824-.303-1.215-.448-.303-.101-.607-.217-.911-.318a73.79 73.79 0 00-1.937-.636c-.16-1.056.159-2.386.159-2.386s.737-1.764 2.877-1.837c1.562-.028 4.439 1.1 6.739 1.924zm34.168-9.457s-7.721 7.895-14.662 10.73c-1.33.462-2.559.794-3.586.968h-.015c-.115.014-.231.043-.347.058-5.625.867-6.275.014-6.275.014s1.894-.55 2.082-.55c.174 0-.795-.606.434-1.084 1.229-.477 1.041-1.055 1.041-1.055s3.369-1.171 3.499-1.533c.13-.376-.434-.983 1.099-1.287 1.533-.304.058-1.099 2.444-1.952 2.386-.868 1.779-1.345 1.779-1.345 2.082-.55 3.036-1.128 3.427-1.62 4.598-.737 9.08-1.344 9.08-1.344zm-6.073 14.705l9.023 1.172s-4.179 1.041-12.753.492c0 0-2.632 1.07-8.026 2.328-1.041-.55 1.909-1.475 3.196-2.14 1.648-.868 1.417-.68.795-1.1-.607-.433.058-.549 1.952-.983 1.895-.433 1.475-.853 2.632-1.735.26-.188.781-.39 1.446-.564h.015c5.827-.896 12.074-.81 12.074-.81l-10.354 3.34z" fill="#000"/><path d="M534.47 90.505l1.041.752-.621 1.822-4.093-1.258 3.673-1.316zm-115.897 77.433c1.591-.998 8.141 6.059 11.236 6.955 0 0-3.398 1.287-6.811.087s-6.102-6.001-4.425-7.042z" fill="#9BCFE0"/><path opacity=".4" d="M429.809 174.879s-3.399 1.287-6.811.087c-3.413-1.2-6.117-6.001-4.425-7.042.376-.232 1.027-.015 1.851.462 2.646 1.548 7.028 5.813 9.385 6.493z" fill="#9BCFE0"/><path opacity=".2" d="M429.809 174.879s-2.791.304-3.182-.116c-.39-.419-.781-.592-1.561-.607-.781-.029-1.085-.39-.955-1.171s-.968-.362-1.634-.622c-.665-.26.073-.492.087-1.041.015-.55-1.33-.622-1.403-1.056-.086-.448.449-.332.16-.795-.29-.448-1.259-.622-.911-1.056 2.66 1.519 7.042 5.784 9.399 6.464z" fill="#000"/><path d="M413.411 166.579c1.605-.347 5.611.766 6.84.622 1.099-.13 8.69-.637 8.69-.637s3.977.333 5.018-.144c4.164-1.938 10.411-3.037 10.411-3.037l-6.55 3.586 6.232-.361s-2.69 1.229-8.531 1.952c0 0-2.025 1.316-6.377 3.138-4.873 2.039-8.402.477-9.558-.145-2.531-1.359-10.18-2.01-10.18-2.01l2.313-1.345c-.014-.014.261-1.315 1.692-1.619z" fill="#9BCFE0"/><path opacity=".6" d="M437.819 166.969l6.233-.376s-2.69 1.23-8.546 1.953c0 0-.101.072-.304.188-.622.375-2.198 1.243-4.801 2.4-.39.188-.809.347-1.258.549-1.836.767-3.484 1.027-4.887 1.013a10.447 10.447 0 01-4.671-1.157c-1.026-.55-2.892-.984-4.757-1.316-.304-.058-.593-.101-.882-.145h-.014c-.217-.029-.434-.072-.651-.101-.492-.072-.954-.13-1.388-.188-1.461-.173-2.502-.275-2.502-.275l2.299-1.359s.275-1.287 1.707-1.605c1.055-.231 3.137.159 4.786.434.867.144 1.619.246 2.039.202 1.229-.13 8.791-.65 8.69-.636h.058c.506.043 3.991.289 4.96-.159a29.709 29.709 0 012.371-.954c.015 0 .015-.015.015-.015 3.817-1.345 8.039-2.082 8.039-2.082l-6.536 3.629z" fill="#fff"/><path opacity=".2" d="M418.212 166.998c-.781.159-1.779.434-2.068.897-.391.607-.622 1.764-1.316 2.328-.289-.058-.593-.101-.882-.145-.217-.029-.434-.072-.651-.101-.491-.072-.954-.13-1.388-.188-.246-.694-.202-1.634-.202-1.634s.274-1.287 1.706-1.605c1.055-.202 3.138.188 4.801.448zm19.607-.043l6.233-.362s-2.69 1.229-8.532 1.952c0 0-1.634 1.056-5.119 2.589-.766-.246 1.099-1.244 1.88-1.851 1.012-.795.868-.636.405-.839-.463-.217-.029-.376 1.2-.911 1.229-.535.882-.766 1.547-1.504.145-.159.478-.361.897-.563h.014c3.818-1.345 8.04-2.083 8.04-2.083l-6.565 3.572z" fill="#000"/><path d="M411.705 168.184l.795.376-.188 1.301-2.921-.332 2.314-1.345z" fill="#9BCFE0"/><path opacity=".3" d="M435.202 168.748c-.621.376-2.198 1.244-4.8 2.4-.391.188-.81.347-1.258.55-1.837.766-3.485 1.027-4.888 1.012-1.518-1.562-2.227-3.167-2.227-3.167s.449-1.344 2.777-2.183c1.532-.55 6.897.549 10.396 1.388z" fill="#000"/><path d="M422.058 167.259c2.921-1.519 19.579 5.133 26.433 5.437 0 0-6.55 2.299-14.214 1.691-7.664-.607-15.299-5.523-12.219-7.128z" fill="#9BCFE0"/><path opacity=".6" d="M448.491 172.696s-6.565 2.284-14.214 1.691c-7.649-.592-15.299-5.523-12.219-7.128.68-.362 2.155-.261 4.063.101 6.175 1.157 17.136 5.104 22.37 5.336z" fill="#9BCFE0"/><path opacity=".2" d="M448.491 172.696s-5.712.997-6.709.607c-.998-.405-1.895-.492-3.528-.347-1.634.145-2.43-.203-2.473-1.142-.058-.94-2.184-.203-3.673-.347-1.489-.145-.058-.593-.246-1.23-.202-.636-3.022-.404-3.369-.911-.347-.491.795-.491 0-.954-.795-.463-2.892-.434-2.357-1.012 6.16 1.157 17.121 5.104 22.355 5.336z" fill="#000"/><path d="M200.675 346.346c0 2.892 29.629 7.794 30.092 7.794.477 0 6.232-.998 6.232-.998l10.541.998s.391-.347.781-1.128c.318-.622.622-1.533.737-2.791.029-.289.044-.593.044-.925.159-2.661-.955-6.84-.955-6.84-6.319.347-10.208-2.212-12.045-3.875-1.532-3.789-3.615-7.91-5.899-9.674 0 0-20.823 1.475-25.175 3.962-.015.014-.029.014-.044.029-4.28 2.487-4.309 13.448-4.309 13.448z" fill="#00A7C7"/><path opacity=".2" d="M200.675 346.346c0 2.892 29.629 7.794 30.092 7.794.477 0 6.232-.998 6.232-.998l10.541.998s.391-.347.781-1.128c.318-.622.622-1.533.737-2.791.029-.289.044-.593.044-.925.159-2.661-.955-6.84-.955-6.84-6.319.347-10.208-2.212-12.045-3.875-1.532-3.789-3.615-7.91-5.899-9.674 0 0-20.823 1.475-25.175 3.962-.015.014-.029.014-.044.029-4.28 2.487-4.309 13.448-4.309 13.448z" fill="#00A7C7"/><path d="M211.781 346.852s16.716-35.514 81.728-88.047c0 0 139.886-19.073 231.562.217 0 0 36.888 50.711 40.907 76.088 4.02 25.392-354.197 11.742-354.197 11.742z" fill="#263238"/><path opacity=".7" d="M473.695 257.474c1.113 8.431 3.398 30.627 3.904 73.327-51.854 5.264-91.633 11.655-91.633 11.655 12.045-46.084 44.493-81.482 44.493-81.482a327.87 327.87 0 0143.236-3.5zm86.499 67.225c-8.155.333-16.354.766-24.48 1.273l-1.909.13c-1.2.072-2.4.159-3.586.231-.564.029-1.143.072-1.706.116-15.241 1.026-30.207 2.313-44.407 3.701-.535-17.728-1.88-50.682-4.801-72.704 24.64.057 41.067 2.906 44.002 3.455.304.058.477.087.477.087.029.029.043.058.058.087.419.492.824 1.012 1.215 1.518.159.188.318.405.477.608 20.923 26.866 34.66 61.498 34.66 61.498zM220.24 336.267s52.62-10.18 153.435 0c0 0 20.316-45.65 47.125-75.293 0 0-65.2-9.862-127.653 0 0 0-37.263 28.674-72.907 75.293z" fill="#fff"/><path opacity=".2" d="M401.814 256.592s-56.35-3.007-87.512-.187c-31.161 2.819-36.526 15.602-36.526 15.602s12.205-5.032 25.609-7.707c-.029 2.747.116 6.868 1.244 8.459.853 1.214 13.939-.405 16.614-1.909 1.808-1.012 4.107-6.015 5.408-9.168 27.59-2.169 75.163-5.09 75.163-5.09zm-81.843 12.205c-1.056.434-10.845 2.299-13.448 1.851-.738-.131-.868-3.746-.853-6.782a84.342 84.342 0 014.67-.694c2.82-.347 7.563-.767 13.434-1.244-1.287 3.051-2.878 6.478-3.803 6.869zm222.626 43.047c-2.733-5.683-8.763-7.476-8.763-7.476s2.56-16.527 0-19.101c-2.559-2.56-25.001-1.866-30.033 0-3.63 1.344-6.261 10.295-7.447 15.197h-71.49c.593-5.061 1.243-13.433-.521-15.197-2.559-2.56-25.001-1.866-30.033 0-5.032 1.865-8.156 18.393-8.156 18.393s-5.379.708-11.076 5.09c-5.697 4.381-10.845 46.98-10.845 46.98h176.701c.015-.014 4.396-38.218 1.663-43.886z" fill="#000"/><path d="M305.684 353.142s5.148-42.585 10.845-46.981c5.697-4.381 11.076-5.09 11.076-5.09s3.124-16.527 8.156-18.393c5.032-1.865 27.459-2.559 30.033 0 2.56 2.56 0 19.102 0 19.102s6.03 1.793 8.763 7.476c2.733 5.682-1.648 43.886-1.648 43.886h-67.225z" fill="#263238"/><path opacity=".4" d="M305.684 353.142s5.148-42.585 10.845-46.981c5.697-4.381 11.076-5.09 11.076-5.09s3.124-16.527 8.156-18.393c5.032-1.865 27.459-2.559 30.033 0 2.56 2.56 0 19.102 0 19.102s6.03 1.793 8.763 7.476c2.733 5.682-1.648 43.886-1.648 43.886h-67.225z" fill="#fff"/><path d="M322.79 325.422a29.82 29.82 0 01-3.21-1.793c-.998-.622-1.995-1.273-2.95-1.996-1.908-1.446-3.745-3.051-5.437-4.974-1.648-1.937-3.239-4.193-4.179-7.056a16.204 16.204 0 01-.549-2.227l-.246-1.981c-.072-1.2-.13-2.401-.101-3.514.029-4.54.39-8.835.896-13.144.492-4.309 1.114-8.56 1.938-12.826a2.483 2.483 0 012.907-1.967 2.496 2.496 0 012.01 2.386l.274 12.74c.145 4.207.203 8.459.564 12.464.188 1.952.391 4.063.911 4.916.55 1.157 1.504 2.444 2.733 3.63 1.2 1.229 2.632 2.386 4.179 3.456.781.535 1.547 1.084 2.357 1.576.781.477 1.692 1.012 2.343 1.388l.202.116a4.974 4.974 0 011.865 6.782c-1.316 2.284-4.164 3.137-6.507 2.024z" fill="#FEAB6B"/><path d="M316.659 269.346l.781 2.328a2.902 2.902 0 01-.39 2.589l-2.531 3.484a5.334 5.334 0 01-4.352 2.198l-1.07-.014c-1.562-3.76-.477-8.98-.477-8.98l.144-1.518c.13-1.359 1.244-2.314 2.545-2.213l3.022.246c1.056.087 1.967.839 2.328 1.88z" fill="#FEAB6B"/><path d="M329.297 314.548s-11.481-6.449-12.768-8.372c-1.287-1.923-1.865-16.6-1.865-16.6l-8.98 4.034s-1.518 13 0 18.118c1.518 5.119 13.029 17.179 13.029 17.179l10.584-14.359z" fill="#fff"/><path d="M330.873 280.307c-6.868 5.61-6.073 21.748 1.663 32.347 0 0 16.499 1.388 25.667-2.719 9.167-4.106-.969-30.235-10.657-32.303-9.688-2.054-16.673 2.675-16.673 2.675z" fill="#263238"/><path d="M331.264 297.08c-2.516-4.352-5.018-16.065 5.451-19.694 13.087-4.526 18.943 3.817 20.071 12.088 1.128 8.272-3.529 14.518-12.176 13.897-8.632-.622-11.597-3.283-13.346-6.291z" fill="#263238"/><path d="M317.223 330.136c-1.287 6.044.969 20.287 1.33 31.031l30.8 3.557c.015-3.369.636-8.256 2.632-16.021 1.157-4.541 2.805-10.079 5.061-16.875.332-1.012.679-2.039 1.041-3.109 1.619-4.743-1.171-9.544-6.015-10.296a64.101 64.101 0 00-4.078-.52c-5.48-.564-8.532-1.721-13.434-1.547-1.619.057-4.901-1.389-6.521-1.244-5.798.492-9.616 9.356-10.816 15.024z" fill="#00A7C7"/><path d="M347.864 301.071c-1.547 4.729-3.615 13.419-.665 16.788 0 0-4.497-.925-14.46 4.526-2.574-4.15-.434-5.321-.434-5.321 5.509-.983 5.871-4.945 5.422-8.705l10.137-7.288z" fill="#FEAB6B"/><path opacity=".2" d="M343.728 304.05l-6.001 4.309c.116.897.174 1.793.116 2.661 2.082-.188 5.176-2.27 5.654-4.382.26-1.055.347-2.082.231-2.588z" fill="#000"/><path d="M349.932 290.038c.101 7.881.318 11.221-3.341 15.545-5.509 6.507-15.212 4.916-17.67-2.777-2.212-6.926-2.01-18.653 5.437-22.355 7.317-3.644 15.458 1.707 15.574 9.587z" fill="#FEAB6B"/><path d="M343.236 282.664c-2.183 2.733 2.791 11.365 6.71 12.84 7.635-2.501-.188-21.01-6.71-12.84z" fill="#263238"/><path d="M333.91 278.991c-2.906 1.272-5.625 6.724-5.972 8.763 4.309.318 15.414-4.656 15.414-4.656s7.823 1.446 3.615-2.097c-4.208-3.528-13.057-2.01-13.057-2.01zm2.906 14.257c.044.637-.246 1.186-.665 1.215-.419.029-.795-.463-.839-1.099-.043-.636.246-1.186.666-1.214.404-.029.795.462.838 1.098zm-7.23.55c.044.636-.246 1.186-.665 1.214-.419.029-.795-.462-.839-1.098-.043-.637.246-1.186.666-1.215.419-.043.795.463.838 1.099z" fill="#263238"/><path d="M328.936 292.713l-1.562-.332s.868 1.142 1.562.332z" fill="#263238"/><path d="M332.652 294.593s-.882 2.834-1.966 4.251c.896.723 2.313.261 2.313.261l-.347-4.512z" fill="#E76F3D"/><path d="M336.672 301.346a6.152 6.152 0 01-.94.145c-.101.014-.188-.073-.203-.174-.014-.101.073-.188.174-.202 2.82-.217 3.962-2.271 3.976-2.285a.186.186 0 01.261-.072c.086.043.13.159.072.26-.043.058-1.012 1.779-3.34 2.328z" fill="#263238"/><path d="M352.592 297.08c-.448 1.576-1.576 2.791-2.747 3.427-1.779.955-3.109-.52-2.993-2.429.115-1.721 1.171-4.295 3.138-4.468 1.923-.159 3.108 1.677 2.602 3.47z" fill="#FEAB6B"/><path d="M340.359 291.383a.38.38 0 01-.405-.173c-.896-1.49-3.137-1.663-3.152-1.663a.376.376 0 01-.347-.405.374.374 0 01.405-.347c.101.014 2.646.217 3.745 2.024a.396.396 0 01-.13.521 1.043 1.043 0 00-.116.043zm-12.435-.954a.372.372 0 01-.347-.636c1.504-1.447 3.195-1.071 3.268-1.056a.359.359 0 01.274.448.358.358 0 01-.448.275c-.058-.015-1.388-.289-2.588.853a.246.246 0 01-.159.116zm8.242 1.749l-1.562-.332c-.014 0 .868 1.142 1.562.332z" fill="#263238"/><path opacity=".2" d="M340.128 335.934c1.981 5.842 7.042 10.195 11.886 12.769 1.157-4.541 2.805-10.079 5.061-16.875-3.036-4.252-7.288-7.274-12.71-6.449 0 0-6.247 4.641-4.237 10.555z" fill="#000"/><path d="M351.175 362.353c-.39 3.817 4.743 15.906 4.743 15.906h-4.077s-2.502-7.519-5.033-16.485a250.075 250.075 0 01-3.036-11.756 140.66 140.66 0 01-1.114-5.234 80.98 80.98 0 01-.809-5.162c-.492-4.396.072-8.3.997-11.539 1.822-6.377 5.148-10.18 5.148-10.18l-.824-.058c7.707-.087 11.872 2.588 12.392 7.389.159 1.475-.535 5.22-1.59 9.789-2.213 9.544-5.987 22.717-6.71 26.607-.029.304-.072.535-.087.723zm-20.489-47.241s-9.24 15.053-11.424 20.533c-2.183 5.466-.925 21.097-.925 21.097s-4.179-18.812-1.49-28.153c2.675-9.327 7.447-16.861 13.839-13.477z" fill="#fff"/><path opacity=".2" d="M358.015 335.038c-2.213 9.543-5.987 22.717-6.71 26.606-1.562.073-3.109.116-4.468.145a251.323 251.323 0 01-3.037-11.756 139.047 139.047 0 01-1.113-5.235c1.894-.766 4.512-1.807 5.524-2.328 1.648-.824 1.099-16.282 1.099-16.282 3.788 2.242 6.622 5.394 8.705 8.85z" fill="#000"/><path d="M320.144 355.788l2.212 1.056a2.842 2.842 0 002.618-.073l3.774-2.082a5.313 5.313 0 002.704-4.063l.115-1.056c-3.542-2.01-8.864-1.562-8.864-1.562l-1.532-.043c-1.36-.029-2.444.954-2.502 2.27l-.116 3.022c-.043 1.056.593 2.054 1.591 2.531z" fill="#FEAB6B"/><path d="M359.548 325.06a73.643 73.643 0 011.894 13.101c.116 2.27.144 4.555-.217 7.115-.188 1.286-.434 2.631-1.113 4.236-.348.796-.825 1.692-1.634 2.589-.42.448-.897.896-1.504 1.287-.275.188-.665.376-.911.491l-.535.217c-2.806 1.041-5.148 1.2-7.447 1.33-2.299.102-4.497 0-6.666-.173-4.353-.405-8.532-1.056-12.754-2.126-1.33-.332-2.126-1.692-1.793-3.022a2.466 2.466 0 012.357-1.865h.087c2.01-.044 4.092-.044 6.116-.13 2.039-.044 4.064-.13 6.059-.29 1.996-.144 3.962-.347 5.813-.636 1.822-.275 3.658-.752 4.714-1.301l.188-.101c-.029 0-.174.086-.231.115-.174.116-.275.174-.347.261-.131.115-.102.072-.058-.087.086-.347.217-1.056.26-1.837.101-1.59 0-3.47-.174-5.364-.173-1.895-.462-3.847-.78-5.799-.29-1.937-.68-3.962-1.027-5.798l-.029-.159c-.506-2.704 1.273-5.307 3.977-5.799 2.617-.491 5.147 1.186 5.755 3.745z" fill="#FEAB6B"/><path d="M353.604 320.245c4.049-1.344 7.216 3.211 8.532 11.207 1.316 7.996 1.533 20.446-2.834 22.76s-12.523 1.909-12.523 1.909l-4.685-9.096s8.315-1.388 9.081-2.588c.767-1.2-.983-12.233-1.619-15.545-.651-3.325-.347-7.186 4.048-8.647z" fill="#fff"/><path d="M398.532 353.142s5.147-42.585 10.845-46.981c5.697-4.381 11.076-5.09 11.076-5.09s3.123-16.527 8.156-18.393c5.032-1.865 27.459-2.559 30.033 0 2.559 2.56 0 19.102 0 19.102s6.03 1.793 8.763 7.476c2.733 5.683-1.649 43.886-1.649 43.886h-67.224z" fill="#263238"/><path opacity=".4" d="M398.532 353.142s5.147-42.585 10.845-46.981c5.697-4.381 11.076-5.09 11.076-5.09s3.123-16.527 8.156-18.393c5.032-1.865 27.459-2.559 30.033 0 2.559 2.56 0 19.102 0 19.102s6.03 1.793 8.763 7.476c2.733 5.683-1.649 43.886-1.649 43.886h-67.224z" fill="#fff"/><path d="M417.937 318.163c-1.894 4.83-4.02 9.11-6.752 13.491-3.153 4.801-6.045 9.023-11.467 12.277-9.284 4.714-22.124.998-31.321-2.241l1.446-5.972c6.594.404 13.419.896 19.825.014 4.367-.694 5.061-1.836 7.649-5.119 3.63-5.09 6.551-11.293 9.096-17.019l11.524 4.569z" fill="#FFB573"/><path d="M412.327 308.446c-3.543.81-7.158 5.379-17.815 24.134 0 0-1.648 2.256-8.763 3.022l-.535 11.12s9.978.621 12.465-.738c2.473-1.359 18.711-22.615 18.711-22.615l-4.063-14.923z" fill="#263238"/><path opacity=".2" d="M385.749 335.602l-.535 11.105s7.997.506 11.453-.376c.405-.101.752-.217.997-.347 1.432-.795 7.476-8.242 12.306-14.373 3.528-4.468 6.406-8.242 6.406-8.242l-4.049-14.923c-3.528.81-7.158 5.379-17.815 24.134 0 0-1.648 2.256-8.763 3.022z" fill="#fff"/><path opacity=".2" d="M396.667 346.346c.404-.101.751-.217.997-.347 1.432-.796 7.476-8.243 12.306-14.374-1.114-6.362-2.646-11.394-2.646-11.394s-9.631 15.009-10.657 26.115z" fill="#000"/><path d="M372.143 336.513l-7.461-3.63-.16 10.498s7.028 1.663 8.301-1.995l-.68-4.873zm-14.113-2.212l.275 8.69 6.217.39.159-10.498-6.651 1.418z" fill="#FFB573"/><path d="M385.749 335.125l-4.092.766.304 10.888 3.89 1.114-.102-12.768zm62.077 37.943l-44.696-4.743a2.23 2.23 0 01-1.995-2.169c-.926-43.843 11.206-57.71 11.206-57.71a80.677 80.677 0 0112.523-1.2c6.102.159 12.189.679 18.234 1.533a85.801 85.801 0 0112.233 2.53c2.111 1.171 3.282 11.062-2.097 40.864-1.417 7.808-2.227 14.605-2.588 18.581-.159 1.432-1.417 2.458-2.82 2.314z" fill="#263238"/><path d="M416.954 324.424l-8.604-.911-1.749 10.209 4.309 3.485 4.887-1.793 1.157-10.99z" fill="#263238"/><path opacity=".2" d="M401.12 366.156a2.226 2.226 0 001.996 2.154l44.696 4.743c1.402.145 2.675-.882 2.805-2.284.361-3.991 1.171-10.773 2.588-18.581.767-4.281 1.417-8.17 1.923-11.655 1.273-8.459 1.822-14.692 1.923-19.189.145-6.579-.679-9.413-1.749-10.02a86.408 86.408 0 00-12.248-2.531 163.42 163.42 0 00-18.219-1.547 82.554 82.554 0 00-12.523 1.2c.015 0-12.117 13.867-11.192 57.71z" fill="#fff"/><path d="M442.722 308.301l-14.966 3.398-.145-4.207c1.678-2.314 2.198-3.832 1.302-6.825l10.816-10.05c-.868 5.639-.651 13.505 2.993 17.684z" fill="#FFB573"/><path d="M432.831 314.403l-2.95.868-2.646 1.287s-5.307 18.538-6.073 34.588l-3.008 1.981-2.675-2.66s6.738-28.906 8.662-34.473l-.42-1.431-1.041-2.979 2.603-1.027 3.817 1.273 2.733.289.998 2.284z" fill="#fff"/><path opacity=".2" d="M435.318 294.709l-6.405 5.957a18.88 18.88 0 01.708 3.225c2.487-.463 5.813-3.369 5.972-6.001a8.715 8.715 0 00-.275-3.181z" fill="#000"/><path d="M442.1 305.583s-6.03 3.311-13.723 5.379c0 0-.535-3.369.651-6.131l-6.724 2.502s-1.056 4.902.145 7.62l5.046-2.935 4.801 4.844s10.368-2.791 12.479-7.838l-2.675-3.441z" fill="#263238"/><path opacity=".2" d="M408.191 324.424l-3.991 12.132c24.886 20.288 46.287 12.233 50.943 3.977 1.272-8.459 1.822-14.692 1.923-19.189-5.061-.781-9.645-4.612-11.496-3.485-3.224 1.967-14.503 7.534-19.824 8.243-4.382.578-17.555-1.678-17.555-1.678z" fill="#000"/><path d="M418.472 274.928c-1.315 3.036-1.431 9.529 3.153 7.895 4.598-1.649-.897-13.101-3.153-7.895z" fill="#263238"/><path d="M440.625 281.507c-.347 8.112-.145 12.869-4.165 17.063-6.059 6.304-16.137 2.675-18.219-5.394-1.88-7.273-.984-19.304 6.911-22.601 7.751-3.239 15.82 2.82 15.473 10.932z" fill="#FFB573"/><path d="M446.394 273.858l-8.676-2.531-1.446 4.974c.188-.057.405-.101.579-.159 0 0-1.229 7.491 2.357 11.019 6.738-2.95 10.122-9.631 7.186-13.303z" fill="#263238"/><path d="M443.864 288.202c-.608 2.097-2.14 3.702-3.731 4.54-2.4 1.244-4.164-.766-3.991-3.325.159-2.3 1.605-5.727 4.251-5.9 2.603-.202 4.179 2.285 3.471 4.685z" fill="#FFB573"/><path d="M428.349 283.878c.014.666-.333 1.201-.767 1.201s-.795-.535-.81-1.186c-.014-.665.333-1.2.767-1.2.448-.015.795.52.81 1.185zm-7.462.058c.015.665-.332 1.2-.766 1.2s-.796-.535-.81-1.185c-.014-.665.333-1.2.766-1.2.434-.015.796.52.81 1.185z" fill="#263238"/><path d="M423.258 284.24s-1.475 3.673-3.109 5.466c1.172 1.027 3.153.506 3.153.506l-.044-5.972z" fill="#ED893E"/><path d="M426.888 292.714a5.565 5.565 0 01-.853.057c-.101 0-.202-.086-.202-.188 0-.101.086-.188.188-.188 2.906-.029 4.222-2.053 4.236-2.082a.189.189 0 01.261-.058.204.204 0 01.057.275c-.043.072-1.185 1.822-3.687 2.184zm3.731-11.265a.395.395 0 01-.362-.144c-1.07-1.374-2.501-1.273-2.516-1.273a.389.389 0 01-.419-.361.389.389 0 01.347-.42c.072 0 1.865-.13 3.195 1.576a.39.39 0 01-.072.55.871.871 0 01-.173.072zm-13-.058a.375.375 0 01-.217-.029.399.399 0 01-.188-.52c.911-1.938 2.676-2.184 2.748-2.198a.38.38 0 01.434.333.38.38 0 01-.333.433c-.072 0-1.431.217-2.154 1.764a.364.364 0 01-.29.217z" fill="#263238"/><path d="M439.092 278.702s-.231.13-.622.246c-.766.231-2.14.39-3.427-.68-1.923-1.605-1.099-7.967-8.068-6.319 0 0-1.967-1.157-4.035.419-2.067 1.562-2.704 8.98-5.87 7.172-3.167-1.822-2.314-2.718-2.314-2.718s.81.839 1.489.492c0 0-1.431-1.924-.057-3.789 0 0 .592 1.186 1.185 1.114 0 0-.144-3.905 3.022-8.344 3.167-4.454 15.01-.405 15.01-.405s2.14-2.183 7.186.926c5.033 3.109 5.929 10.295 4.367 12.956m-73.745 80.701c-2.459 0-4.96-.434-7.389-1.33-5.539-2.025-10.108-6.117-12.87-11.539-2.762-5.423-3.398-11.525-1.778-17.193 1.634-5.726 5.35-10.31 10.483-12.928 5.119-2.617 11.033-2.935 16.615-.882 5.538 2.025 10.107 6.117 12.869 11.539 2.762 5.423 3.398 11.525 1.779 17.193-1.634 5.727-5.351 10.31-10.484 12.928a20.214 20.214 0 01-9.225 2.212zm-2.314-41.037c-2.545 0-5.047.592-7.346 1.764-4.092 2.082-7.056 5.755-8.372 10.368-1.33 4.656-.795 9.688 1.475 14.17 2.285 4.483 6.044 7.867 10.599 9.515 4.497 1.634 9.211 1.388 13.303-.694 4.092-2.082 7.057-5.755 8.373-10.368 1.33-4.656.795-9.688-1.475-14.171-2.285-4.482-6.045-7.866-10.585-9.514a17.37 17.37 0 00-5.972-1.07z" fill="#263238"/><path d="M453.118 331.409c-6.246 3.947-12.782 7.186-19.781 9.601-4.555 1.605-9.124.39-13.404-.738-10.556-3.181-19.883-7.837-29.296-13.259l2.631-5.553a494.966 494.966 0 0014.619 4.844c6.681 1.938 14.142 4.584 20.736 4.439.926-.144.145.029 1.721-.723l3.239-1.735c4.309-2.386 8.748-4.989 13.014-7.418l6.521 10.542z" fill="#FFB573"/><path d="M393.471 321.344l-8.126-1.677 2.429 10.209s7.216-.116 7.563-3.962l-1.866-4.57z" fill="#FFB573"/><path d="M379.257 322.66l2.386 8.358 6.131-1.142-2.43-10.224-6.087 3.008z" fill="#FFB573"/><path d="M455.316 311.323c9.501 6.45 3.456 16.832 0 21.951s-25.739 11.77-29.57 11.365c-3.832-.39-21.546-8.835-21.546-8.835l4.468-10.556s12.19 3.456 16.196 3.919c3.976.463 30.452-17.844 30.452-17.844z" fill="#263238"/><path opacity=".2" d="M455.316 311.323c9.501 6.45 3.456 16.832 0 21.951s-25.739 11.77-29.57 11.365c-3.832-.39-21.546-8.835-21.546-8.835l4.468-10.556s12.19 3.456 16.196 3.919c3.976.463 30.452-17.844 30.452-17.844z" fill="#fff"/><path d="M409.435 324.699l-4.179 12.999-3.442-2.212 3.702-11.64 3.919.853zm-12.769 30.467c-4.453-10.975-19.81-25.956-24.639-29.932-4.83-3.977-17.468-5.466-39.548-4.83-7.939.232-15.053 2.69-20.91 5.755-17.048.131-45.057.492-56.509 1.49-8.459.737-30.684 3.094-32.593 11.221-1.923 8.126 10.411 27.575 11.51 27.575h63.132c.232 1.764.449 2.892.608 3.037.911.751 71.403 6 71.403 6s32-9.326 27.546-20.316z" fill="#263238"/><path opacity=".3" d="M396.666 355.166c-4.453-10.975-19.81-25.956-24.639-29.932-4.83-3.977-17.468-5.466-39.548-4.83-7.939.232-15.053 2.69-20.91 5.755-17.048.131-45.057.492-56.509 1.49-8.459.737-30.684 3.094-32.593 11.221-1.923 8.126 10.411 27.575 11.51 27.575h63.132c.232 1.764.449 2.892.608 3.037.911.751 71.403 6 71.403 6s32-9.326 27.546-20.316z" fill="#fff"/><path opacity=".3" d="M560.194 324.685c-8.155.332-16.354.766-24.48 1.272l-1.909.13c-1.2.073-2.4.159-3.586.232a64.83 64.83 0 00-1.706.115 1447.874 1447.874 0 00-33.215 2.646c10.802-27.155 18.205-50.971 18.783-52.851-6.42 15.646-21.14 31.002-21.14 31.002 8.994-17.973 15.4-37.191 18.682-48.021 6.305.723 10.368 1.431 11.684 1.677.304.058.477.087.477.087.029.029.043.058.058.087.419.491.824 1.012 1.215 1.518.159.188.318.405.477.607 20.923 26.881 34.66 61.499 34.66 61.499zm-274.176-23.642c21.372-12.508 41.587-22.905 43.424-23.86-22.804 12.827-48.933 37.192-66.545 55.093-28.241 1.186-42.686 3.991-42.686 3.991 35.658-46.619 72.907-75.293 72.907-75.293 21.444-3.384 43.178-4.439 62.511-4.382-36.627 16.051-68.396 43.409-69.611 44.451z" fill="#fff"/><path d="M418.805 420.381H399.53c-21.43 0-38.797 24.003-38.797 53.618 0 29.614 17.367 53.617 38.797 53.617h19.275c21.429 0 38.796-24.003 38.796-53.617 0-29.615-17.367-53.618-38.796-53.618z" fill="#263238"/><path opacity=".1" d="M424.878 523.813c17.904 0 32.419-22.303 32.419-49.814 0-27.512-14.515-49.815-32.419-49.815-17.905 0-32.42 22.303-32.42 49.815 0 27.511 14.515 49.814 32.42 49.814z" fill="#fff"/><path opacity=".6" d="M427.683 447.074c-9.673 0-17.511 12.06-17.511 26.924 0 14.865 7.838 26.925 17.511 26.925 9.674 0 17.511-12.06 17.511-26.925.015-14.864-7.837-26.924-17.511-26.924z" fill="#263238"/><path d="M196.887 420.381h-19.275c-21.43 0-38.797 24.003-38.797 53.618 0 29.614 17.367 53.617 38.797 53.617h19.275c21.43 0 38.796-24.003 38.796-53.617.014-29.615-17.366-53.618-38.796-53.618z" fill="#263238"/><path opacity=".1" d="M202.96 523.813c17.905 0 32.419-22.303 32.419-49.814 0-27.512-14.514-49.815-32.419-49.815-17.905 0-32.419 22.303-32.419 49.815 0 27.511 14.514 49.814 32.419 49.814z" fill="#fff"/><path opacity=".6" d="M205.78 500.923c9.671 0 17.511-12.055 17.511-26.925 0-14.87-7.84-26.924-17.511-26.924s-17.511 12.054-17.511 26.924 7.84 26.925 17.511 26.925z" fill="#263238"/><path d="M593.987 415.869l.261 55.18c.043 8.835-7.115 16.021-15.95 16.021H437.675a62.948 62.948 0 01-44.855 18.784h-89.999l-10.238-15.357h-20.49l-2.718 2.574a40.57 40.57 0 01-57.03-1.301l-1.244-1.287H164.28c-7.736 0-14.345-5.567-15.675-13.173l-12.508-71.881 457.89 10.44z" fill="#263238"/><path d="M605.397 405.429l-7.491-5.524c-6.825-43.134-16.6-62.235-16.6-62.235l-16.947-14.402c-6.521-23.527-30.135-63.017-42.541-67.572-.029 0-.044 0-.073-.015-2.01-.52-47.342-10.064-118.268-10.064-88.755 0-114.248 14.88-114.248 14.88-35.239 25.955-75.583 76.233-75.583 76.233s-30.597 10.122-57.507 34.255a127.992 127.992 0 00-5.611 5.307 124.015 124.015 0 00-4.641 4.859 127.233 127.233 0 00-3.427 3.904c-4.107 4.888-7.476 10.296-10.18 15.516-1.996 3.875-3.63 7.692-4.974 11.134a119.104 119.104 0 00-1.461 4.049c-.275.809-6.868 8.43-6.868 8.43-3.832 2.082 1.243 33.012 8.141 48.99.925 2.169 3.094 3.557 5.451 3.557h184.394c.318-37.48 22.529-67.701 49.901-67.701 27.359 0 49.569 30.236 49.902 67.701h84.562c.318-37.48 22.529-67.701 49.901-67.701 5.51 0 10.816 1.229 15.776 3.499 18.567 8.488 32.275 31.566 33.938 59.3.043.463.058.926.087 1.389a9.895 9.895 0 001.287-1.692h.014c1.128-.492 2.024-1.504 2.632-3.167 7.071-19.29.434-62.93.434-62.93zm-385.172-69.176c35.659-46.605 72.908-75.279 72.908-75.279 62.453-9.876 127.653 0 127.653 0-26.809 29.643-47.125 75.279-47.125 75.279-100.801-10.166-153.436 0-153.436 0zm165.727 6.203c12.045-46.084 44.493-81.482 44.493-81.482a328.067 328.067 0 0143.235-3.499c1.114 8.43 3.398 30.626 3.905 73.326-51.84 5.264-91.633 11.655-91.633 11.655zm149.747-16.484l-1.908.13c-1.201.072-2.401.159-3.586.231-.564.029-1.143.072-1.707.116-15.241 1.026-30.207 2.313-44.406 3.701-.535-17.728-1.88-50.682-4.801-72.704 24.64.057 41.066 2.906 44.002 3.456.303.057.477.086.477.086.029.029.043.058.058.087.419.492.824 1.012 1.214 1.518.159.188.318.405.477.608 20.939 26.881 34.676 61.498 34.676 61.498-8.17.333-16.369.752-24.496 1.273z" fill="#9BCFE0"/><path d="M367.602 420.381h-19.276c-21.429 0-38.796 24.003-38.796 53.618 0 29.614 17.367 53.617 38.796 53.617h19.276c21.429 0 38.796-24.003 38.796-53.617 0-29.615-17.381-53.618-38.796-53.618z" fill="#263238"/><path opacity=".2" d="M373.675 523.813c17.904 0 32.419-22.303 32.419-49.814 0-27.512-14.515-49.815-32.419-49.815-17.905 0-32.42 22.303-32.42 49.815 0 27.511 14.515 49.814 32.42 49.814z" fill="#fff"/><path opacity=".6" d="M376.48 447.074c-9.674 0-17.511 12.06-17.511 26.924 0 14.865 7.837 26.925 17.511 26.925s17.511-12.06 17.511-26.925c0-14.864-7.837-26.924-17.511-26.924z" fill="#fff"/><path d="M548.54 420.381h-19.275c-21.43 0-38.796 24.003-38.796 53.618 0 29.614 17.366 53.617 38.796 53.617h19.275c21.43 0 38.796-24.003 38.796-53.617 0-29.615-17.366-53.618-38.796-53.618z" fill="#263238"/><path opacity=".2" d="M554.613 523.813c17.905 0 32.419-22.303 32.419-49.814 0-27.512-14.514-49.815-32.419-49.815-17.905 0-32.419 22.303-32.419 49.815 0 27.511 14.514 49.814 32.419 49.814z" fill="#fff"/><path opacity=".6" d="M557.418 500.923c9.671 0 17.511-12.055 17.511-26.925 0-14.87-7.84-26.924-17.511-26.924s-17.511 12.054-17.511 26.924 7.84 26.925 17.511 26.925z" fill="#fff"/><path d="M153.984 478.843l5.611-27.113a5.835 5.835 0 015.712-4.641h40.198a9.926 9.926 0 018.908 5.567l12.724 26.187h-73.153z" fill="#263238"/><path opacity=".7" d="M331.857 397.216l-27.243 17.15-57.854 12.45h-95.697l-25.232-11.062c.448-1.287.925-2.632 1.46-4.049 1.345-3.442 2.979-7.259 4.974-11.134.101-.174.174-.347.275-.521 2.646-5.061 5.929-10.267 9.905-14.98a112.752 112.752 0 013.427-3.905c11.669 2.878 15.559 16.065 15.559 16.065l2.14 20.476.622 5.943h65.619l4.107-5.914 14.272-20.49s19.695-10.411 36.338-13.679c13.26-2.603 38.536-2.95 38.536-2.95 7.346 2.906 8.792 16.6 8.792 16.6z" fill="#fff"/><path d="M294.101 401.872c-.65 5.148-4.482 8.908-8.56 8.387-4.078-.521-6.839-5.119-6.189-10.267.651-5.147 4.483-8.907 8.561-8.386 4.077.52 6.839 5.118 6.188 10.266zm-22.072 10.435c3.18-6.782 1.409-14.319-3.956-16.835-5.366-2.515-12.293.944-15.473 7.726-3.179 6.783-1.408 14.32 3.957 16.835 5.365 2.516 12.292-.943 15.472-7.726zm-112.245-.011c3.179-6.782 1.408-14.319-3.957-16.835-5.365-2.515-12.292.944-15.472 7.726-3.18 6.782-1.409 14.319 3.957 16.835 5.365 2.515 12.292-.944 15.472-7.726z" fill="#fff"/><path d="M146.045 393.76c-3.022 1.099-5.784 3.789-7.273 7.519a14.503 14.503 0 00-1.041 5.437 1.3 1.3 0 01-.578-.13c-2.285-.911-2.589-5.553-.666-10.382 1.909-4.815 5.322-7.997 7.621-7.071 1.301.52 1.966 2.299 1.937 4.627z" fill="#fff"/><path d="M277.501 445.657l3.427.824a2.706 2.706 0 012.039 3.08l-3.022 18.234a2.704 2.704 0 01-2.675 2.27h-27.069a2.715 2.715 0 01-2.719-2.718 2.7 2.7 0 012.213-2.661c4.367-.824 14.59-4.193 24.987-18.002.665-.868 1.764-1.287 2.819-1.027z" fill="#263238"/><path d="M277.501 445.657l-21.617-.072 21.617 5.494v-5.422zm-138.685-.072l-16.138 1.489 8.069 24.452h12.638l-2.762-6.203s-8.502-4.382-12.363-14.244l10.556-5.494z" fill="#263238"/><path opacity=".7" d="M277.805 463.356c0 3.051-2.024 5.524-4.526 5.524-2.501 0-4.526-2.473-4.526-5.524s2.025-5.524 4.526-5.524c2.502 0 4.526 2.473 4.526 5.524zm-142.677.13c.824 2.936.376 5.64-.983 6.016-1.359.375-3.123-1.692-3.948-4.642-.824-2.936-.376-5.64.984-6.016 1.359-.375 3.137 1.692 3.947 4.642zm63.249-58.057H187.3c-.925 0-1.576.897-1.287 1.779l3.225 10.05c.332 1.041 1.692 1.272 2.357.419l7.837-10.05c.709-.896.072-2.198-1.055-2.198zm-3.37 2.386l-3.918 5.032c-.333.434-1.013.304-1.186-.217l-1.62-5.032a.677.677 0 01.651-.882h5.538a.68.68 0 01.535 1.099z" fill="#fff"/><path opacity=".2" d="M331.857 397.216l-27.243 17.15-57.854 12.45h-95.697l-25.232-11.062c.448-1.287.925-2.632 1.46-4.049 1.403-3.601 3.123-7.606 5.249-11.669l-2.024 12.175a4.738 4.738 0 002.747 5.119l14.388 6.463a7.627 7.627 0 007.201-.52l8.748-5.582.622 5.943h65.619l4.107-5.914 9.124 6.146a6.84 6.84 0 005.235 1.012l51.448-10.888a9.087 9.087 0 006.797-6.204l2.993-9.688a6.844 6.844 0 00-2.343-7.418l-7.403-5.726c13.26-2.603 23.295-4.338 23.295-4.338 7.317 2.906 8.763 16.6 8.763 16.6z" fill="#000"/><path d="M163.585 417.691h2.719l.549 4.353h60.27l3.007-4.353 3.803.029-4.106 5.914h-65.62l-.622-5.943zm-2.472 9.125l2.472-1.765h66.545l1.519 1.765h-70.536z" fill="#263238"/><path opacity=".2" d="M605.396 405.429l-7.49-5.524c-2.313-14.561-4.945-26.375-7.418-35.629-4.439-16.499-8.358-24.929-9.066-26.375-.073-.159-.116-.217-.116-.217l-16.947-14.402c-6.521-23.527-30.135-63.017-42.541-67.572-.029 0-.044 0-.073-.014-66.588-8.532-94.048 1.75-94.048 1.75-34.863 42.512-49.178 85.024-49.178 85.024-32.419 17.945-55.411 38.131-55.411 38.131 1.475 13.332-7.938 27.142-7.938 27.142l-10.542 6.637 1.128 15.342c-6.579 20.808-16.976 47.009-16.976 47.009h28.197c.318-37.48 22.529-67.701 49.902-67.701 27.358 0 49.569 30.236 49.901 67.701h84.562c.318-37.48 22.529-67.701 49.902-67.701 5.509 0 10.816 1.229 15.776 3.499 18.566 8.488 32.274 31.566 33.937 59.3.044.463.058.926.087 1.389a9.883 9.883 0 001.287-1.692h.014c1.128-.492 2.025-1.504 2.632-3.167 7.057-19.29.419-62.93.419-62.93zm-219.445-62.973c12.046-46.084 44.494-81.482 44.494-81.482a328.24 328.24 0 0143.235-3.5c1.114 8.431 3.398 30.627 3.904 73.327-51.839 5.264-91.633 11.655-91.633 11.655zm149.748-16.499l-1.908.13c-1.201.072-2.401.159-3.587.231a70.12 70.12 0 00-1.706.116c-15.241 1.027-30.207 2.314-44.407 3.702-.535-17.728-1.879-50.682-4.8-72.705 24.64.058 41.066 2.907 44.002 3.456.303.058.477.087.477.087.029.029.043.058.058.087a39.34 39.34 0 011.214 1.518c.159.188.318.405.477.607 20.938 26.881 34.675 61.499 34.675 61.499-8.169.332-16.368.766-24.495 1.272z" fill="#00A7C7"/><path d="M535.699 325.972l-1.908.13c-4.497-36.83-8.228-55.859-10.498-65.2.303.057.477.086.477.086.029.029.043.058.058.087.419.492.824 1.012 1.214 1.518 5.567 24.973 8.951 49.121 10.657 63.379z" fill="#263238"/><path d="M300.652 476.717h13.216c5.799 0 10.86-3.962 12.19-9.616 3.427-14.532 13.462-40.994 41.544-46.72 29.585-6.03 39.374 29.195 42.396 46.792a11.456 11.456 0 0011.294 9.544h3.166s0-85.878-61.903-79.125c-43.669 4.772-56.003 69.827-56.003 69.827l-5.9 9.298z" fill="#00A7C7"/><path opacity=".2" d="M300.652 476.717h13.216c5.799 0 10.86-3.962 12.19-9.616 3.427-14.532 13.462-40.994 41.544-46.72 29.585-6.03 39.374 29.195 42.396 46.792a11.456 11.456 0 0011.294 9.544h3.166s0-85.878-61.903-79.125c-43.669 4.772-56.003 69.827-56.003 69.827l-5.9 9.298z" fill="#00A7C7"/><path d="M481.59 476.717h13.216c5.799 0 10.86-3.962 12.205-9.616 3.427-14.532 13.462-40.994 41.543-46.72 29.585-6.03 39.375 29.195 42.397 46.792a11.455 11.455 0 0011.293 9.544h3.167s0-85.878-61.903-79.125c-43.655 4.757-56.004 69.827-56.004 69.827l-5.914 9.298z" fill="#00A7C7"/><path opacity=".2" d="M481.59 476.717h13.216c5.799 0 10.86-3.962 12.205-9.616 3.427-14.532 13.462-40.994 41.543-46.72 29.585-6.03 39.375 29.195 42.397 46.792a11.455 11.455 0 0011.293 9.544h3.167s0-85.878-61.903-79.125c-43.655 4.757-56.004 69.827-56.004 69.827l-5.914 9.298z" fill="#00A7C7"/><path opacity=".2" d="M371.925 397.303c7.65-.622 15.357 1.923 21.922 5.943 6.651 4.034 12.059 9.861 16.441 16.253 4.323 6.449 7.663 13.505 10.223 20.793 2.574 7.288 4.41 14.793 5.842 22.355l-1.909-1.605 33.012-.13 33.012.116-1.923 1.533c1.981-7.794 4.671-15.183 7.953-22.413 3.355-7.158 7.274-14.113 12.161-20.374 4.844-6.276 10.672-11.887 17.497-15.964a51.226 51.226 0 0110.83-4.772c3.789-1.113 7.722-1.605 11.612-1.764-3.89.448-7.693 1.301-11.351 2.588a49.912 49.912 0 00-10.267 5.278c-6.334 4.381-11.727 9.992-16.152 16.268-4.483 6.246-8.126 13.086-11.163 20.157-3.037 7.056-5.582 14.46-7.302 21.834l-.362 1.533h-1.562l-33.012.116-33.012-.13h-1.634l-.26-1.591c-1.244-7.432-2.95-14.778-5.249-21.936a93.54 93.54 0 00-9.226-20.432c-3.976-6.319-8.893-12.117-15.052-16.426-6.103-4.28-13.419-7.172-21.069-7.23z" fill="#000"/><path d="M305.742 429.707s40.676-37.798 80.21-29.209c0 0-18.292-9.384-54.095-3.282l-31.219 20.475 5.104 12.016z" fill="#9BCFE0"/><path d="M388.901 353.142s157.86-18.668 192.391-15.472l-13.622-11.583s-159.175 11.395-178.769 27.055z" fill="#00A7C7"/><path opacity=".7" d="M590.474 364.276c-7.577-14.069-15.545-18.06-15.545-18.06l-8.965-12.928c5.987 0 11.178 1.981 15.429 4.599.723 1.46 4.656 9.89 9.081 26.389z" fill="#fff"/><path d="M433.409 346.346c0 2.892-29.628 7.794-30.091 7.794-.477 0-6.232-.998-6.232-.998l-10.541.998s-.391-.347-.781-1.128c-.318-.622-.622-1.533-.738-2.791a9.226 9.226 0 01-.043-.925c-.159-2.661.954-6.84.954-6.84 6.319.347 10.209-2.212 12.045-3.875 1.533-3.789 3.615-7.91 5.9-9.674 0 0 20.822 1.475 25.175 3.962.014.014.029.014.043.029 4.295 2.487 4.309 13.448 4.309 13.448z" fill="#00A7C7"/><path d="M433.41 346.346l-1.143-.969s-32.448 6.579-32.708 0c-.275-6.579 4.338-16.485 4.338-16.485s20.952 1.475 25.218 3.991c4.28 2.502 4.295 13.463 4.295 13.463z" fill="#00A7C7"/><path opacity=".2" d="M433.41 346.346c0 2.892-29.629 7.794-30.092 7.794-.477 0-6.232-.998-6.232-.998l-10.541.998s-.391-.347-.781-1.128c-.318-.622-.622-1.533-.738-2.791l12.046-2.357 2.573-3.21c15.53-.477 22.992-1.359 26.086-1.851a2.18 2.18 0 001.837-2.169c-.015-1.75-.015-4.324.014-5.524.029-.766.68-1.561 1.475-2.256.015.015.029.015.043.029 4.295 2.502 4.31 13.463 4.31 13.463z" fill="#00A7C7"/></g><defs><clipPath id="clip0_86_2"><path fill="#fff" d="M0 0h723v539H0z"/></clipPath></defs></svg>