<svg width="652" height="596" fill="none" xmlns="http://www.w3.org/2000/svg"><path d="M307.891 452.129H8.988c-4.876 0-8.84-4.086-8.84-9.113V9.813C.149 4.786 4.113.7 8.989.7h298.919c4.876 0 8.839 4.086 8.839 9.113v433.203c-.016 5.027-3.978 9.113-8.855 9.113zM8.988 1.099C4.328 1.1.536 5.01.536 9.813v433.203c0 4.804 3.793 8.714 8.452 8.714h298.919c4.659 0 8.452-3.91 8.452-8.714V9.813c0-4.804-3.793-8.714-8.452-8.714H8.988zm633.736 451.03H343.805c-4.876 0-8.839-4.086-8.839-9.113V9.813c0-5.027 3.963-9.113 8.839-9.113h298.919c4.876 0 8.839 4.086 8.839 9.113v433.203c0 5.027-3.963 9.113-8.839 9.113zM343.805 1.099c-4.66 0-8.452 3.91-8.452 8.714v433.203c0 4.804 3.792 8.714 8.452 8.714h298.919c4.659 0 8.452-3.91 8.452-8.714V9.813c0-4.804-3.793-8.714-8.452-8.714H343.805z" fill="#C2C0C0"/><path d="M637.445 548.99h-40.248v.399h40.248v-.399zm-145.311 4.341h-69.706v.399h69.706v-.399zm103.515-19.152h-94.103v.399h94.103v-.399zm-543.673 2.682H22.208v.399h29.768v-.399zm99.381 0H65.769v.399h85.588v-.399zm167.571 6.735H203.649v.399h115.279v-.399z" fill="#EBEBEB"/><path d="M45.397 406.196H12.58V523.31h32.817V406.196z" fill="#FAFAFA"/><path d="M74.128 431.892H41.31v91.418h32.818v-91.418z" fill="#FAFAFA"/><path d="M95.119 356.56H62.3v166.75h32.82V356.56z" fill="#FAFAFA"/><path d="M116.93 221.347H84.113V523.31h32.817V221.347z" fill="#FAFAFA"/><path d="M198.107 244.856h-88.065V523.31h88.065V244.856zm342.402 278.45h37.493v-80.151h-37.493v80.151z" fill="#FAFAFA"/><path d="M507.669 523.315h37.492v-62.563h-37.492v62.563z" fill="#FAFAFA"/><path d="M483.691 523.304h37.493v-114.13h-37.493v114.13z" fill="#FAFAFA"/><path d="M458.776 523.306h37.492V316.64h-37.492v206.666z" fill="#FAFAFA"/><path d="M478.93 270.839H363.867V523.31H478.93V270.839z" fill="#F0F0F0"/><path d="M467.97 281.421h-5.48v30.723h5.48v-30.723zm0 48.055h-5.48v30.723h5.48v-30.723zm0 48.04h-5.48v30.723h5.48v-30.723zm0 48.039h-5.48v30.723h5.48v-30.723zm0 48.056h-5.48v30.723h5.48v-30.723zm-19.412-192.19h-5.48v30.723h5.48v-30.723zm0 48.055h-5.48v30.723h5.48v-30.723zm0 48.04h-5.48v30.723h5.48v-30.723zm0 48.039h-5.48v30.723h5.48v-30.723zm0 48.056h-5.48v30.723h5.48v-30.723zm-19.412-192.19h-5.479v30.723h5.479v-30.723zm0 48.055h-5.479v30.723h5.479v-30.723zm0 48.04h-5.479v30.723h5.479v-30.723zm0 48.039h-5.479v30.723h5.479v-30.723zm0 48.056h-5.479v30.723h5.479v-30.723zm-19.412-192.19h-5.48v30.723h5.48v-30.723zm0 48.055h-5.48v30.723h5.48v-30.723zm0 48.04h-5.48v30.723h5.48v-30.723zm0 48.039h-5.48v30.723h5.48v-30.723zm0 48.056h-5.48v30.723h5.48v-30.723zm-19.427-192.19h-5.48v30.723h5.48v-30.723zm0 48.055h-5.48v30.723h5.48v-30.723zm0 48.04h-5.48v30.723h5.48v-30.723zm0 48.039h-5.48v30.723h5.48v-30.723zm0 48.056h-5.48v30.723h5.48v-30.723z" fill="#F5F5F5"/><path opacity=".5" d="M363.867 270.839h23.7l10.31 252.471h-34.01V270.839z" fill="#E0E0E0"/><path d="M307.304 173.292l68.236 13.31V523.31h-68.236V173.292z" fill="#F0F0F0"/><path d="M307.303 173.292h-54.597V523.31h54.597V173.292z" fill="#E6E6E6"/><path d="M252.709 204.089h122.833v-1.787H252.709v1.787zm0 19.06h122.833v-1.787H252.709v1.787zm0 19.061h122.833v-1.788H252.709v1.788zm0 19.044h122.833v-1.788H252.709v1.788zm0 19.06h122.833v-1.787H252.709v1.787zm0 19.06h122.833v-1.787H252.709v1.787zm0 19.06h122.833v-1.787H252.709v1.787zm0 19.061h122.833v-1.788H252.709v1.788zm0 19.06h122.833v-1.788H252.709v1.788zm0 19.06h122.833v-1.787H252.709v1.787zm0 19.06h122.833v-1.787H252.709v1.787zm0 19.044h122.833v-1.787H252.709v1.787zm0 19.061h122.833v-1.788H252.709v1.788zm0 19.06h122.833v-1.788H252.709v1.788zm0 19.06h122.833v-1.787H252.709v1.787zm0 19.06h122.833v-1.787H252.709v1.787zm0 19.06h122.833v-1.787H252.709v1.787z" fill="#E0E0E0"/><path d="M222.845 98.902H165.77V523.31h57.075V98.902z" fill="#F0F0F0"/><path d="M222.845 98.902H165.77l21.006-37.474h81.735l-45.666 37.474z" fill="#FAFAFA"/><path d="M222.845 98.902l45.666-37.474V523.31h-45.666V98.902z" fill="#EBEBEB"/><path d="M268.511 118.677H165.77v2.266h102.741v-2.266zm0 24.019H165.77v2.267h102.741v-2.267zm0 24.02H165.77v2.266h102.741v-2.266zm0 24.036H165.77v2.266h102.741v-2.266zm0 24.02H165.77v2.266h102.741v-2.266zm0 24.02H165.77v2.266h102.741v-2.266zm0 24.019H165.77v2.267h102.741v-2.267zm0 24.02H165.77v2.266h102.741v-2.266zm0 24.02H165.77v2.266h102.741v-2.266zm0 24.035H165.77v2.267h102.741v-2.267zm0 24.02H165.77v2.267h102.741v-2.267zm0 24.02H165.77v2.267h102.741v-2.267zm0 24.02H165.77v2.266h102.741v-2.266zm0 24.02H165.77v2.266h102.741v-2.266zm0 24.02H165.77v2.266h102.741v-2.266zm0 24.035H165.77v2.267h102.741v-2.267zm0 24.02H165.77v2.267h102.741v-2.267z" fill="#E0E0E0"/><path d="M155.863 304.275H93.556V523.31h62.307V304.275z" fill="#F0F0F0"/><path d="M115.816 315.591h-10v35.16h10v-35.16zm24.536 0h-10v35.16h10v-35.16zm-24.536 45.534h-10v35.16h10v-35.16zm24.536 0h-10v35.16h10v-35.16zm-24.536 45.518h-10v35.16h10v-35.16zm24.536 0h-10v35.16h10v-35.16zm-24.536 45.534h-10v35.16h10v-35.16zm24.536 0h-10v35.16h10v-35.16z" fill="#E6E6E6"/><path d="M155.847 304.275H93.556l14.613-15.178h62.307l-14.629 15.178z" fill="#fff"/><path d="M155.847 304.275l14.629-15.178 14.613 15.178V523.31h-29.242V304.275z" fill="#E6E6E6"/><path d="M328 595.386c165.764 0 300.142-8.089 300.142-18.067S493.764 559.252 328 559.252s-300.142 8.089-300.142 18.067S162.236 595.386 328 595.386z" fill="#F5F5F5"/><path d="M389.022 95.87h197.417c7.941 0 14.38 6.639 14.38 14.827v451.795c0 8.188-6.439 14.827-14.38 14.827H389.022c-7.941 0-14.381-6.639-14.381-14.827V110.697c0-8.188 6.44-14.827 14.381-14.827z" fill="#9BCFE0"/><path d="M380.075 95.87h197.416c7.941 0 14.381 6.639 14.381 14.827v451.795c0 8.188-6.44 14.827-14.381 14.827H380.075c-7.941 0-14.381-6.639-14.381-14.827V110.697c0-8.188 6.44-14.827 14.381-14.827z" fill="#9BCFE0"/><path opacity=".7" d="M380.075 95.87h197.416c7.941 0 14.381 6.639 14.381 14.827v451.795c0 8.188-6.44 14.827-14.381 14.827H380.075c-7.941 0-14.381-6.639-14.381-14.827V110.697c0-8.188 6.44-14.827 14.381-14.827z" fill="#fff"/><g opacity=".9" fill="#fff"><path opacity=".9" d="M411.097 95.87h-12.245v481.433h12.245V95.87zm129.552 0h-7.508v481.433h7.508V95.87z"/><path opacity=".9" d="M365.694 200.44v12.624l226.178-14.444v-12.624L365.694 200.44zm.008 298.247v12.625H591.88v-12.625H365.702zm-.009-235.225v6.879h226.178v-6.879H365.693zm.001 162.748v14.46l226.178-78.907v-14.459L365.694 426.21z"/><path opacity=".9" d="M444.967 95.87h-12.245l32.911 481.449h12.244l-32.91-481.45z"/></g><path d="M552.444 527.923H283.185v-86.535H520.54l22.152 18.561c6.176 5.171 9.752 12.944 9.752 21.147v46.827z" fill="#00A7C7"/><path opacity=".5" d="M552.444 527.923H283.185v-86.535H520.54l22.152 18.561c6.176 5.171 9.752 12.944 9.752 21.147v46.827z" fill="#000"/><path d="M281.638 520.118c0-31.584 13.885-57.184 31.021-57.184h-32.91c-17.136 0-31.022 25.6-31.022 57.184 0 31.585 13.886 57.185 31.022 57.185h32.91c-17.136.016-31.021-25.6-31.021-57.185z" fill="#263238"/><path d="M312.66 577.303c17.133 0 31.022-25.602 31.022-57.185 0-31.582-13.889-57.184-31.022-57.184s-31.022 25.602-31.022 57.184c0 31.583 13.889 57.185 31.022 57.185z" fill="#263238"/><path d="M315.152 564.711c12.149 0 21.997-19.965 21.997-44.593 0-24.627-9.848-44.592-21.997-44.592s-21.997 19.965-21.997 44.592c0 24.628 9.848 44.593 21.997 44.593z" fill="#fff"/><path d="M102.828 520.118c0-31.584 13.886-57.184 31.022-57.184h-32.911c-17.136 0-31.021 25.6-31.021 57.184 0 31.585 13.885 57.185 31.021 57.185h32.911c-17.136.016-31.022-25.6-31.022-57.185z" fill="#263238"/><path d="M133.85 577.303c17.133 0 31.022-25.602 31.022-57.185 0-31.582-13.889-57.184-31.022-57.184s-31.022 25.602-31.022 57.184c0 31.583 13.889 57.185 31.022 57.185zm360.374-57.185c0-31.584 13.886-57.184 31.022-57.184h-32.911c-17.136 0-31.022 25.6-31.022 57.184 0 31.585 13.886 57.185 31.022 57.185h32.911c-17.121.016-31.022-25.6-31.022-57.185z" fill="#263238"/><path d="M525.246 577.303c17.133 0 31.022-25.602 31.022-57.185 0-31.582-13.889-57.184-31.022-57.184s-31.022 25.602-31.022 57.184c0 31.583 13.889 57.185 31.022 57.185z" fill="#263238"/><path d="M527.754 564.711c12.148 0 21.997-19.965 21.997-44.593 0-24.627-9.849-44.592-21.997-44.592-12.149 0-21.998 19.965-21.998 44.592 0 24.628 9.849 44.593 21.998 44.593z" fill="#fff"/><path d="M244.981 536.078h-39.799l-2.229-2.298c-2.291-2.362-5.403-3.687-8.654-3.687H94.84c-3.25 0-6.362 1.325-8.653 3.687l-1.347 1.389h-3.622c-11.796 0-21.363-9.864-21.363-22.025v-33.819h225.73l-17.988 40.251c-3.39 9.911-12.446 16.502-22.616 16.502z" fill="#00A7C7"/><path opacity=".2" d="M244.981 536.078h-39.799l-2.229-2.298c-2.291-2.362-5.403-3.687-8.654-3.687H94.84c-3.25 0-6.362 1.325-8.653 3.687l-1.347 1.389h-3.622c-11.796 0-21.363-9.864-21.363-22.025v-33.819h225.73l-17.988 40.251c-3.39 9.911-12.446 16.502-22.616 16.502z" fill="#00A7C7"/><path d="M479.951 335.429a.69.69 0 01-.387-.111.806.806 0 01-.278-1.086l10.836-19.152a.754.754 0 011.052-.287.804.804 0 01.279 1.085l-10.836 19.152a.76.76 0 01-.666.399z" fill="#263238"/><path d="M537.104 430.71v-21.769c0-11.443-16.13-65.436-38.313-75.539-22.183-10.102-75.852-14.635-109.645-12.768-33.793 1.868-78.886 74.741-78.886 74.741l4.907 62.691c6.873 0 28.746-2.123 31.966 59.898.465 9.065 7.694 16.183 16.486 16.183h118.36c8.22 0 15.202-6.224 16.347-14.635 3.034-22.105 11.177-61.462 30.651-61.462 13.669 0 23.483 12.066 23.483 25.903 0-15.194-3.591-30.164-10.449-43.619l-4.907-9.624z" fill="#9BCFE0"/><path d="M265.29 320.618c-61.579 0-131.316 74.741-131.316 74.741h176.27s45.094-72.889 78.886-74.741H265.29z" fill="#9BCFE0"/><path opacity=".4" d="M269.068 320.618c-51.874 0-106.255 53.036-122.122 69.762-1.765 1.867-.495 4.979 2.028 4.979h142.199c11.579 0 22.508-5.65 29.35-15.29 15.279-21.482 44.753-58.142 68.592-59.466H269.068v.015z" fill="#fff"/><path d="M310.244 395.375l-65.124 52.971-175.218-.574S59.84 462.838 59.84 479.341h225.745c3.699-10.103 16.656-21.275 29.567-21.275 0-18.801-4.908-62.691-4.908-62.691z" fill="#9BCFE0"/><path opacity=".2" d="M267.628 432.737a.773.773 0 01-.758-.67c-.062-.431.232-.846.65-.91 19.195-3 33.576-12.672 42.26-20.269 4.923-4.293 5.883-11.667 2.245-17.141a.792.792 0 01.201-1.101.74.74 0 011.068.207c4.087 6.145 3.003 14.428-2.523 19.264-8.839 7.725-23.468 17.572-43.019 20.62h-.124z" fill="#000"/><path d="M69.918 447.772s30.774-36.98 64.056-52.397h176.27l-65.124 52.971-175.202-.574z" fill="#9BCFE0"/><path d="M206.219 447.772H90.629v3.463h115.59v-3.463z" fill="#263238"/><path d="M203.819 440.845l6.208-6.4a10.19 10.19 0 015.077-2.857l46.765-10.501a9.9 9.9 0 014.97.159l2.492.718c7.275 2.107 9.922 11.316 4.953 17.173l-10.046 11.843a10.204 10.204 0 01-6.78 3.575l-45.434 4.341c-3.034.287-6.037-.83-8.205-3.048-4.009-4.134-4.024-10.869 0-15.003zm-109.923 3.384l-5.14-9.88a8.715 8.715 0 00-3.095-3.351 8.196 8.196 0 00-8.267-.24l-3.885 2.107c-1.92 1.038-3.375 2.793-4.072 4.916l-2.383 7.23c-1.672 5.059 1.455 10.469 6.563 11.379l10.697 1.899c3.576.639 7.152-1.149 8.87-4.452l.712-1.357a8.93 8.93 0 000-8.251z" fill="#fff"/><path opacity=".4" d="M346.251 397.498h162.973c5.944 0 10.186-5.889 8.483-11.763-3.7-12.784-10.852-32.734-21.533-42.916a8.906 8.906 0 00-4.226-2.235c-19.21-4.197-50.093-6.99-73.003-8.618-21.022-1.484-41.595 6.575-56.363 22.073-7.771 8.171-16.161 18.162-23.514 29.574-3.824 5.953.279 13.885 7.183 13.885z" fill="#fff"/><path d="M240.878 498.046c0 5.235-5.201 9.48-11.61 9.48s-11.61-4.245-11.61-9.48 5.201-9.48 11.61-9.48 11.61 4.245 11.61 9.48zm-93.545-57.52c3.808 0 5.665 4.022 4.148 8.969-1.517 4.964-5.836 8.97-9.644 8.97s-5.665-4.022-4.148-8.97c1.517-4.947 5.836-8.969 9.644-8.969zm-78.113 57.52c0 5.235-1.47 9.48-3.266 9.48-1.81 0-3.266-4.245-3.266-9.48s1.47-9.48 3.266-9.48 3.267 4.245 3.267 9.48zm272.015-102.064v-5.379c0-6.591 5.867-11.507 12.137-10.166l19.845 4.261c4.675 1.005 8.019 5.251 8.019 10.166v1.118c0 5.729-4.505 10.39-10.078 10.39h-19.845c-5.573 0-10.078-4.661-10.078-10.39zM445.648 334.2s-2.647-.271-7.26-.686c20.418 43.108 15.217 64 15.217 64h15.572c.14-26.254-23.529-63.314-23.529-63.314z" fill="#263238"/><path opacity=".2" d="M273.572 378.202c-.665 7.023-6.377 12.369-13.22 12.369h-80.217c-5.851 0-7.972-6.719-3.746-11.746 8.142-9.656 16.904-18.115 24.861-25.026 15.108-13.119 33.87-19.934 51.409-18.673 2.136.16 4.35.319 6.641.495 5.867.463 10.743 4.868 11.966 10.805 2.895 13.917 3.003 24.482 2.306 31.776z" fill="#9BCFE0"/><path opacity=".2" d="M455.447 522.784c-.434 0-.774-.351-.774-.798 0-16.152 7.988-82.753 10.077-92.744 2.028-9.688 2.044-20.492.016-27.531a.797.797 0 01.526-.989c.403-.128.836.111.96.542 2.09 7.278 2.09 18.402.015 28.329-2.089 9.959-10.046 76.305-10.046 92.393a.788.788 0 01-.774.798zm-2.059-92.744h-18.87c-1.579 0-2.632-1.324-2.353-2.952l.387-2.267c.278-1.628 1.795-2.952 3.359-2.952h18.87c1.579 0 2.632 1.324 2.353 2.952l-.387 2.267c-.279 1.628-1.78 2.952-3.359 2.952z" fill="#000"/><path d="M510.478 188.278h-1.548c0-4.086-.573-8.124-1.687-12.002l1.486-.463a45.118 45.118 0 011.749 12.465zm-6.672-20.413c-7.229-13.374-20.898-21.673-35.697-21.673v-1.596c15.357 0 29.567 8.618 37.06 22.503l-1.363.766z" fill="#00A7C7"/><path d="M468.094 150.182c-20.403 0-36.951 17.061-36.951 38.096 0 36.692 36.951 61.861 36.951 61.861s36.966-25.169 36.966-61.861c0-21.035-16.548-38.096-36.966-38.096zm0 56.035c-9.52 0-17.245-7.964-17.245-17.779 0-9.832 7.725-17.78 17.245-17.78 9.535 0 17.26 7.948 17.26 17.78 0 9.831-7.725 17.779-17.26 17.779z" fill="#00A7C7"/><path d="M402.258 574.893l9.35-.159 2.693-22.344-9.334.159-2.709 22.344zm44.629-.718l9.071-2.857-5.635-21.179-9.071 2.873 5.635 21.163z" fill="#FEAB6B"/><path d="M455.679 568.509l-10.124 5.379a.848.848 0 00-.418.957l2.168 8.475c.232.878 1.207 1.309 1.981.878 3.22-1.788 5.511-3.256 9.613-5.427 2.523-1.34 10.263-5.123 13.746-6.974 3.406-1.82 2.168-5.65.573-5.219-7.121 1.963-12.941 2.538-15.929 1.724a2.262 2.262 0 00-1.61.207zm-43.886 5.107l-10.201.16a.817.817 0 00-.789.67l-1.719 8.587c-.17.894.496 1.723 1.378 1.692 3.684-.128 8.994-.431 13.622-.511 5.403-.08 6.982.143 13.313.032 3.839-.064 4.845-4.07 3.236-4.405-7.338-1.532-10.202-1.612-16.58-5.522-.681-.399-1.455-.703-2.26-.703z" fill="#263238"/><path d="M425.989 281.756a298.718 298.718 0 006.919 13.438c2.431 4.437 4.938 8.826 7.647 12.96.697 1.005 1.347 2.074 2.059 3.064l1.734 2.458c.371.479.573.718.619.83.047.111.093.255.542.287.882.064 2.755-.894 4.427-2.234a35.953 35.953 0 002.57-2.251c.836-.798 1.703-1.755 2.43-2.522l6.115 3.544c-.557 1.532-1.146 2.761-1.827 4.101a28.116 28.116 0 01-2.384 3.863 23.43 23.43 0 01-3.25 3.639c-1.285 1.165-2.864 2.25-4.908 3.016-2.012.782-4.644 1.037-7.059.399-2.43-.622-4.442-1.899-5.913-3.256-.418-.335-.712-.686-1.053-1.037l-.495-.527-.356-.415-1.362-1.612c-.913-1.069-1.749-2.17-2.616-3.256-3.359-4.421-6.363-9.017-9.133-13.725-1.363-2.362-2.71-4.74-3.948-7.166-1.254-2.458-2.446-4.804-3.591-7.486l12.833-6.112z" fill="#FEAB6B"/><path d="M409.239 281.82c-2.523 8.841 15.217 32.925 15.217 32.925l17.88-11.858s-5.248-12.289-12.384-21.658c-7.338-9.64-17.957-9.097-20.713.591z" fill="#00A7C7"/><path opacity=".2" d="M409.239 281.82c-2.523 8.841 15.217 32.925 15.217 32.925l17.88-11.858s-5.248-12.289-12.384-21.658c-7.338-9.64-17.957-9.097-20.713.591z" fill="#000"/><path opacity=".2" d="M420.137 292.194c3.684 1.628 9.087 10.757 11.904 17.524l-7.585 5.027s-6.827-9.273-11.409-18.434c2.4-2.713 5.14-4.963 7.09-4.117z" fill="#000"/><path d="M453.884 309.542l6.47-10.789 5.635 9.289s-2.074 4.07-6.223 5.251l-5.882-3.751z" fill="#B55B52"/><path d="M469.379 298.865l-.015 3.335a4.66 4.66 0 01-.991 2.857l-2.369 3.001-5.634-9.289 5.836-2.202c1.532-.591 3.173.606 3.173 2.298z" fill="#FEAB6B"/><path d="M463.063 312.654l-10.186-.159 5.635-21.754 10.186.16-5.635 21.753z" fill="#9BCFE0"/><path d="M464.1 312.654l-10.185-.159 5.634-21.754 10.186.16-5.635 21.753z" fill="#263238"/><path opacity=".2" d="M414.301 552.405l-1.393 11.508-9.334.159 1.377-11.523 9.35-.144zm26.951.607l9.087-2.873 2.894 10.917-9.086 2.873-2.895-10.917z" fill="#000"/><path d="M369.719 286.496c7.631 33.867 5.96 67.463 6.796 74.709 7.306-.543 34.83-2.666 49.83-3.815 4.783-55.046-6.548-82.992-6.548-82.992s-3.205-.638-7.555-1.101a83.126 83.126 0 00-6.966-.447c-5.634-.096-14.845.83-21.192 1.628-1.331.176-2.678.383-3.994.591-1.207.207-2.399.446-3.529.67-.046.016-.108.016-.155.032-4.721.973-7.786 5.841-6.687 10.725z" fill="#00A7C7"/><path opacity=".2" d="M369.719 286.496c7.631 33.867 5.96 67.463 6.796 74.709 7.306-.543 34.83-2.666 49.83-3.815 4.783-55.046-6.548-82.992-6.548-82.992s-3.205-.638-7.555-1.101a83.126 83.126 0 00-6.966-.447c-5.634-.096-14.845.83-21.192 1.628-1.331.176-2.678.383-3.994.591-1.207.207-2.399.446-3.529.67-.046.016-.108.016-.155.032-4.721.973-7.786 5.841-6.687 10.725z" fill="#000"/><path opacity=".2" d="M378.233 293.614l-5.712 7.581c.015.096.03.176.03.271a253.791 253.791 0 011.874 15.019c5.464-6.959 4.644-19.551 3.808-22.871z" fill="#000"/><path d="M386.592 259.428c1.192 5.171 1.115 10.916-2.477 15.034 3.979 3.511 9.133 7.533 17.26 7.198 8.112-.335 6.285-5.953 3.932-8.826-6.935-1.149-6.95-5.793-6.997-10.901-.015-1.069-.681-1.995-1.656-2.33l-7.616-2.521c-1.44-.463-2.787.846-2.446 2.346z" fill="#FEAB6B"/><path d="M408.558 314.665c-4.179 0-8.034-5.171-8.793-11.778-.464-4.07.387-7.837 2.307-10.055 1.099-1.277 2.461-1.947 3.963-1.947h.015c4.18 0 8.034 5.171 8.793 11.778.464 4.07-.387 7.837-2.307 10.055-1.099 1.261-2.476 1.947-3.978 1.947zm-2.508-22.184c-.015 0-.015 0 0 0-1.068 0-2.012.479-2.817 1.42-1.594 1.852-2.322 5.219-1.92 8.794.651 5.618 3.963 10.374 7.245 10.374h.016c1.052 0 1.996-.479 2.801-1.42 1.595-1.852 2.338-5.219 1.92-8.81-.65-5.618-3.963-10.358-7.245-10.358z" fill="#9BCFE0"/><path opacity=".2" d="M398.311 262.221l-7.663 1.021c.17.351.387.686.588 1.022 1.455 2.394 4.675 3.974 7.957 4.548-.821-1.851-.851-4.165-.882-6.591z" fill="#000"/><path d="M408.249 241.696c4.257.734 12.229-4.245 10.371-10.884-2.384 3.08-10.371 2.058-10.371 2.058v8.826zm-16.626 7.102c.464 4.437-4.845 12.321-11.161 10.023 3.127-2.282 2.601-10.549 2.601-10.549l8.56.526z" fill="#263238"/><path d="M385.385 240.148c-1.146 9.48-2.276 14.986 1.439 20.684 5.604 8.571 17.601 6.448 21.471-2.49 3.483-8.043 4.768-22.216-3.452-27.658-8.112-5.379-18.328-.016-19.458 9.464z" fill="#FEAB6B"/><path d="M384.115 249.692c2.245 2.442 8.421-7.517 7.291-11.076 2.322 1.037 6.78-.958 6.502-4.932 6.95 3.831 17.012 6.863 17.183-.064.17-6.942-6.192-12.033-12.415-12.592.743 2.059-1.223 2.937-5.264 2.059-4.04-.894-19.628-8.252-17.894 6.496-5.79.399-6.548 7.995 4.597 20.109z" fill="#263238"/><path d="M379.564 246.069c.325 2.554 1.765 4.724 3.406 5.985 2.476 1.9 4.024-.111 4.257-3.128.216-2.713-.016-6.958-2.957-7.677-2.879-.686-5.078 1.9-4.706 4.82z" fill="#FEAB6B"/><path d="M393.604 359.896l32.756-2.506s4.226 69.314 3.917 98.713c-.325 30.563-13.886 105.543-13.886 105.543l-15.821.256s1.254-72.714 1.254-102.735c0-40.443-8.22-99.271-8.22-99.271z" fill="#263238"/><path opacity=".2" d="M406.267 431.939c.434 1.995 12.616 58.191 16.548 91.004 2.105-13.645 4.257-28.935 5.697-42.453l-22.245-48.551z" fill="#000"/><path d="M408.682 358.747s24.922 62.978 30.557 90.605c6.161 30.244 16.007 106.74 16.007 106.74l-16.905 2.729s-12.817-57.184-19.969-86.407c-8.158-33.277-40.434-86.009-41.842-111.209l32.152-2.458z" fill="#263238"/><path d="M457.382 557.577l-21.022 5.075-2.647-8.347 22.957-4.054.712 7.326zm-38.994 4.404l-18.855.304-.093-6.273 21.069-.67-2.121 6.639z" fill="#00A7C7"/><path d="M398.202 245.096c-.139.766.139 1.452.619 1.548.48.096.991-.447 1.13-1.213.14-.766-.139-1.453-.619-1.548-.495-.096-.991.447-1.13 1.213zm9.164 2.011c-.139.766.139 1.452.619 1.548.48.095.991-.447 1.13-1.213.14-.766-.139-1.453-.619-1.548-.48-.096-.991.446-1.13 1.213z" fill="#263238"/><path d="M404.348 246.915s.882 4.724 2.353 7.214c-1.533 1.006-3.669 0-3.669 0l1.316-7.214z" fill="#E76F3D"/><path d="M401.468 256.475c-2.817-.654-3.963-2.825-4.025-2.921-.062-.111-.015-.255.093-.303a.206.206 0 01.294.096c.016.032 1.362 2.538 4.644 2.841a.23.23 0 01.201.255c-.015.128-.123.224-.247.208a7.948 7.948 0 01-.96-.176zm-4.179-14.795a.305.305 0 01-.186-.128.448.448 0 01.031-.638c1.811-1.692 3.793-1.197 3.87-1.165a.461.461 0 01.309.559.443.443 0 01-.541.319c-.062-.016-1.61-.399-3.065.957a.407.407 0 01-.418.096zm15.015 3.049a.465.465 0 01-.294-.32c-.511-1.947-2.028-2.473-2.09-2.505a.455.455 0 01-.278-.575.436.436 0 01.557-.287c.077.032 2.028.686 2.663 3.128a.463.463 0 01-.31.559.342.342 0 01-.248 0z" fill="#263238"/><path d="M459.178 568.541c-.774.415-1.672.686-2.322.846a.25.25 0 01-.232-.08c-.047-.08-.062-.175-.016-.255.201-.351 2.028-3.479 3.189-3.479.186 0 .433.063.619.399.248.43.294.877.124 1.292-.201.511-.728.942-1.362 1.277zm-1.904.256c1.548-.463 2.616-1.086 2.863-1.724.109-.272.078-.559-.108-.878-.093-.16-.17-.176-.248-.176-.588.016-1.733 1.565-2.507 2.778z" fill="#00A7C7"/><path d="M456.902 569.371a.283.283 0 01-.124.032.247.247 0 01-.185-.144c-.047-.111-1.084-2.681-.527-4.006.14-.351.387-.59.712-.702.496-.192.774.048.898.192.65.861-.062 3.622-.681 4.564-.031.016-.062.048-.093.064zm-.062-4.357a.786.786 0 00-.356.415c-.356.846.093 2.426.356 3.208.527-1.117.867-3.096.48-3.607-.031-.048-.124-.16-.387-.048-.031 0-.062.016-.093.032zm-44.102 9.927a.249.249 0 01-.155-.176.242.242 0 01.108-.239c.418-.239 4.149-2.25 5.295-1.628a.73.73 0 01.371.607c.046.446-.093.829-.402 1.117-1.007.957-3.7.622-5.202.335 0-.016 0-.016-.015-.016zm4.969-1.676c-.712-.239-2.725.591-4.195 1.341 2.074.319 3.607.207 4.164-.335.201-.192.279-.431.263-.735-.015-.111-.046-.191-.139-.239-.047-.016-.062-.016-.093-.032z" fill="#00A7C7"/><path d="M412.738 574.941a.113.113 0 01-.062-.032c-.062-.048-.108-.128-.093-.207.016-.112.217-2.713 1.393-3.735a1.602 1.602 0 011.223-.415c.604.048.79.367.836.623.186 1.085-2.012 3.207-3.127 3.75a.212.212 0 01-.17.016zm2.647-3.878a1.968 1.968 0 00-.232-.048 1.116 1.116 0 00-.898.303c-.774.671-1.084 2.235-1.192 2.985 1.145-.734 2.632-2.394 2.523-3.049.016-.032-.015-.127-.201-.191z" fill="#00A7C7"/><path d="M384.672 289.464c-3.08 5.666-6.192 11.715-8.978 17.668-2.817 5.969-5.372 12.034-7.214 18.019-.232.75-.402 1.468-.603 2.218-.093.336-.233.814-.279 1.038-.031.191-.108.351-.124.558-.124.798-.124 1.836.093 3.017.433 2.362 1.579 5.107 3.019 7.772 2.925 5.347 7.012 10.741 11.176 15.625l-4.489 5.57c-5.929-4.149-11.161-8.858-15.759-14.938-2.244-3.081-4.365-6.464-5.681-10.789-.65-2.155-1.099-4.581-.975-7.23.015-.655.124-1.341.201-1.995.093-.623.186-.99.263-1.5.186-.942.356-1.9.558-2.825 1.718-7.342 4.21-14.109 7.028-20.653a178.41 178.41 0 019.597-19.024l12.167 7.469z" fill="#FEAB6B"/><path d="M374.951 276.393c-8.622 2.426-17.075 27.403-17.075 27.403l20.744 5.938s4.566-5.969 8.638-17.11c4.411-12.129-1.874-19.167-12.307-16.231z" fill="#00A7C7"/><path opacity=".2" d="M374.951 276.393c-8.622 2.426-17.075 27.403-17.075 27.403l20.744 5.938s4.566-5.969 8.638-17.11c4.411-12.129-1.874-19.167-12.307-16.231z" fill="#000"/><path d="M377.784 353.719l9.474 2.57-3.762 9.177s-8.498-1.851-8.452-6.639l2.74-5.108z" fill="#FEAB6B"/><path d="M390.896 362.513l-2.802 7.262-4.598-4.309 3.762-9.177 3.638 6.224z" fill="#FEAB6B"/></svg>