<svg width="208" height="67" fill="none" xmlns="http://www.w3.org/2000/svg"><rect width="135" height="61.012" rx="30.506" transform="matrix(1 0 -.01985 .9998 71.786 3.328)" fill="#00A7C7"/><path d="M5.646 47.208V21.102H.896v-4.674h15.732v4.674h-4.674v26.106H5.646zm20.348.38c-1.621 0-2.977-.291-4.066-.874a5.893 5.893 0 01-2.47-2.622c-.557-1.166-.836-2.559-.836-4.18V32.54c0-1.672.279-3.066.836-4.18a5.633 5.633 0 012.508-2.584c1.115-.608 2.457-.912 4.028-.912 1.672 0 3.027.304 4.066.912 1.039.608 1.799 1.494 2.28 2.66.507 1.165.76 2.584.76 4.256v3.838h-8.816v4.256c0 .633.063 1.152.19 1.558.152.405.355.697.608.874.253.152.57.228.95.228.355 0 .659-.076.912-.228.279-.178.481-.444.608-.798.127-.355.19-.824.19-1.406v-2.09h5.32v1.824c0 2.23-.608 3.927-1.824 5.092-1.216 1.165-2.964 1.748-5.244 1.748zm-1.71-13.794h3.458v-2.166c0-.634-.063-1.14-.19-1.52-.127-.405-.33-.684-.608-.836-.253-.177-.583-.266-.988-.266-.38 0-.697.088-.95.266-.228.177-.405.494-.532.95-.127.43-.19 1.051-.19 1.862v1.71zm19.227 13.794c-1.875-.05-3.344-.406-4.408-1.064-1.04-.659-1.761-1.621-2.166-2.888-.406-1.267-.608-2.8-.608-4.598V26.65c0-2.027.19-3.648.57-4.864.405-1.216.962-2.154 1.672-2.812.734-.659 1.608-1.178 2.622-1.558a16.42 16.42 0 012.926-.836c.988-.203 1.938-.43 2.85-.684a9.152 9.152 0 002.584-1.178l.342 4.636c-.811.43-1.672.747-2.584.95-.912.203-1.8.38-2.66.532a9.03 9.03 0 00-2.394.684c-.684.279-1.178.773-1.482 1.482-.304.684-.456 1.634-.456 2.85v2.09a4 4 0 011.254-.95 7.846 7.846 0 011.748-.608 9.45 9.45 0 012.128-.228c1.24 0 2.267.253 3.078.76.836.506 1.456 1.343 1.862 2.508.405 1.165.608 2.748.608 4.75v5.092c0 2.255-.317 3.99-.95 5.206-.634 1.19-1.52 2.014-2.66 2.47-1.115.43-2.407.646-3.876.646zm.266-3.8c.506 0 .874-.127 1.102-.38.253-.254.43-.722.532-1.406.1-.684.152-1.672.152-2.964v-6.004c0-.861-.051-1.546-.152-2.052-.076-.507-.241-.861-.494-1.064-.228-.228-.57-.342-1.026-.342-.254 0-.52.076-.798.228-.254.152-.482.393-.684.722-.178.304-.342.747-.494 1.33v7.106c0 1.266.038 2.255.114 2.964.1.684.29 1.165.57 1.444.278.279.67.418 1.178.418zm17.657 3.8c-1.622 0-2.977-.291-4.066-.874a5.892 5.892 0 01-2.47-2.622c-.558-1.166-.837-2.559-.837-4.18V32.54c0-1.672.28-3.066.837-4.18a5.632 5.632 0 012.508-2.584c1.114-.608 2.457-.912 4.028-.912 1.672 0 3.027.304 4.066.912 1.038.608 1.798 1.494 2.28 2.66.506 1.165.76 2.584.76 4.256v3.838h-8.817v4.256c0 .633.064 1.152.19 1.558.153.405.355.697.609.874.253.152.57.228.95.228.354 0 .658-.076.911-.228.28-.178.482-.444.608-.798.127-.355.19-.824.19-1.406v-2.09h5.32v1.824c0 2.23-.608 3.927-1.824 5.092-1.216 1.165-2.964 1.748-5.244 1.748zm-1.71-13.794h3.458v-2.166c0-.634-.064-1.14-.19-1.52-.127-.405-.33-.684-.608-.836-.254-.177-.583-.266-.989-.266-.38 0-.696.088-.95.266-.227.177-.405.494-.532.95-.126.43-.19 1.051-.19 1.862v1.71z" fill="#FEAB6B"/><path d="M81.838 47.208v-30.78h7.79c1.343 0 2.584.114 3.724.342 1.14.228 2.14.633 3.002 1.216.887.582 1.558 1.393 2.014 2.432.481 1.013.722 2.343.722 3.99 0 1.241-.177 2.305-.532 3.192-.355.861-.861 1.545-1.52 2.052-.659.506-1.47.848-2.432 1.026 1.19.177 2.191.582 3.002 1.216.81.633 1.419 1.47 1.824 2.508s.608 2.292.608 3.762c0 1.545-.203 2.888-.608 4.028-.38 1.14-.95 2.077-1.71 2.812-.76.735-1.697 1.292-2.812 1.672-1.115.355-2.407.532-3.876.532h-9.196zm6.27-4.408h1.748c1.57 0 2.647-.393 3.23-1.178.608-.785.912-1.964.912-3.534 0-1.216-.14-2.179-.418-2.888-.279-.735-.735-1.267-1.368-1.596-.608-.355-1.431-.532-2.47-.532h-1.634V42.8zm0-13.946h1.558c1.09 0 1.913-.152 2.47-.456.557-.33.937-.81 1.14-1.444.228-.659.342-1.457.342-2.394 0-.938-.165-1.685-.494-2.242-.304-.583-.785-1-1.444-1.254-.633-.253-1.444-.38-2.432-.38h-1.14v8.17zm22.162 18.734c-1.57 0-2.913-.279-4.028-.836a5.941 5.941 0 01-2.546-2.508c-.557-1.09-.836-2.445-.836-4.066v-7.904c0-1.622.279-2.977.836-4.066a5.721 5.721 0 012.546-2.47c1.115-.583 2.458-.874 4.028-.874 1.571 0 2.914.291 4.028.874a5.711 5.711 0 012.546 2.47c.583 1.09.874 2.445.874 4.066v7.904c0 1.621-.291 2.977-.874 4.066a5.93 5.93 0 01-2.546 2.508c-1.114.557-2.457.836-4.028.836zm.038-3.876c.482 0 .849-.127 1.102-.38.254-.279.418-.646.494-1.102.076-.481.114-1.026.114-1.634v-8.702c0-.633-.038-1.178-.114-1.634-.076-.456-.24-.824-.494-1.102-.253-.279-.62-.418-1.102-.418-.481 0-.848.14-1.102.418-.253.278-.43.646-.532 1.102-.076.456-.114 1-.114 1.634v8.702c0 .608.038 1.153.114 1.634.102.456.279.823.532 1.102.254.253.621.38 1.102.38zm9.425 9.386v-9.424c.81-.43 1.52-.975 2.128-1.634.608-.659 1.127-1.47 1.558-2.432.456-.988.81-2.14 1.064-3.458.278-1.343.456-2.9.532-4.674l.532-6.232h11.628v18.354h3.078v9.5h-4.142l-.418-5.89h-11.438l-.342 5.89h-4.18zm6.08-9.5h6.08v-14.82h-2.052l-.38 4.066c-.076 1.646-.216 3.065-.418 4.256-.203 1.19-.469 2.204-.798 3.04-.304.836-.672 1.532-1.102 2.09a7.623 7.623 0 01-1.33 1.368zm17.062 3.61V25.244h4.56v12.388l5.928-12.388h4.484v21.964h-4.674V34.896l-5.776 12.312h-4.522zm21.511 0V29.196h-4.028v-3.952h13.756v3.952h-4.028v18.012h-5.7zm12.258 0V25.244h5.738v8.854h.266c1.52.025 2.85.14 3.99.342 1.14.177 2.078.52 2.812 1.026a4.48 4.48 0 011.71 1.976c.406.81.608 1.85.608 3.116 0 1.19-.177 2.217-.532 3.078a4.537 4.537 0 01-1.596 2.052c-.734.506-1.684.886-2.85 1.14-1.165.253-2.558.38-4.18.38h-5.966zm5.738-3.306h.114c1.014 0 1.812-.089 2.394-.266.608-.203 1.039-.545 1.292-1.026.254-.481.38-1.127.38-1.938 0-.81-.126-1.444-.38-1.9-.253-.456-.671-.785-1.254-.988-.557-.203-1.33-.304-2.318-.304h-.228v6.422z" fill="#fff"/></svg>