<svg width="130" height="130" fill="none" xmlns="http://www.w3.org/2000/svg"><circle cx="65" cy="65" r="65" fill="#00A7C7"/><path d="M92.8 25H43.534c-1.769 0-3.2 1.473-3.2 3.291v68.772c0 1.818 1.431 3.291 3.2 3.291H92.8c1.767 0 3.2-1.473 3.2-3.29V28.29c0-1.817-1.433-3.29-3.2-3.29zm0 72.063H43.534V28.291H92.8v68.772z" fill="#F3E9E7"/><path d="M53.808 69.24c3.71 4.072 8.942 6.407 14.357 6.407h.035c5.401-.01 10.62-2.344 14.32-6.407 3.43-3.765 5.319-8.678 5.319-13.831 0-5.152-1.889-10.065-5.32-13.83-3.708-4.073-8.94-6.407-14.355-6.407-5.415 0-10.648 2.334-14.356 6.406v.001c-3.429 3.763-5.316 8.674-5.316 13.83 0 5.156 1.887 10.07 5.315 13.83zm10.588-23.63c.055-.215.111-.418.168-.621.028-.1.056-.205.084-.301.069-.238.14-.462.212-.683.018-.053.033-.109.05-.16.091-.27.183-.527.276-.77.019-.049.038-.092.057-.139.074-.189.148-.374.223-.547.033-.077.067-.147.1-.221.061-.135.123-.268.185-.393.038-.078.076-.149.115-.223.058-.11.113-.218.17-.32l.122-.207a8.229 8.229 0 01.288-.45 7.236 7.236 0 01.281-.381 5.595 5.595 0 01.273-.316c.052-.055.102-.103.152-.151.037-.035.075-.071.112-.102.05-.043.098-.08.147-.118.034-.025.07-.053.103-.076.05-.033.096-.059.145-.085.03-.017.06-.037.09-.051.052-.024.1-.04.149-.056.023-.008.047-.02.07-.024a.801.801 0 01.199-.027c.063 0 .129.01.198.027.023.006.05.018.073.025.048.015.095.03.146.055.03.015.062.034.094.052.046.025.093.051.142.083l.105.08a2.537 2.537 0 01.258.22 4.239 4.239 0 01.42.46 6.593 6.593 0 01.41.57c.053.083.105.17.158.259.042.07.085.14.127.216.055.097.108.2.163.304.041.079.083.156.125.24.057.116.114.242.171.367.038.082.075.16.113.247.067.156.134.324.202.492.025.066.053.127.078.195.092.24.182.493.272.76.023.07.046.146.068.217.066.203.131.408.194.625.031.106.062.222.093.333.054.193.108.387.16.592.032.127.062.26.094.39.035.147.07.295.103.447-.395.1-.792.184-1.192.254-.078.015-.156.025-.235.037-.348.056-.7.1-1.05.134-.075.007-.151.016-.227.02-.84.066-1.683.066-2.522 0-.074-.005-.148-.014-.222-.02a15.466 15.466 0 01-1.059-.134c-.075-.013-.15-.022-.226-.036-.4-.07-.8-.154-1.197-.255.036-.156.07-.309.107-.458a7.56 7.56 0 01.085-.376zm7.683 19.718c-.05.217-.104.425-.158.632-.027.109-.055.224-.084.33-.083.308-.17.605-.256.888l-.026.078c-.08.255-.161.503-.245.739-.032.088-.064.169-.096.255a20.21 20.21 0 01-.185.49c-.038.093-.075.177-.113.266a15.92 15.92 0 01-.176.406c-.04.087-.08.169-.12.253-.058.12-.116.237-.172.347-.042.08-.085.156-.127.232a7.944 7.944 0 01-.17.297c-.042.072-.085.14-.127.207a9.43 9.43 0 01-.294.432c-.056.075-.11.146-.166.215-.042.05-.083.102-.124.149a4.665 4.665 0 01-.162.174 3.161 3.161 0 01-.278.258c-.037.031-.075.064-.113.091-.053.04-.104.07-.156.101-.034.02-.068.044-.1.06a1.547 1.547 0 01-.165.067c-.026.01-.053.022-.079.03a.839.839 0 01-.224.032.845.845 0 01-.225-.033c-.025-.007-.053-.02-.078-.03a1.383 1.383 0 01-.165-.066c-.033-.017-.067-.04-.1-.06a1.873 1.873 0 01-.158-.1 2.123 2.123 0 01-.113-.093 2.755 2.755 0 01-.157-.136c-.04-.037-.08-.08-.122-.121a4.176 4.176 0 01-.286-.326 5.66 5.66 0 01-.293-.392c-.054-.079-.107-.162-.162-.247-.044-.07-.089-.14-.134-.216a9.853 9.853 0 01-.163-.287c-.044-.08-.088-.158-.131-.242a8.146 8.146 0 01-.167-.337c-.042-.086-.085-.172-.127-.262-.057-.125-.113-.258-.17-.391-.04-.094-.08-.184-.118-.281-.06-.15-.121-.313-.18-.472-.033-.092-.067-.177-.1-.27a22.981 22.981 0 01-.248-.744l-.023-.07a25.63 25.63 0 01-.257-.893c-.024-.091-.047-.188-.07-.281-.058-.224-.117-.45-.172-.686-.028-.122-.056-.252-.083-.376-.037-.175-.076-.35-.112-.53.417-.111.84-.2 1.264-.277.088-.017.177-.029.266-.044.347-.056.697-.1 1.047-.135.084-.009.167-.018.25-.024a16.068 16.068 0 012.569 0l.247.024c.35.032.699.078 1.046.135.092.015.181.027.272.044.424.076.845.167 1.263.277a27.61 27.61 0 01-.102.481c-.029.142-.059.29-.092.432zm-6.885-15.333c.364.058.73.104 1.096.14a19.76 19.76 0 001.718.095c.053 0 .104.006.157.006.052 0 .102-.006.154-.007a18.42 18.42 0 001.725-.095 19.04 19.04 0 001.08-.138c.117-.019.233-.032.348-.053.413-.07.824-.155 1.232-.254.03.227.052.462.078.694.04.344.083.686.115 1.038.023.256.038.519.057.777.026.352.055.702.073 1.06l.003.09h-9.727l.004-.098c.018-.337.045-.667.069-1 .019-.276.035-.556.06-.83.03-.337.071-.667.109-.999.028-.244.052-.492.083-.733.409.1.821.183 1.236.255.11.022.22.035.33.052zm6.195 10.867a19.43 19.43 0 00-1.495-.193l-.152-.014a19.14 19.14 0 00-1.578-.073c-.528 0-1.054.03-1.579.073l-.153.014a19.25 19.25 0 00-1.569.205c-.443.078-.886.167-1.324.276-.011-.1-.019-.207-.029-.309a44.609 44.609 0 01-.15-1.677c-.017-.23-.027-.466-.04-.699a48.822 48.822 0 01-.066-1.824h9.82a48.936 48.936 0 01-.065 1.826c-.012.23-.022.46-.038.687a45.28 45.28 0 01-.156 1.726c-.01.09-.015.18-.025.269a19.478 19.478 0 00-1.328-.277.67.67 0 01-.073-.01zM60.047 56.64c.001.126.013.247.016.372.016.72.046 1.43.092 2.133.01.143.015.29.025.432.06.822.143 1.628.244 2.424.008.067.012.139.02.208-.065.029-.127.065-.192.095a18.84 18.84 0 00-1.06.52c-.127.066-.253.137-.38.207-.329.184-.653.378-.971.58-.095.06-.19.116-.284.177-.401.265-.793.544-1.174.838-.083.063-.161.132-.243.196-.301.24-.597.489-.885.747-.055.048-.114.092-.169.14a17.135 17.135 0 01-3.352-9.068h8.313v-.001zm-2.771 11.48l.136-.124c.168-.149.34-.294.514-.435.107-.087.212-.177.321-.26.189-.146.383-.286.577-.424.099-.07.196-.143.296-.212.265-.179.534-.349.808-.513.034-.02.065-.042.1-.062.308-.18.623-.35.942-.51.015-.008.032-.014.048-.022.018.08.038.149.055.227.095.426.196.84.302 1.242.027.104.054.214.082.318.133.488.276.955.426 1.403.036.106.074.205.11.308.12.344.246.676.374.996.052.124.102.248.154.369.144.334.293.653.447.959.023.047.045.1.068.146a16.13 16.13 0 01-5.76-3.405zm16.089 3.25c.151-.3.299-.616.441-.947.053-.123.103-.248.156-.373.127-.317.25-.645.37-.985.038-.107.077-.21.115-.32.149-.446.29-.91.423-1.392.032-.116.061-.24.093-.359.1-.385.199-.78.29-1.187.018-.086.041-.163.06-.25l.048.022c.318.159.632.329.94.509.04.022.076.049.115.072.268.16.533.327.792.502.102.07.202.145.303.216.191.137.382.273.568.418.111.087.22.177.33.267.17.138.338.28.502.425.048.042.095.087.141.13a16.153 16.153 0 01-5.762 3.405c.028-.045.05-.104.075-.153zm7.879-5.661c-.056-.051-.117-.095-.172-.144a20.029 20.029 0 00-.878-.74c-.084-.066-.165-.137-.248-.201a19.92 19.92 0 00-1.172-.837c-.094-.062-.192-.119-.287-.18a18.716 18.716 0 00-1.352-.786 19.262 19.262 0 00-1.044-.513c-.07-.03-.134-.07-.204-.1.009-.068.012-.14.02-.211.1-.795.183-1.601.244-2.421.01-.147.016-.297.025-.445.045-.698.075-1.404.093-2.117.002-.126.013-.247.016-.373h8.313a17.151 17.151 0 01-3.355 9.068zm-5.01-12.36c-.003-.08-.012-.155-.015-.233a48.386 48.386 0 00-.14-2.003c-.006-.058-.009-.118-.014-.176a44.187 44.187 0 00-.251-2.102c-.009-.06-.013-.124-.021-.184.07-.03.136-.07.207-.101a19.695 19.695 0 001.453-.725c.336-.186.666-.382.991-.588.095-.06.19-.114.284-.176a20.5 20.5 0 001.19-.845c.09-.069.176-.143.266-.215.3-.238.593-.486.88-.74.058-.053.123-.1.18-.153a17.127 17.127 0 013.277 8.24h-8.286zm2.82-10.653l-.15.137c-.173.153-.35.3-.528.447-.109.089-.216.178-.327.264-.204.157-.414.307-.626.456-.091.063-.179.13-.271.191a15.66 15.66 0 01-.934.585c-.045.027-.093.05-.137.075-.274.155-.552.302-.834.442l-.08.037c-.017-.069-.036-.128-.053-.196a30.863 30.863 0 00-.426-1.604c-.01-.035-.023-.067-.034-.103-.145-.48-.3-.931-.461-1.368a18.6 18.6 0 00-.67-1.609c-.026-.056-.054-.105-.08-.16a13.902 13.902 0 00-.538-.992c-.029-.05-.055-.108-.084-.155a16.13 16.13 0 016.233 3.553zm-15.627-3.403c-.187.315-.368.648-.544 1.004-.024.051-.051.097-.075.148a19.414 19.414 0 00-.668 1.605 24.42 24.42 0 00-.473 1.398l-.024.075c-.154.514-.296 1.06-.432 1.62-.015.065-.034.121-.05.186l-.08-.037a16.545 16.545 0 01-.824-.438c-.049-.027-.099-.051-.148-.08a15.851 15.851 0 01-.933-.583c-.093-.062-.18-.13-.272-.193-.211-.148-.42-.298-.626-.456-.11-.085-.216-.174-.324-.262-.18-.146-.357-.294-.531-.448-.05-.045-.099-.092-.15-.137a16.126 16.126 0 016.234-3.554c-.026.048-.05.104-.08.152zm-8.34 5.816c.057.053.12.098.177.149.286.256.581.504.88.743.091.071.178.146.27.216.385.295.78.576 1.186.842.096.063.197.12.294.182a18.973 18.973 0 002.428 1.304c.072.033.14.073.213.104-.01.07-.016.144-.025.215a44.372 44.372 0 00-.224 1.878c-.008.084-.02.163-.028.247a51.532 51.532 0 00-.152 2.198c-.003.054-.01.106-.012.16h-8.283c.356-3 1.482-5.836 3.275-8.238zM84.012 81.09h-31.69c-.885 0-1.6.737-1.6 1.646 0 .909.715 1.645 1.6 1.645h31.69c.884 0 1.6-.736 1.6-1.645 0-.908-.716-1.646-1.6-1.646zm-7.202 8.089H59.522c-.883 0-1.6.737-1.6 1.646 0 .909.717 1.645 1.6 1.645H76.81c.884 0 1.6-.736 1.6-1.645s-.716-1.646-1.6-1.646zM34.6 25.26c-.884 0-1.6.737-1.6 1.646v71.54c0 .908.716 1.645 1.6 1.645.883 0 1.6-.737 1.6-1.645v-71.54c0-.908-.717-1.646-1.6-1.646z" fill="#F3E9E7"/></svg>