<svg width="130" height="130" fill="none" xmlns="http://www.w3.org/2000/svg"><circle cx="65" cy="65" r="65" fill="#00A7C7"/><path d="M101.333 48.43a1.681 1.681 0 00-.161-.72 1.883 1.883 0 00-.462-.611 2.149 2.149 0 00-.691-.408 2.372 2.372 0 00-.816-.142h-9.236v3.764h9.236c.28 0 .557-.049.815-.143.259-.095.494-.233.692-.408.197-.175.354-.382.461-.61.107-.23.162-.474.162-.721zM38.322 59.849c-1.25-.002-2.462-.386-3.427-1.089-.965-.702-1.625-1.68-1.866-2.764a3.978 3.978 0 01-.101-.93c.035-1.27.631-2.479 1.66-3.367 1.03-.888 2.412-1.386 3.85-1.386h1.597v-3.764H38.48c-2.591-.003-5.078.9-6.917 2.513-1.839 1.613-2.88 3.803-2.897 6.093.012 1.059 0 4.38 0 5.164v37.19c.004 1.153.524 2.258 1.446 3.073.923.816 2.173 1.275 3.478 1.279h62.82c1.304-.004 2.554-.463 3.476-1.279.923-.815 1.443-1.92 1.446-3.073v-9.445H80.326a11.53 11.53 0 01-3.998-.711 10.52 10.52 0 01-3.379-2.02 9.138 9.138 0 01-2.233-3.016 8.224 8.224 0 01-.743-3.545c.069-2.418 1.208-4.716 3.173-6.4 1.965-1.685 4.598-2.62 7.336-2.608h20.851v-9.445c0-.157-.009-.314-.027-.47H38.322z" fill="#F3E9E7"/><path d="M72.634 78.913c.002 1.803.813 3.53 2.255 4.805 1.443 1.275 3.398 1.992 5.438 1.994h21.006V72.117H80.327c-2.04.002-3.995.718-5.437 1.992-1.442 1.275-2.254 3.002-2.256 4.804zm12.683-1.755c.274 0 .544.047.797.14.252.092.482.228.675.398.193.171.347.374.451.597a1.656 1.656 0 010 1.408 1.845 1.845 0 01-.45.597c-.194.17-.424.306-.676.399-.253.092-.523.14-.797.14h-4.624a2.228 2.228 0 01-1.472-.54 1.738 1.738 0 01-.61-1.3c0-.488.22-.956.61-1.3.39-.346.92-.54 1.472-.54h4.624zM52.337 28.14h-3.741c-.689 0-1.371.12-2.007.352a5.337 5.337 0 00-1.702 1.005c-.487.43-.874.941-1.137 1.504a4.172 4.172 0 00-.4 1.774v23.793h8.987V28.139zm34.313 4.635c0-1.23-.553-2.408-1.536-3.278-.983-.869-2.317-1.357-3.708-1.358H59.284v28.429H86.65V32.775zm-4.947 13.98c0 .207-.046.412-.136.604-.09.191-.22.365-.387.511a1.814 1.814 0 01-.579.342 1.99 1.99 0 01-.683.12h-4.185c-.474 0-.928-.166-1.263-.462a1.492 1.492 0 01-.523-1.115V34.1c0-.419.188-.82.523-1.116.335-.295.79-.462 1.263-.461h4.185c.235 0 .467.04.683.12.217.079.414.195.58.341.165.147.297.32.386.512.09.191.136.397.136.604v12.656z" fill="#F3E9E7"/></svg>