<svg width="39" height="39" fill="none" xmlns="http://www.w3.org/2000/svg"><path fill-rule="evenodd" clip-rule="evenodd" d="M19.5 0C8.73 0 0 8.73 0 19.5S8.73 39 19.5 39 39 30.27 39 19.5 30.27 0 19.5 0zm1.588 25.656c-.193.202-.568.243-.568.243h-1.243s-2.743.162-5.159-2.306c-2.635-2.694-4.962-8.037-4.962-8.037s-.134-.35.012-.52c.163-.19.61-.202.61-.202l2.972-.02s.28.046.48.19c.166.12.258.343.258.343s.48 1.192 1.116 2.27c1.242 2.107 1.82 2.567 2.242 2.342.614-.329.43-2.977.43-2.977s.011-.96-.31-1.39c-.248-.33-.716-.428-.922-.455-.168-.022.107-.403.463-.574.535-.257 1.479-.272 2.595-.26.87.008 1.12.061 1.46.142.788.187.764.786.71 2.078-.015.386-.034.835-.034 1.352 0 .117-.003.241-.007.369-.018.662-.04 1.42.405 1.702.228.143.785.02 2.177-2.3.66-1.1 1.155-2.394 1.155-2.394s.109-.23.276-.33c.172-.1.404-.07.404-.07l3.128-.018s.94-.111 1.091.306c.16.437-.35 1.457-1.629 3.129-1.212 1.586-1.801 2.17-1.747 2.687.04.377.423.718 1.159 1.388 1.535 1.4 1.947 2.136 2.046 2.313l.019.033c.688 1.121-.764 1.21-.764 1.21l-2.779.037s-.596.116-1.381-.413c-.412-.277-.814-.73-1.197-1.16-.584-.659-1.125-1.267-1.586-1.123-.774.242-.75 1.878-.75 1.878s.006.35-.17.537z" fill="#F3E9E7"/></svg>