<svg width="130" height="130" viewBox="0 0 130 130" fill="none" xmlns="http://www.w3.org/2000/svg">
<circle cx="65" cy="65" r="65" fill="#00A7C7"/>
<path d="M98.7031 39.6094H32.2969C28.6352 39.6094 25.6562 42.5884 25.6562 46.25V88.75C25.6562 92.4116 28.6352 95.3906 32.2969 95.3906H98.7031C102.365 95.3906 105.344 92.4116 105.344 88.75V46.25C105.344 42.5884 102.365 39.6094 98.7031 39.6094ZM32.2969 42.2656H98.7031C100.9 42.2656 102.688 44.0533 102.688 46.25V50.2344H28.3125V46.25C28.3125 44.0533 30.1002 42.2656 32.2969 42.2656ZM98.7031 92.7344H32.2969C30.1002 92.7344 28.3125 90.9467 28.3125 88.75V52.8906H102.688V88.75C102.688 90.9467 100.9 92.7344 98.7031 92.7344Z" fill="#F3E9E7"/>
<path d="M58.6537 28.2433C57.7505 28.4 56.8461 28.5899 55.9629 28.8077L56.6004 31.3856C57.4212 31.1838 58.2645 31.0058 59.1079 30.8597L58.6537 28.2433Z" fill="#F3E9E7"/>
<path d="M48.2146 31.5981C47.3952 31.9953 46.5784 32.4256 45.7842 32.8771L47.099 35.1854C47.8414 34.7631 48.6064 34.3593 49.3714 33.9901L48.2146 31.5981Z" fill="#F3E9E7"/>
<path d="M53.3171 29.5581C52.4512 29.837 51.5812 30.1504 50.7339 30.4891L51.7194 32.9554C52.5122 32.6394 53.3237 32.3458 54.1312 32.0869L53.3171 29.5581Z" fill="#F3E9E7"/>
<path d="M64.116 27.6815C63.2036 27.7121 62.2832 27.7758 61.3774 27.8688L61.6471 30.5118C62.4944 30.4254 63.355 30.3657 64.209 30.3351L64.116 27.6815Z" fill="#F3E9E7"/>
<path d="M82.7562 31.5835L81.6021 33.9754C82.3604 34.3407 83.1241 34.7431 83.8718 35.1681L85.1867 32.8598C84.3871 32.4043 83.5677 31.9753 82.7562 31.5835Z" fill="#F3E9E7"/>
<path d="M87.5256 34.3022L86.0527 36.5122C86.7673 36.9877 87.4685 37.4897 88.1392 38.0064L89.7582 35.9C89.041 35.3488 88.288 34.8109 87.5256 34.3022Z" fill="#F3E9E7"/>
<path d="M72.3215 28.2393L71.8726 30.857C72.704 30.9991 73.5473 31.1757 74.3787 31.3803L75.0122 28.8024C74.1197 28.5819 73.2153 28.3933 72.3215 28.2393Z" fill="#F3E9E7"/>
<path d="M77.6552 29.5502L76.8438 32.0789C77.6513 32.3379 78.4627 32.6288 79.2556 32.9449L80.2384 30.4785C79.3898 30.1399 78.5212 29.8277 77.6552 29.5502Z" fill="#F3E9E7"/>
<path d="M66.8628 27.6815L66.7778 30.3351C67.6159 30.363 68.4752 30.4201 69.3331 30.5091L69.6027 27.8661C68.6837 27.7718 67.762 27.7094 66.8628 27.6815Z" fill="#F3E9E7"/>
<path d="M43.4476 34.3208C42.7012 34.8175 41.9588 35.3488 41.2402 35.9013L42.8619 38.005C43.5312 37.4897 44.2232 36.9943 44.9191 36.5308L43.4476 34.3208Z" fill="#F3E9E7"/>
<path d="M66.791 104.665L66.884 107.319C67.7964 107.288 68.7168 107.224 69.6226 107.131L69.353 104.488C68.5056 104.576 67.6437 104.636 66.791 104.665Z" fill="#F3E9E7"/>
<path d="M71.8921 104.139L72.3463 106.757C73.2494 106.6 74.1539 106.41 75.0371 106.192L74.3996 103.614C73.5788 103.816 72.7354 103.994 71.8921 104.139Z" fill="#F3E9E7"/>
<path d="M76.8687 102.913L77.6828 105.442C78.5487 105.163 79.4187 104.85 80.266 104.511L79.2805 102.045C78.4876 102.361 77.6762 102.654 76.8687 102.913Z" fill="#F3E9E7"/>
<path d="M86.0806 98.4692L87.5508 100.679C88.2972 100.182 89.0396 99.6512 89.7581 99.0987L88.1365 96.995C87.4685 97.5103 86.7765 98.0057 86.0806 98.4692Z" fill="#F3E9E7"/>
<path d="M81.6289 101.01L82.7857 103.402C83.6052 103.005 84.422 102.574 85.2162 102.123L83.9013 99.8146C83.1589 100.237 82.3939 100.641 81.6289 101.01Z" fill="#F3E9E7"/>
<path d="M50.7603 104.521C51.6103 104.86 52.4788 105.172 53.3435 105.45L54.1549 102.921C53.3474 102.662 52.536 102.371 51.7431 102.055L50.7603 104.521Z" fill="#F3E9E7"/>
<path d="M41.2417 99.1001C41.9589 99.6512 42.7106 100.189 43.4743 100.698L44.9472 98.4878C44.2326 98.0123 43.5314 97.5103 42.8607 96.9937L41.2417 99.1001Z" fill="#F3E9E7"/>
<path d="M45.813 102.14C46.6138 102.596 47.432 103.025 48.2435 103.417L49.3976 101.025C48.6392 100.659 47.8756 100.257 47.1278 99.8319L45.813 102.14Z" fill="#F3E9E7"/>
<path d="M61.3975 107.135C62.3152 107.228 63.2382 107.291 64.1361 107.32L64.2211 104.666C63.383 104.638 62.5237 104.581 61.6657 104.492L61.3975 107.135Z" fill="#F3E9E7"/>
<path d="M55.9893 106.199C56.8804 106.418 57.7862 106.608 58.6787 106.761L59.1276 104.143C58.2962 104.001 57.4529 103.824 56.6214 103.62L55.9893 106.199Z" fill="#F3E9E7"/>
<path d="M74.7969 58.2031H60.1875V60.8594H74.7969V58.2031Z" fill="#F3E9E7"/>
<path d="M93.3906 58.2031H78.7812V60.8594H93.3906V58.2031Z" fill="#F3E9E7"/>
<path d="M66.8281 64.8438H60.1875V67.5H66.8281V64.8438Z" fill="#F3E9E7"/>
<path d="M76.125 64.8438H70.8125V67.5H76.125V64.8438Z" fill="#F3E9E7"/>
<path d="M66.8281 71.4844H60.1875V74.1406H66.8281V71.4844Z" fill="#F3E9E7"/>
<path d="M62.8438 78.125H60.1875V80.7812H62.8438V78.125Z" fill="#F3E9E7"/>
<path d="M68.1562 78.125H65.5V80.7812H68.1562V78.125Z" fill="#F3E9E7"/>
<path d="M73.4688 78.125H70.8125V80.7812H73.4688V78.125Z" fill="#F3E9E7"/>
<path d="M88.0781 78.125H76.125V80.7812H88.0781V78.125Z" fill="#F3E9E7"/>
<path d="M100.031 78.125H90.7344V80.7812H100.031V78.125Z" fill="#F3E9E7"/>
<path d="M98.7031 64.8438H89.4062C88.6718 64.8438 88.0781 65.4374 88.0781 66.1719V72.8125C88.0781 73.547 88.6718 74.1406 89.4062 74.1406H98.7031C99.4376 74.1406 100.031 73.547 100.031 72.8125V66.1719C100.031 65.4374 99.4376 64.8438 98.7031 64.8438ZM97.375 71.4844H90.7344V67.5H97.375V71.4844Z" fill="#F3E9E7"/>
<path d="M56.2031 55.5469H32.2969C31.5624 55.5469 30.9688 56.1405 30.9688 56.875V83.4375C30.9688 84.172 31.5624 84.7656 32.2969 84.7656H56.2031C56.9376 84.7656 57.5312 84.172 57.5312 83.4375V56.875C57.5312 56.1405 56.9376 55.5469 56.2031 55.5469ZM49.5625 82.1094H38.9375V79.4531C38.9375 78.72 39.5325 78.125 40.2656 78.125H48.2344C48.9675 78.125 49.5625 78.72 49.5625 79.4531V82.1094ZM54.875 82.1094H52.2188V79.4531C52.2188 77.2564 50.4311 75.4688 48.2344 75.4688H40.2656C38.0689 75.4688 36.2812 77.2564 36.2812 79.4531V82.1094H33.625V58.2031H54.875V82.1094Z" fill="#F3E9E7"/>
<path d="M57.5312 87.4219H30.9688V90.0781H57.5312V87.4219Z" fill="#F3E9E7"/>
<path d="M44.25 72.8125C46.4467 72.8125 48.2344 71.0248 48.2344 68.8281V66.1719C48.2344 63.9752 46.4467 62.1875 44.25 62.1875C42.0533 62.1875 40.2656 63.9752 40.2656 66.1719V68.8281C40.2656 71.0248 42.0533 72.8125 44.25 72.8125ZM42.9219 66.1719C42.9219 65.4388 43.5169 64.8438 44.25 64.8438C44.9831 64.8438 45.5781 65.4388 45.5781 66.1719V68.8281C45.5781 69.5612 44.9831 70.1562 44.25 70.1562C43.5169 70.1562 42.9219 69.5612 42.9219 68.8281V66.1719Z" fill="#F3E9E7"/>
<path d="M78.7812 87.4219H66.8281V90.0781H78.7812V87.4219Z" fill="#F3E9E7"/>
<path d="M97.375 87.4219H85.4219V90.0781H97.375V87.4219Z" fill="#F3E9E7"/>
</svg>
