<svg width="130" height="130" viewBox="0 0 130 130" fill="none" xmlns="http://www.w3.org/2000/svg">
<circle cx="65" cy="65" r="65" fill="#00A7C7"/>
<g clip-path="url(#clip0_49_224)">
<path d="M51.8415 60.3725C51.9367 60.417 52.0256 60.4805 52.0891 60.5567L55.028 63.9739C56.2087 65.3459 57.4465 66.7433 58.9826 67.7659C60.4616 68.7567 62.258 69.4237 64.632 69.43C67.2028 69.4364 69.0881 68.7377 70.6115 67.696C72.1984 66.6099 73.4489 65.1236 74.6804 63.6436L76.2863 61.7064C76.4831 61.465 76.5529 61.3888 76.6228 61.3062C76.8195 61.0775 77.0417 60.8171 77.2639 60.544C77.321 60.4741 77.3908 60.417 77.4733 60.3725C77.7336 59.515 77.9367 58.6194 78.0764 57.673C78.5334 54.6115 78.5461 52.236 77.1687 49.4158C75.9816 46.9831 74.2995 45.7255 72.4777 44.8172C74.4519 47.0213 76.0769 49.1554 75.6516 50.9085C73.2458 48.2598 70.7575 45.9542 68.1867 44.0423C62.8103 41.2603 59.6491 37.5001 58.2399 32.9396C50.2673 40.9173 48.8835 50.2352 51.8415 60.3725ZM81.7834 83.5625L84.6652 80.5391L88.823 84.5407L95.2976 75.9087L98.5158 78.5066C96.9987 80.3867 91.5905 87.8118 90.4099 88.7773C89.4387 89.5712 88.0422 89.5712 87.1408 88.7011L81.7834 83.5625ZM54.4567 72.3963C58.4685 80.7678 70.6369 81.0663 74.4773 72.4471L71.8811 69.1188L71.5637 68.6551C69.7863 69.8365 67.5964 70.6114 64.632 70.6051C61.7883 70.5987 59.6491 69.8048 57.8908 68.6361C57.4338 68.3312 57.0085 68.0072 56.6023 67.6579C56.323 68.4328 55.9738 69.3538 55.593 70.2113C55.2312 71.0433 54.8376 71.831 54.4567 72.3963ZM78.2351 61.6428C78.1525 61.7381 78.07 61.8334 77.9939 61.9223L77.6638 62.3098L76.0578 64.247C75.0358 65.4793 73.9948 66.7115 72.738 67.7659L73.0935 68.2867C73.8298 69.3665 74.5725 70.4463 75.5246 71.4117C75.5564 71.4435 75.5817 71.4753 75.6071 71.5134C76.1721 71.9135 76.8513 72.2756 77.6066 72.6059C78.0383 72.0406 78.508 71.5007 79.0095 70.9989C81.8723 68.1343 85.8205 66.3685 90.1877 66.3685C94.5549 66.3685 98.5031 68.1406 101.366 70.9989C104.229 73.8635 106 77.8143 106 82.1842C106 86.5542 104.229 90.5049 101.366 93.3695C98.5031 96.2342 94.5549 97.9999 90.1877 97.9999C85.8205 97.9999 81.8723 96.2278 79.0095 93.3695C76.1467 90.5049 74.3757 86.5542 74.3757 82.1842C74.3757 79.0211 75.3024 76.0739 76.9021 73.6031C76.445 73.4062 75.9943 73.1775 75.5056 72.898C73.5632 81.9047 58.2209 84.077 53.4856 73.4125C50.1467 75.0957 46.7443 76.3724 42.8596 76.9758L45.113 93.2933H31.656C24.9782 92.7852 29.0979 83.1306 31.1101 80.4693C32.0749 79.1926 33.2746 78.2525 34.6013 77.5094C38.5876 75.2863 48.966 74.5495 53.2697 71.5451L54.2536 69.6269L55.4343 66.5591C54.8059 65.9239 54.2282 65.257 53.6633 64.6027L51.1496 61.681L49.2771 61.7318L45.716 61.827C42.6565 58.3082 42.8469 50.7433 43.1452 46.3797C44.5671 37.589 47.9567 31.2691 53.4792 27.6168C57.218 25.1397 59.4524 25.0063 63.8259 24.9999C67.6408 24.9999 69.9831 24.9174 73.2331 27.0579C83.84 34.0447 87.1218 50.5337 81.9421 61.6428H78.2351V61.6428ZM99.6394 72.7202C97.2209 70.3002 93.882 68.8012 90.1877 68.8012C86.4997 68.8012 83.1545 70.3002 80.736 72.7202C78.3176 75.1402 76.8195 78.4812 76.8195 82.1779C76.8195 85.8682 78.3176 89.2155 80.736 91.6355C83.1545 94.0555 86.4934 95.5545 90.1877 95.5545C93.8757 95.5545 97.2209 94.0555 99.6394 91.6355C102.058 89.2155 103.556 85.8745 103.556 82.1779C103.556 78.4875 102.058 75.1402 99.6394 72.7202Z" fill="#F3E9E7"/>
</g>
<defs>
<clipPath id="clip0_49_224">
<rect width="78" height="73" fill="white" transform="translate(28 25)"/>
</clipPath>
</defs>
</svg>
