<svg width="652" height="596" viewBox="0 0 652 596" fill="none" xmlns="http://www.w3.org/2000/svg">
<path d="M307.891 452.129H8.98801C4.1118 452.129 0.148926 448.043 0.148926 443.016V9.81335C0.148926 4.78595 4.1118 0.700195 8.98801 0.700195H307.907C312.783 0.700195 316.746 4.78595 316.746 9.81335V443.016C316.73 448.043 312.768 452.129 307.891 452.129ZM8.98801 1.0992C4.32852 1.0992 0.535926 5.00939 0.535926 9.81335V443.016C0.535926 447.82 4.32852 451.73 8.98801 451.73H307.907C312.566 451.73 316.359 447.82 316.359 443.016V9.81335C316.359 5.00939 312.566 1.0992 307.907 1.0992H8.98801V1.0992Z" fill="#C2C0C0"/>
<path d="M642.724 452.129H343.805C338.929 452.129 334.966 448.043 334.966 443.016V9.81335C334.966 4.78595 338.929 0.700195 343.805 0.700195H642.724C647.6 0.700195 651.563 4.78595 651.563 9.81335V443.016C651.563 448.043 647.6 452.129 642.724 452.129ZM343.805 1.0992C339.145 1.0992 335.353 5.00939 335.353 9.81335V443.016C335.353 447.82 339.145 451.73 343.805 451.73H642.724C647.383 451.73 651.176 447.82 651.176 443.016V9.81335C651.176 5.00939 647.383 1.0992 642.724 1.0992H343.805V1.0992Z" fill="#C2C0C0"/>
<path d="M637.445 548.99H597.197V549.389H637.445V548.99Z" fill="#EBEBEB"/>
<path d="M492.134 553.331H422.428V553.73H492.134V553.331Z" fill="#EBEBEB"/>
<path d="M595.649 534.179H501.546V534.578H595.649V534.179Z" fill="#EBEBEB"/>
<path d="M51.976 536.861H22.208V537.26H51.976V536.861Z" fill="#EBEBEB"/>
<path d="M151.357 536.861H65.7686V537.26H151.357V536.861Z" fill="#EBEBEB"/>
<path d="M318.928 543.596H203.649V543.995H318.928V543.596Z" fill="#EBEBEB"/>
<path d="M45.3972 406.196H12.5796V523.31H45.3972V406.196Z" fill="#FAFAFA"/>
<path d="M74.1282 431.892H41.3105V523.31H74.1282V431.892Z" fill="#FAFAFA"/>
<path d="M95.1189 356.56H62.3013V523.31H95.1189V356.56Z" fill="#FAFAFA"/>
<path d="M116.93 221.347H84.1128V523.31H116.93V221.347Z" fill="#FAFAFA"/>
<path d="M198.107 244.856H110.042V523.31H198.107V244.856Z" fill="#FAFAFA"/>
<path d="M540.509 523.306H578.002V443.155H540.509V523.306Z" fill="#FAFAFA"/>
<path d="M507.669 523.315H545.161V460.752H507.669V523.315Z" fill="#FAFAFA"/>
<path d="M483.691 523.304H521.184V409.174H483.691V523.304Z" fill="#FAFAFA"/>
<path d="M458.776 523.306H496.268V316.64H458.776V523.306Z" fill="#FAFAFA"/>
<path d="M478.93 270.839H363.867V523.31H478.93V270.839Z" fill="#F0F0F0"/>
<path d="M467.97 281.421H462.49V312.144H467.97V281.421Z" fill="#F5F5F5"/>
<path d="M467.97 329.476H462.49V360.199H467.97V329.476Z" fill="#F5F5F5"/>
<path d="M467.97 377.516H462.49V408.239H467.97V377.516Z" fill="#F5F5F5"/>
<path d="M467.97 425.555H462.49V456.278H467.97V425.555Z" fill="#F5F5F5"/>
<path d="M467.97 473.611H462.49V504.334H467.97V473.611Z" fill="#F5F5F5"/>
<path d="M448.558 281.421H443.078V312.144H448.558V281.421Z" fill="#F5F5F5"/>
<path d="M448.558 329.476H443.078V360.199H448.558V329.476Z" fill="#F5F5F5"/>
<path d="M448.558 377.516H443.078V408.239H448.558V377.516Z" fill="#F5F5F5"/>
<path d="M448.558 425.555H443.078V456.278H448.558V425.555Z" fill="#F5F5F5"/>
<path d="M448.558 473.611H443.078V504.334H448.558V473.611Z" fill="#F5F5F5"/>
<path d="M429.146 281.421H423.667V312.144H429.146V281.421Z" fill="#F5F5F5"/>
<path d="M429.146 329.476H423.667V360.199H429.146V329.476Z" fill="#F5F5F5"/>
<path d="M429.146 377.516H423.667V408.239H429.146V377.516Z" fill="#F5F5F5"/>
<path d="M429.146 425.555H423.667V456.278H429.146V425.555Z" fill="#F5F5F5"/>
<path d="M429.146 473.611H423.667V504.334H429.146V473.611Z" fill="#F5F5F5"/>
<path d="M409.734 281.421H404.254V312.144H409.734V281.421Z" fill="#F5F5F5"/>
<path d="M409.734 329.476H404.254V360.199H409.734V329.476Z" fill="#F5F5F5"/>
<path d="M409.734 377.516H404.254V408.239H409.734V377.516Z" fill="#F5F5F5"/>
<path d="M409.734 425.555H404.254V456.278H409.734V425.555Z" fill="#F5F5F5"/>
<path d="M409.734 473.611H404.254V504.334H409.734V473.611Z" fill="#F5F5F5"/>
<path d="M390.307 281.421H384.827V312.144H390.307V281.421Z" fill="#F5F5F5"/>
<path d="M390.307 329.476H384.827V360.199H390.307V329.476Z" fill="#F5F5F5"/>
<path d="M390.307 377.516H384.827V408.239H390.307V377.516Z" fill="#F5F5F5"/>
<path d="M390.307 425.555H384.827V456.278H390.307V425.555Z" fill="#F5F5F5"/>
<path d="M390.307 473.611H384.827V504.334H390.307V473.611Z" fill="#F5F5F5"/>
<path opacity="0.5" d="M363.867 270.839H387.567L397.877 523.31H363.867V270.839Z" fill="#E0E0E0"/>
<path d="M307.304 173.292L375.54 186.602V523.31H307.304V173.292Z" fill="#F0F0F0"/>
<path d="M307.303 173.292H252.706V523.31H307.303V173.292Z" fill="#E6E6E6"/>
<path d="M252.709 204.089L375.542 204.089V202.302L252.709 202.302V204.089Z" fill="#E0E0E0"/>
<path d="M252.709 223.149L375.542 223.149V221.362L252.709 221.362V223.149Z" fill="#E0E0E0"/>
<path d="M252.709 242.21L375.542 242.21V240.422L252.709 240.422V242.21Z" fill="#E0E0E0"/>
<path d="M252.709 261.254H375.542V259.466H252.709V261.254Z" fill="#E0E0E0"/>
<path d="M252.709 280.314H375.542V278.527H252.709V280.314Z" fill="#E0E0E0"/>
<path d="M252.709 299.374H375.542V297.587H252.709V299.374Z" fill="#E0E0E0"/>
<path d="M252.709 318.434H375.542V316.647H252.709V318.434Z" fill="#E0E0E0"/>
<path d="M252.709 337.495H375.542V335.707H252.709V337.495Z" fill="#E0E0E0"/>
<path d="M252.709 356.555H375.542V354.767H252.709V356.555Z" fill="#E0E0E0"/>
<path d="M252.709 375.615H375.542V373.828H252.709V375.615Z" fill="#E0E0E0"/>
<path d="M252.709 394.675H375.542V392.888H252.709V394.675Z" fill="#E0E0E0"/>
<path d="M252.709 413.719H375.542V411.932H252.709V413.719Z" fill="#E0E0E0"/>
<path d="M252.709 432.78H375.542V430.992H252.709V432.78Z" fill="#E0E0E0"/>
<path d="M252.709 451.84H375.542V450.052H252.709V451.84Z" fill="#E0E0E0"/>
<path d="M252.709 470.9H375.542V469.113H252.709V470.9Z" fill="#E0E0E0"/>
<path d="M252.709 489.96H375.542V488.173H252.709V489.96Z" fill="#E0E0E0"/>
<path d="M252.709 509.02H375.542V507.233H252.709V509.02Z" fill="#E0E0E0"/>
<path d="M222.845 98.9021H165.77V523.31H222.845V98.9021Z" fill="#F0F0F0"/>
<path d="M222.845 98.9021H165.77L186.776 61.428H268.511L222.845 98.9021Z" fill="#FAFAFA"/>
<path d="M222.845 98.9021L268.511 61.428V523.31H222.845V98.9021Z" fill="#EBEBEB"/>
<path d="M268.511 118.677H165.77V120.943H268.511V118.677Z" fill="#E0E0E0"/>
<path d="M268.511 142.696H165.77V144.963H268.511V142.696Z" fill="#E0E0E0"/>
<path d="M268.511 166.716H165.77V168.982H268.511V166.716Z" fill="#E0E0E0"/>
<path d="M268.511 190.752H165.77V193.018H268.511V190.752Z" fill="#E0E0E0"/>
<path d="M268.511 214.772H165.77V217.038H268.511V214.772Z" fill="#E0E0E0"/>
<path d="M268.511 238.792H165.77V241.058H268.511V238.792Z" fill="#E0E0E0"/>
<path d="M268.511 262.811H165.77V265.078H268.511V262.811Z" fill="#E0E0E0"/>
<path d="M268.511 286.831H165.77V289.097H268.511V286.831Z" fill="#E0E0E0"/>
<path d="M268.511 310.851H165.77V313.117H268.511V310.851Z" fill="#E0E0E0"/>
<path d="M268.511 334.886H165.77V337.153H268.511V334.886Z" fill="#E0E0E0"/>
<path d="M268.511 358.906H165.77V361.173H268.511V358.906Z" fill="#E0E0E0"/>
<path d="M268.511 382.926H165.77V385.193H268.511V382.926Z" fill="#E0E0E0"/>
<path d="M268.511 406.946H165.77V409.212H268.511V406.946Z" fill="#E0E0E0"/>
<path d="M268.511 430.966H165.77V433.232H268.511V430.966Z" fill="#E0E0E0"/>
<path d="M268.511 454.986H165.77V457.252H268.511V454.986Z" fill="#E0E0E0"/>
<path d="M268.511 479.021H165.77V481.288H268.511V479.021Z" fill="#E0E0E0"/>
<path d="M268.511 503.041H165.77V505.308H268.511V503.041Z" fill="#E0E0E0"/>
<path d="M155.863 304.275H93.5557V523.31H155.863V304.275Z" fill="#F0F0F0"/>
<path d="M115.816 315.591H105.816V350.751H115.816V315.591Z" fill="#E6E6E6"/>
<path d="M140.352 315.591H130.352V350.751H140.352V315.591Z" fill="#E6E6E6"/>
<path d="M115.816 361.125H105.816V396.285H115.816V361.125Z" fill="#E6E6E6"/>
<path d="M140.352 361.125H130.352V396.285H140.352V361.125Z" fill="#E6E6E6"/>
<path d="M115.816 406.643H105.816V441.803H115.816V406.643Z" fill="#E6E6E6"/>
<path d="M140.352 406.643H130.352V441.803H140.352V406.643Z" fill="#E6E6E6"/>
<path d="M115.816 452.177H105.816V487.337H115.816V452.177Z" fill="#E6E6E6"/>
<path d="M140.352 452.177H130.352V487.337H140.352V452.177Z" fill="#E6E6E6"/>
<path d="M155.847 304.275H93.5557L108.169 289.097H170.476L155.847 304.275Z" fill="white"/>
<path d="M155.847 304.275L170.476 289.097L185.089 304.275V523.31H155.847V304.275Z" fill="#E6E6E6"/>
<path d="M328 595.386C493.764 595.386 628.142 587.297 628.142 577.319C628.142 567.341 493.764 559.252 328 559.252C162.236 559.252 27.8584 567.341 27.8584 577.319C27.8584 587.297 162.236 595.386 328 595.386Z" fill="#F5F5F5"/>
<path d="M389.022 95.8698H586.439C594.38 95.8698 600.819 102.509 600.819 110.697V562.492C600.819 570.68 594.38 577.319 586.439 577.319H389.022C381.081 577.319 374.641 570.68 374.641 562.492V110.697C374.641 102.509 381.081 95.8698 389.022 95.8698Z" fill="#9BCFE0"/>
<path d="M380.075 95.8698H577.491C585.432 95.8698 591.872 102.509 591.872 110.697V562.492C591.872 570.68 585.432 577.319 577.491 577.319H380.075C372.134 577.319 365.694 570.68 365.694 562.492V110.697C365.694 102.509 372.134 95.8698 380.075 95.8698Z" fill="#9BCFE0"/>
<path opacity="0.7" d="M380.075 95.8698H577.491C585.432 95.8698 591.872 102.509 591.872 110.697V562.492C591.872 570.68 585.432 577.319 577.491 577.319H380.075C372.134 577.319 365.694 570.68 365.694 562.492V110.697C365.694 102.509 372.134 95.8698 380.075 95.8698Z" fill="white"/>
<g opacity="0.9">
<path opacity="0.9" d="M411.097 95.8698H398.852V577.303H411.097V95.8698Z" fill="white"/>
<path opacity="0.9" d="M540.649 95.8698H533.141V577.303H540.649V95.8698Z" fill="white"/>
<path opacity="0.9" d="M365.694 200.44V213.064L591.872 198.62V185.996L365.694 200.44Z" fill="white"/>
<path opacity="0.9" d="M365.702 498.687V511.312H591.88V498.687H365.702Z" fill="white"/>
<path opacity="0.9" d="M365.693 263.462V270.341H591.871V263.462H365.693Z" fill="white"/>
<path opacity="0.9" d="M365.694 426.21V440.67L591.872 361.763V347.304L365.694 426.21Z" fill="white"/>
<path opacity="0.9" d="M444.967 95.8698H432.722L465.633 577.319H477.877L444.967 95.8698Z" fill="white"/>
</g>
<path d="M552.444 527.923H283.185V441.388H520.54L542.692 459.949C548.868 465.12 552.444 472.893 552.444 481.096V527.923Z" fill="#00A7C7"/>
<path opacity="0.5" d="M552.444 527.923H283.185V441.388H520.54L542.692 459.949C548.868 465.12 552.444 472.893 552.444 481.096V527.923Z" fill="black"/>
<path d="M281.638 520.118C281.638 488.534 295.523 462.934 312.659 462.934H279.749C262.613 462.934 248.727 488.534 248.727 520.118C248.727 551.703 262.613 577.303 279.749 577.303H312.659C295.523 577.319 281.638 551.703 281.638 520.118Z" fill="#263238"/>
<path d="M312.66 577.303C329.793 577.303 343.682 551.701 343.682 520.118C343.682 488.536 329.793 462.934 312.66 462.934C295.527 462.934 281.638 488.536 281.638 520.118C281.638 551.701 295.527 577.303 312.66 577.303Z" fill="#263238"/>
<path d="M315.152 564.711C327.301 564.711 337.149 544.746 337.149 520.118C337.149 495.491 327.301 475.526 315.152 475.526C303.003 475.526 293.155 495.491 293.155 520.118C293.155 544.746 303.003 564.711 315.152 564.711Z" fill="white"/>
<path d="M102.828 520.118C102.828 488.534 116.714 462.934 133.85 462.934H100.939C83.803 462.934 69.9175 488.534 69.9175 520.118C69.9175 551.703 83.803 577.303 100.939 577.303H133.85C116.714 577.319 102.828 551.703 102.828 520.118Z" fill="#263238"/>
<path d="M133.85 577.303C150.983 577.303 164.872 551.701 164.872 520.118C164.872 488.536 150.983 462.934 133.85 462.934C116.717 462.934 102.828 488.536 102.828 520.118C102.828 551.701 116.717 577.303 133.85 577.303Z" fill="#263238"/>
<path d="M494.224 520.118C494.224 488.534 508.11 462.934 525.246 462.934H492.335C475.199 462.934 461.313 488.534 461.313 520.118C461.313 551.703 475.199 577.303 492.335 577.303H525.246C508.125 577.319 494.224 551.703 494.224 520.118Z" fill="#263238"/>
<path d="M525.246 577.303C542.379 577.303 556.268 551.701 556.268 520.118C556.268 488.536 542.379 462.934 525.246 462.934C508.113 462.934 494.224 488.536 494.224 520.118C494.224 551.701 508.113 577.303 525.246 577.303Z" fill="#263238"/>
<path d="M527.754 564.711C539.902 564.711 549.751 544.746 549.751 520.118C549.751 495.491 539.902 475.526 527.754 475.526C515.605 475.526 505.756 495.491 505.756 520.118C505.756 544.746 515.605 564.711 527.754 564.711Z" fill="white"/>
<path d="M244.981 536.078H205.182L202.953 533.78C200.662 531.418 197.55 530.093 194.299 530.093H94.8403C91.5895 530.093 88.478 531.418 86.187 533.78L84.8402 535.169H81.2179C69.4221 535.169 59.8555 525.305 59.8555 513.144V479.325H285.585L267.597 519.576C264.207 529.487 255.151 536.078 244.981 536.078Z" fill="#00A7C7"/>
<path opacity="0.2" d="M244.981 536.078H205.182L202.953 533.78C200.662 531.418 197.55 530.093 194.299 530.093H94.8403C91.5895 530.093 88.478 531.418 86.187 533.78L84.8402 535.169H81.2179C69.4221 535.169 59.8555 525.305 59.8555 513.144V479.325H285.585L267.597 519.576C264.207 529.487 255.151 536.078 244.981 536.078Z" fill="#00A7C7"/>
<path d="M479.951 335.429C479.812 335.429 479.688 335.397 479.564 335.318C479.193 335.094 479.069 334.599 479.286 334.232L490.122 315.08C490.339 314.697 490.818 314.57 491.174 314.793C491.546 315.016 491.67 315.511 491.453 315.878L480.617 335.03C480.478 335.286 480.215 335.429 479.951 335.429Z" fill="#263238"/>
<path d="M537.104 430.71V408.941C537.104 397.498 520.974 343.505 498.791 333.402C476.608 323.3 422.939 318.767 389.146 320.634C355.353 322.502 310.26 395.375 310.26 395.375L315.167 458.066C322.04 458.066 343.913 455.943 347.133 517.964C347.598 527.029 354.827 534.147 363.619 534.147H481.979C490.199 534.147 497.181 527.923 498.326 519.512C501.36 497.407 509.503 458.05 528.977 458.05C542.646 458.05 552.46 470.116 552.46 483.953C552.46 468.759 548.869 453.789 542.011 440.334L537.104 430.71Z" fill="#9BCFE0"/>
<path d="M265.29 320.618C203.711 320.618 133.974 395.359 133.974 395.359H310.244C310.244 395.359 355.338 322.47 389.13 320.618H265.29V320.618Z" fill="#9BCFE0"/>
<path opacity="0.4" d="M269.068 320.618C217.194 320.618 162.813 373.654 146.946 390.38C145.181 392.247 146.451 395.359 148.974 395.359H291.173C302.752 395.359 313.681 389.709 320.523 380.069C335.802 358.587 365.276 321.927 389.115 320.603H269.068V320.618Z" fill="white"/>
<path d="M310.244 395.375L245.12 448.346L69.9018 447.772C69.9018 447.772 59.8398 462.838 59.8398 479.341C70.7687 479.341 272.86 479.341 285.585 479.341C289.284 469.238 302.241 458.066 315.152 458.066C315.152 439.265 310.244 395.375 310.244 395.375Z" fill="#9BCFE0"/>
<path opacity="0.2" d="M267.628 432.737C267.257 432.737 266.916 432.45 266.87 432.067C266.808 431.636 267.102 431.221 267.52 431.157C286.715 428.157 301.096 418.485 309.78 410.888C314.703 406.595 315.663 399.221 312.025 393.747C311.777 393.38 311.87 392.885 312.226 392.646C312.582 392.391 313.062 392.486 313.294 392.853C317.381 398.998 316.297 407.281 310.771 412.117C301.932 419.842 287.303 429.689 267.752 432.737C267.705 432.737 267.675 432.737 267.628 432.737Z" fill="black"/>
<path d="M69.9175 447.772C69.9175 447.772 100.692 410.792 133.974 395.375H310.244L245.12 448.346L69.9175 447.772Z" fill="#9BCFE0"/>
<path d="M206.219 447.772H90.6294V451.235H206.219V447.772Z" fill="#263238"/>
<path d="M203.819 440.845L210.027 434.445C211.42 433.009 213.185 432.019 215.104 431.588L261.869 421.087C263.51 420.72 265.213 420.767 266.839 421.246L269.331 421.964C276.606 424.071 279.253 433.28 274.284 439.137L264.238 450.98C262.504 453.023 260.074 454.299 257.458 454.555L212.024 458.896C208.99 459.183 205.987 458.066 203.819 455.848C199.81 451.714 199.795 444.979 203.819 440.845Z" fill="white"/>
<path d="M93.8959 444.229L88.7566 434.349C88.029 432.961 86.9609 431.812 85.6606 430.998C83.1373 429.434 80.0104 429.338 77.3942 430.758L73.5088 432.865C71.5892 433.903 70.1341 435.658 69.4375 437.781L67.0536 445.011C65.3817 450.07 68.5087 455.48 73.6171 456.39L84.3138 458.289C87.8897 458.928 91.4656 457.14 93.1838 453.837L93.8959 452.48C95.2427 449.894 95.2427 446.798 93.8959 444.229Z" fill="white"/>
<path opacity="0.4" d="M346.251 397.498H509.224C515.168 397.498 519.41 391.609 517.707 385.735C514.007 372.951 506.855 353.001 496.174 342.819C494.982 341.686 493.527 340.936 491.948 340.584C472.738 336.387 441.855 333.594 418.945 331.966C397.923 330.482 377.35 338.541 362.582 354.039C354.811 362.21 346.421 372.201 339.068 383.613C335.244 389.566 339.347 397.498 346.251 397.498Z" fill="white"/>
<path d="M240.878 498.046C240.878 503.281 235.677 507.526 229.268 507.526C222.859 507.526 217.658 503.281 217.658 498.046C217.658 492.811 222.859 488.566 229.268 488.566C235.677 488.566 240.878 492.811 240.878 498.046Z" fill="#263238"/>
<path d="M147.333 440.526C151.141 440.526 152.998 444.548 151.481 449.495C149.964 454.459 145.645 458.465 141.837 458.465C138.029 458.465 136.172 454.443 137.689 449.495C139.206 444.548 143.525 440.526 147.333 440.526Z" fill="#263238"/>
<path d="M69.2205 498.046C69.2205 503.281 67.7499 507.526 65.9543 507.526C64.1431 507.526 62.688 503.281 62.688 498.046C62.688 492.811 64.1586 488.566 65.9543 488.566C67.7499 488.566 69.2205 492.811 69.2205 498.046Z" fill="#263238"/>
<path d="M341.235 395.982V390.603C341.235 384.012 347.102 379.096 353.372 380.437L373.217 384.698C377.892 385.703 381.236 389.949 381.236 394.864V395.982C381.236 401.711 376.731 406.372 371.158 406.372H351.313C345.74 406.372 341.235 401.711 341.235 395.982Z" fill="#263238"/>
<path d="M445.648 334.2C445.648 334.2 443.001 333.929 438.388 333.514C458.806 376.622 453.605 397.514 453.605 397.514H469.177C469.317 371.26 445.648 334.2 445.648 334.2Z" fill="#263238"/>
<path opacity="0.2" d="M273.572 378.202C272.907 385.225 267.195 390.571 260.352 390.571H180.135C174.284 390.571 172.163 383.852 176.389 378.825C184.531 369.169 193.293 360.71 201.25 353.799C216.358 340.68 235.12 333.865 252.659 335.126C254.795 335.286 257.009 335.445 259.3 335.621C265.167 336.084 270.043 340.489 271.266 346.426C274.161 360.343 274.269 370.908 273.572 378.202Z" fill="#9BCFE0"/>
<path opacity="0.2" d="M455.447 522.784C455.013 522.784 454.673 522.433 454.673 521.986C454.673 505.834 462.661 439.233 464.75 429.242C466.778 419.554 466.794 408.75 464.766 401.711C464.642 401.296 464.874 400.849 465.292 400.722C465.695 400.594 466.128 400.833 466.252 401.264C468.342 408.542 468.342 419.666 466.267 429.593C464.178 439.552 456.221 505.898 456.221 521.986C456.221 522.433 455.865 522.784 455.447 522.784Z" fill="black"/>
<path opacity="0.2" d="M453.388 430.04H434.518C432.939 430.04 431.886 428.716 432.165 427.088L432.552 424.821C432.83 423.193 434.347 421.869 435.911 421.869H454.781C456.36 421.869 457.413 423.193 457.134 424.821L456.747 427.088C456.468 428.716 454.967 430.04 453.388 430.04Z" fill="black"/>
<path d="M510.478 188.278H508.93C508.93 184.192 508.357 180.154 507.243 176.276L508.729 175.813C509.89 179.851 510.478 184.049 510.478 188.278ZM503.806 167.865C496.577 154.491 482.908 146.192 468.109 146.192V144.596C483.466 144.596 497.676 153.214 505.169 167.099L503.806 167.865Z" fill="#00A7C7"/>
<path d="M468.094 150.182C447.691 150.182 431.143 167.243 431.143 188.278C431.143 224.97 468.094 250.139 468.094 250.139C468.094 250.139 505.06 224.97 505.06 188.278C505.06 167.243 488.512 150.182 468.094 150.182ZM468.094 206.217C458.574 206.217 450.849 198.253 450.849 188.438C450.849 178.606 458.574 170.658 468.094 170.658C477.629 170.658 485.354 178.606 485.354 188.438C485.354 198.269 477.629 206.217 468.094 206.217Z" fill="#00A7C7"/>
<path d="M402.258 574.893L411.608 574.734L414.301 552.39L404.967 552.549L402.258 574.893Z" fill="#FEAB6B"/>
<path d="M446.887 574.175L455.958 571.318L450.323 550.139L441.252 553.012L446.887 574.175Z" fill="#FEAB6B"/>
<path d="M455.679 568.509L445.555 573.888C445.215 574.063 445.045 574.462 445.137 574.845L447.305 583.32C447.537 584.198 448.512 584.629 449.286 584.198C452.506 582.41 454.797 580.942 458.899 578.771C461.422 577.431 469.162 573.648 472.645 571.797C476.051 569.977 474.813 566.147 473.218 566.578C466.097 568.541 460.277 569.116 457.289 568.302C456.747 568.174 456.175 568.238 455.679 568.509Z" fill="#263238"/>
<path d="M411.793 573.616L401.592 573.776C401.205 573.776 400.88 574.063 400.803 574.446L399.084 583.033C398.914 583.927 399.58 584.756 400.462 584.725C404.146 584.597 409.456 584.294 414.084 584.214C419.487 584.134 421.066 584.357 427.397 584.246C431.236 584.182 432.242 580.176 430.633 579.841C423.295 578.309 420.431 578.229 414.053 574.319C413.372 573.92 412.598 573.616 411.793 573.616Z" fill="#263238"/>
<path d="M425.989 281.756C428.109 286.145 430.493 290.789 432.908 295.194C435.339 299.631 437.846 304.02 440.555 308.154C441.252 309.159 441.902 310.228 442.614 311.218L444.348 313.676C444.719 314.155 444.921 314.394 444.967 314.506C445.014 314.617 445.06 314.761 445.509 314.793C446.391 314.857 448.264 313.899 449.936 312.559C450.788 311.888 451.655 311.122 452.506 310.308C453.342 309.51 454.209 308.553 454.936 307.786L461.051 311.33C460.494 312.862 459.905 314.091 459.224 315.431C458.543 316.756 457.769 318.033 456.84 319.294C455.927 320.554 454.874 321.767 453.59 322.933C452.305 324.098 450.726 325.183 448.682 325.949C446.67 326.731 444.038 326.986 441.623 326.348C439.193 325.726 437.181 324.449 435.71 323.092C435.292 322.757 434.998 322.406 434.657 322.055L434.162 321.528L433.806 321.113L432.444 319.501C431.531 318.432 430.695 317.331 429.828 316.245C426.469 311.824 423.465 307.228 420.695 302.52C419.332 300.158 417.985 297.78 416.747 295.354C415.493 292.896 414.301 290.55 413.156 287.868L425.989 281.756Z" fill="#FEAB6B"/>
<path d="M409.239 281.82C406.716 290.661 424.456 314.745 424.456 314.745L442.336 302.887C442.336 302.887 437.088 290.598 429.952 281.229C422.614 271.589 411.995 272.132 409.239 281.82Z" fill="#00A7C7"/>
<g opacity="0.2">
<path opacity="0.2" d="M409.239 281.82C406.716 290.661 424.456 314.745 424.456 314.745L442.336 302.887C442.336 302.887 437.088 290.598 429.952 281.229C422.614 271.589 411.995 272.132 409.239 281.82Z" fill="black"/>
</g>
<path opacity="0.2" d="M420.137 292.194C423.821 293.822 429.224 302.951 432.041 309.718L424.456 314.745C424.456 314.745 417.629 305.472 413.047 296.311C415.447 293.598 418.187 291.348 420.137 292.194Z" fill="black"/>
<path d="M453.884 309.542L460.354 298.753L465.989 308.042C465.989 308.042 463.915 312.112 459.766 313.293L453.884 309.542Z" fill="#B55B52"/>
<path d="M469.379 298.865L469.364 302.2C469.364 303.238 469.007 304.243 468.373 305.057L466.004 308.058L460.37 298.769L466.206 296.567C467.738 295.976 469.379 297.173 469.379 298.865Z" fill="#FEAB6B"/>
<path d="M463.063 312.654L452.877 312.495L458.512 290.741L468.698 290.901L463.063 312.654Z" fill="#9BCFE0"/>
<path d="M464.1 312.654L453.915 312.495L459.549 290.741L469.735 290.901L464.1 312.654Z" fill="#263238"/>
<path opacity="0.2" d="M414.301 552.405L412.908 563.913L403.574 564.072L404.951 552.549L414.301 552.405Z" fill="black"/>
<path opacity="0.2" d="M441.252 553.012L450.339 550.139L453.233 561.056L444.147 563.929L441.252 553.012Z" fill="black"/>
<path d="M369.719 286.496C377.35 320.363 375.679 353.959 376.515 361.205C383.821 360.662 411.345 358.539 426.345 357.39C431.128 302.344 419.797 274.398 419.797 274.398C419.797 274.398 416.592 273.76 412.242 273.297C410.88 273.153 409.394 273.026 407.862 272.946C407.01 272.898 406.159 272.866 405.276 272.85C399.642 272.754 390.431 273.68 384.084 274.478C382.753 274.654 381.406 274.861 380.09 275.069C378.883 275.276 377.691 275.515 376.561 275.739C376.515 275.755 376.453 275.755 376.406 275.771C371.685 276.744 368.62 281.612 369.719 286.496Z" fill="#00A7C7"/>
<g opacity="0.2">
<path opacity="0.2" d="M369.719 286.496C377.35 320.363 375.679 353.959 376.515 361.205C383.821 360.662 411.345 358.539 426.345 357.39C431.128 302.344 419.797 274.398 419.797 274.398C419.797 274.398 416.592 273.76 412.242 273.297C410.88 273.153 409.394 273.026 407.862 272.946C407.01 272.898 406.159 272.866 405.276 272.85C399.642 272.754 390.431 273.68 384.084 274.478C382.753 274.654 381.406 274.861 380.09 275.069C378.883 275.276 377.691 275.515 376.561 275.739C376.515 275.755 376.453 275.755 376.406 275.771C371.685 276.744 368.62 281.612 369.719 286.496Z" fill="black"/>
</g>
<path opacity="0.2" d="M378.233 293.614L372.521 301.195C372.536 301.291 372.551 301.371 372.551 301.466C373.341 306.605 373.976 311.649 374.425 316.485C379.889 309.526 379.069 296.934 378.233 293.614Z" fill="black"/>
<path d="M386.592 259.428C387.784 264.599 387.707 270.344 384.115 274.462C388.094 277.973 393.248 281.995 401.375 281.66C409.487 281.325 407.66 275.707 405.307 272.834C398.372 271.685 398.357 267.041 398.31 261.933C398.295 260.864 397.629 259.938 396.654 259.603L389.038 257.082C387.598 256.619 386.251 257.928 386.592 259.428Z" fill="#FEAB6B"/>
<path d="M408.558 314.665C404.379 314.665 400.524 309.494 399.765 302.887C399.301 298.817 400.152 295.05 402.072 292.832C403.171 291.555 404.533 290.885 406.035 290.885C406.035 290.885 406.035 290.885 406.05 290.885C410.23 290.885 414.084 296.056 414.843 302.663C415.307 306.733 414.456 310.5 412.536 312.718C411.437 313.979 410.06 314.665 408.558 314.665ZM406.05 292.481C406.035 292.481 406.035 292.481 406.05 292.481C404.982 292.481 404.038 292.96 403.233 293.901C401.639 295.753 400.911 299.12 401.313 302.695C401.964 308.313 405.276 313.069 408.558 313.069C408.558 313.069 408.558 313.069 408.574 313.069C409.626 313.069 410.57 312.59 411.375 311.649C412.97 309.797 413.713 306.43 413.295 302.839C412.645 297.221 409.332 292.481 406.05 292.481Z" fill="#9BCFE0"/>
<path opacity="0.2" d="M398.311 262.221L390.648 263.242C390.818 263.593 391.035 263.928 391.236 264.264C392.691 266.658 395.911 268.238 399.193 268.812C398.372 266.961 398.342 264.647 398.311 262.221Z" fill="black"/>
<path d="M408.249 241.696C412.506 242.43 420.478 237.451 418.62 230.812C416.236 233.892 408.249 232.87 408.249 232.87V241.696Z" fill="#263238"/>
<path d="M391.623 248.798C392.087 253.235 386.778 261.119 380.462 258.821C383.589 256.539 383.063 248.272 383.063 248.272L391.623 248.798Z" fill="#263238"/>
<path d="M385.385 240.148C384.239 249.628 383.109 255.134 386.824 260.832C392.428 269.403 404.425 267.28 408.295 258.342C411.778 250.299 413.063 236.126 404.843 230.684C396.731 225.305 386.515 230.668 385.385 240.148Z" fill="#FEAB6B"/>
<path d="M384.115 249.692C386.36 252.134 392.536 242.175 391.406 238.616C393.728 239.653 398.186 237.658 397.908 233.684C404.858 237.515 414.92 240.547 415.091 233.62C415.261 226.678 408.899 221.587 402.676 221.028C403.419 223.087 401.453 223.965 397.412 223.087C393.372 222.193 377.784 214.835 379.518 229.583C373.728 229.982 372.97 237.578 384.115 249.692Z" fill="#263238"/>
<path d="M379.564 246.069C379.889 248.623 381.329 250.793 382.97 252.054C385.446 253.954 386.994 251.943 387.227 248.926C387.443 246.213 387.211 241.968 384.27 241.249C381.391 240.563 379.192 243.149 379.564 246.069Z" fill="#FEAB6B"/>
<path d="M393.604 359.896L426.36 357.39C426.36 357.39 430.586 426.704 430.277 456.103C429.952 486.666 416.391 561.646 416.391 561.646L400.57 561.902C400.57 561.902 401.824 489.188 401.824 459.167C401.824 418.724 393.604 359.896 393.604 359.896Z" fill="#263238"/>
<path opacity="0.2" d="M406.267 431.939C406.701 433.934 418.883 490.13 422.815 522.943C424.92 509.298 427.072 494.008 428.512 480.49L406.267 431.939Z" fill="black"/>
<path d="M408.682 358.747C408.682 358.747 433.604 421.725 439.239 449.352C445.4 479.596 455.246 556.092 455.246 556.092L438.341 558.821C438.341 558.821 425.524 501.637 418.372 472.414C410.214 439.137 377.938 386.405 376.53 361.205C408.682 358.747 408.682 358.747 408.682 358.747Z" fill="#263238"/>
<path d="M457.382 557.577L436.36 562.652L433.713 554.305L456.67 550.251L457.382 557.577Z" fill="#00A7C7"/>
<path d="M418.388 561.981L399.533 562.285L399.44 556.012L420.509 555.342L418.388 561.981Z" fill="#00A7C7"/>
<path d="M398.202 245.096C398.063 245.862 398.341 246.548 398.821 246.644C399.301 246.74 399.812 246.197 399.951 245.431C400.091 244.665 399.812 243.978 399.332 243.883C398.837 243.787 398.341 244.33 398.202 245.096Z" fill="#263238"/>
<path d="M407.366 247.107C407.227 247.873 407.505 248.559 407.985 248.655C408.465 248.75 408.976 248.208 409.115 247.442C409.255 246.676 408.976 245.989 408.496 245.894C408.016 245.798 407.505 246.34 407.366 247.107Z" fill="#263238"/>
<path d="M404.348 246.915C404.348 246.915 405.23 251.639 406.701 254.129C405.168 255.135 403.032 254.129 403.032 254.129L404.348 246.915Z" fill="#E76F3D"/>
<path d="M401.468 256.475C398.651 255.821 397.505 253.65 397.443 253.554C397.381 253.443 397.428 253.299 397.536 253.251C397.645 253.187 397.784 253.235 397.83 253.347C397.846 253.379 399.192 255.885 402.474 256.188C402.598 256.204 402.691 256.316 402.675 256.443C402.66 256.571 402.552 256.667 402.428 256.651C402.087 256.603 401.762 256.555 401.468 256.475Z" fill="#263238"/>
<path d="M397.289 241.68C397.211 241.664 397.149 241.616 397.103 241.552C396.933 241.361 396.948 241.074 397.134 240.914C398.945 239.222 400.927 239.717 401.004 239.749C401.236 239.813 401.375 240.068 401.313 240.308C401.252 240.547 401.004 240.691 400.772 240.627C400.71 240.611 399.162 240.228 397.707 241.584C397.598 241.696 397.428 241.728 397.289 241.68Z" fill="#263238"/>
<path d="M412.304 244.729C412.165 244.681 412.057 244.569 412.01 244.409C411.499 242.462 409.982 241.936 409.92 241.904C409.688 241.824 409.564 241.569 409.642 241.329C409.719 241.09 409.967 240.962 410.199 241.042C410.276 241.074 412.227 241.728 412.862 244.17C412.923 244.409 412.784 244.665 412.552 244.729C412.475 244.76 412.382 244.76 412.304 244.729Z" fill="#263238"/>
<path d="M459.178 568.541C458.404 568.956 457.506 569.227 456.856 569.387C456.763 569.403 456.686 569.371 456.624 569.307C456.577 569.227 456.562 569.132 456.608 569.052C456.809 568.701 458.636 565.573 459.797 565.573C459.983 565.573 460.23 565.636 460.416 565.972C460.664 566.402 460.71 566.849 460.54 567.264C460.339 567.775 459.812 568.206 459.178 568.541ZM457.274 568.797C458.822 568.334 459.89 567.711 460.137 567.073C460.246 566.801 460.215 566.514 460.029 566.195C459.936 566.035 459.859 566.019 459.781 566.019C459.193 566.035 458.048 567.584 457.274 568.797Z" fill="#00A7C7"/>
<path d="M456.902 569.371C456.871 569.387 456.825 569.403 456.778 569.403C456.701 569.387 456.624 569.339 456.593 569.259C456.546 569.148 455.509 566.578 456.066 565.253C456.206 564.902 456.453 564.663 456.778 564.551C457.274 564.359 457.552 564.599 457.676 564.743C458.326 565.604 457.614 568.365 456.995 569.307C456.964 569.323 456.933 569.355 456.902 569.371ZM456.84 565.014C456.686 565.094 456.562 565.237 456.484 565.429C456.128 566.275 456.577 567.855 456.84 568.637C457.367 567.52 457.707 565.541 457.32 565.03C457.289 564.982 457.196 564.87 456.933 564.982C456.902 564.982 456.871 564.998 456.84 565.014Z" fill="#00A7C7"/>
<path d="M412.738 574.941C412.66 574.909 412.599 574.845 412.583 574.765C412.568 574.67 412.614 574.574 412.691 574.526C413.109 574.287 416.84 572.276 417.986 572.898C418.202 573.026 418.342 573.233 418.357 573.505C418.403 573.951 418.264 574.334 417.955 574.622C416.948 575.579 414.255 575.244 412.753 574.957C412.753 574.941 412.753 574.941 412.738 574.941ZM417.707 573.265C416.995 573.026 414.982 573.856 413.512 574.606C415.586 574.925 417.119 574.813 417.676 574.271C417.877 574.079 417.955 573.84 417.939 573.536C417.924 573.425 417.893 573.345 417.8 573.297C417.753 573.281 417.738 573.281 417.707 573.265Z" fill="#00A7C7"/>
<path d="M412.738 574.941C412.722 574.941 412.691 574.925 412.676 574.909C412.614 574.861 412.568 574.781 412.583 574.702C412.599 574.59 412.8 571.989 413.976 570.967C414.332 570.648 414.75 570.52 415.199 570.552C415.803 570.6 415.989 570.919 416.035 571.175C416.221 572.26 414.023 574.382 412.908 574.925C412.846 574.957 412.8 574.957 412.738 574.941ZM415.385 571.063C415.323 571.047 415.261 571.031 415.153 571.015C414.812 570.983 414.518 571.079 414.255 571.318C413.481 571.989 413.171 573.553 413.063 574.303C414.208 573.569 415.695 571.909 415.586 571.254C415.602 571.222 415.571 571.127 415.385 571.063Z" fill="#00A7C7"/>
<path d="M384.672 289.464C381.592 295.13 378.48 301.179 375.694 307.132C372.877 313.101 370.322 319.166 368.48 325.151C368.248 325.901 368.078 326.619 367.877 327.369C367.784 327.705 367.644 328.183 367.598 328.407C367.567 328.598 367.49 328.758 367.474 328.965C367.35 329.763 367.35 330.801 367.567 331.982C368 334.344 369.146 337.089 370.586 339.754C373.511 345.101 377.598 350.495 381.762 355.379L377.273 360.949C371.344 356.8 366.112 352.091 361.514 346.011C359.27 342.93 357.149 339.547 355.833 335.222C355.183 333.067 354.734 330.641 354.858 327.992C354.873 327.337 354.982 326.651 355.059 325.997C355.152 325.374 355.245 325.007 355.322 324.497C355.508 323.555 355.678 322.597 355.88 321.672C357.598 314.33 360.09 307.563 362.908 301.019C365.756 294.444 368.867 288.251 372.505 281.995L384.672 289.464Z" fill="#FEAB6B"/>
<path d="M374.951 276.393C366.329 278.819 357.876 303.796 357.876 303.796L378.62 309.734C378.62 309.734 383.186 303.765 387.258 292.624C391.669 280.495 385.384 273.457 374.951 276.393Z" fill="#00A7C7"/>
<g opacity="0.2">
<path opacity="0.2" d="M374.951 276.393C366.329 278.819 357.876 303.796 357.876 303.796L378.62 309.734C378.62 309.734 383.186 303.765 387.258 292.624C391.669 280.495 385.384 273.457 374.951 276.393Z" fill="black"/>
</g>
<path d="M377.784 353.719L387.258 356.289L383.496 365.466C383.496 365.466 374.998 363.615 375.044 358.827L377.784 353.719Z" fill="#FEAB6B"/>
<path d="M390.896 362.513L388.094 369.775L383.496 365.466L387.258 356.289L390.896 362.513Z" fill="#FEAB6B"/>
</svg>
