<svg width="39" height="39" viewBox="0 0 39 39" fill="none" xmlns="http://www.w3.org/2000/svg">
<path fill-rule="evenodd" clip-rule="evenodd" d="M19.5 0C8.73048 0 0 8.73048 0 19.5C0 30.2695 8.73048 39 19.5 39C30.2695 39 39 30.2695 39 19.5C39 8.73048 30.2695 0 19.5 0ZM15.2127 9.16281C16.322 9.11235 16.6765 9.1 19.501 9.1H19.4977C22.3231 9.1 22.6762 9.11235 23.7856 9.16281C24.8928 9.21351 25.6489 9.38884 26.312 9.646C26.9966 9.91144 27.5751 10.2667 28.1536 10.8452C28.7322 11.4233 29.0875 12.0036 29.354 12.6876C29.6097 13.3489 29.7852 14.1046 29.8372 15.2118C29.887 16.3212 29.9 16.6756 29.9 19.5001C29.9 22.3246 29.887 22.6782 29.8372 23.7876C29.7852 24.8943 29.6097 25.6502 29.354 26.3118C29.0875 26.9956 28.7322 27.5758 28.1536 28.1539C27.5758 28.7324 26.9964 29.0886 26.3126 29.3542C25.6509 29.6114 24.8943 29.7867 23.7872 29.8374C22.6778 29.8879 22.3244 29.9002 19.4997 29.9002C16.6754 29.9002 16.3212 29.8879 15.2118 29.8374C14.1048 29.7867 13.3489 29.6114 12.6872 29.3542C12.0035 29.0886 11.4233 28.7324 10.8455 28.1539C10.2672 27.5758 9.91185 26.9956 9.646 26.3115C9.38901 25.6502 9.21375 24.8945 9.16281 23.7873C9.11259 22.678 9.1 22.3246 9.1 19.5001C9.1 16.6756 9.113 16.3209 9.16264 15.2115C9.21245 14.1048 9.38795 13.3489 9.64576 12.6874C9.91226 12.0036 10.2676 11.4233 10.8461 10.8452C11.4242 10.267 12.0044 9.91161 12.6885 9.646C13.3498 9.38884 14.1055 9.21351 15.2127 9.16281Z" fill="#FEAB6B"/>
<path fill-rule="evenodd" clip-rule="evenodd" d="M18.5681 10.9743C18.7492 10.974 18.9441 10.9741 19.1544 10.9742L19.5011 10.9743C22.2779 10.9743 22.607 10.9843 23.7036 11.0341C24.7176 11.0805 25.2679 11.2499 25.6345 11.3922C26.1199 11.5807 26.4658 11.8061 26.8296 12.1701C27.1936 12.5341 27.419 12.8808 27.6079 13.3661C27.7503 13.7323 27.9199 14.2826 27.9661 15.2966C28.0159 16.393 28.0267 16.7223 28.0267 19.4978C28.0267 22.2734 28.0159 22.6027 27.9661 23.6991C27.9197 24.7131 27.7503 25.2634 27.6079 25.6296C27.4194 26.1149 27.1936 26.4605 26.8296 26.8243C26.4657 27.1883 26.12 27.4137 25.6345 27.6022C25.2684 27.7452 24.7176 27.9142 23.7036 27.9605C22.6072 28.0104 22.2779 28.0212 19.5011 28.0212C16.724 28.0212 16.3949 28.0104 15.2985 27.9605C14.2845 27.9137 13.7342 27.7443 13.3673 27.6019C12.882 27.4134 12.5353 27.188 12.1713 26.824C11.8073 26.46 11.582 26.1142 11.393 25.6287C11.2507 25.2626 11.081 24.7122 11.0349 23.6982C10.9851 22.6019 10.9751 22.2725 10.9751 19.4952C10.9751 16.718 10.9851 16.3904 11.0349 15.294C11.0813 14.28 11.2507 13.7297 11.393 13.3631C11.5815 12.8777 11.8073 12.5311 12.1713 12.1671C12.5353 11.8031 12.882 11.5777 13.3673 11.3888C13.7339 11.2458 14.2845 11.0768 15.2985 11.0302C16.2579 10.9869 16.6298 10.9739 18.5681 10.9717V10.9743ZM25.0526 12.7012C24.3636 12.7012 23.8045 13.2595 23.8045 13.9488C23.8045 14.6378 24.3636 15.1968 25.0526 15.1968C25.7416 15.1968 26.3006 14.6378 26.3006 13.9488C26.3006 13.2598 25.7416 12.7008 25.0526 12.7008V12.7012ZM14.1602 19.5002C14.1602 16.5508 16.5514 14.1594 19.5008 14.1594C22.4504 14.1594 24.8411 16.5507 24.8411 19.5002C24.8411 22.4498 22.4505 24.8401 19.5011 24.8401C16.5515 24.8401 14.1602 22.4498 14.1602 19.5002Z" fill="#FEAB6B"/>
<path d="M19.5009 16.0334C21.4154 16.0334 22.9676 17.5855 22.9676 19.5001C22.9676 21.4146 21.4154 22.9668 19.5009 22.9668C17.5862 22.9668 16.0342 21.4146 16.0342 19.5001C16.0342 17.5855 17.5862 16.0334 19.5009 16.0334Z" fill="#FEAB6B"/>
</svg>
