<svg width="208" height="67" viewBox="0 0 208 67" fill="none" xmlns="http://www.w3.org/2000/svg">
<rect width="135" height="61.012" rx="30.506" transform="matrix(1 0 -0.0198505 0.999803 71.7861 3.32849)" fill="#00A7C7"/>
<path d="M5.64594 47.2079L5.64594 21.1019L0.895941 21.1019L0.895941 16.4279L16.6279 16.4279L16.6279 21.1019L11.9539 21.1019L11.9539 47.2079L5.64594 47.2079ZM25.994 47.5879C24.3727 47.5879 23.0174 47.2965 21.928 46.7139C20.8387 46.1059 20.0154 45.2319 19.458 44.0919C18.9007 42.9265 18.622 41.5332 18.622 39.9119L18.622 32.5399C18.622 30.8679 18.9007 29.4745 19.458 28.3599C20.0154 27.2199 20.8514 26.3585 21.966 25.7759C23.0807 25.1679 24.4234 24.8639 25.994 24.8639C27.666 24.8639 29.0214 25.1679 30.06 25.7759C31.0987 26.3839 31.8587 27.2705 32.34 28.4359C32.8467 29.6012 33.1 31.0199 33.1 32.6919L33.1 36.5299L24.284 36.5299L24.284 40.7859C24.284 41.4192 24.3474 41.9385 24.474 42.3439C24.626 42.7492 24.8287 43.0405 25.082 43.2179C25.3354 43.3699 25.652 43.4459 26.032 43.4459C26.3867 43.4459 26.6907 43.3699 26.944 43.2179C27.2227 43.0405 27.4254 42.7745 27.552 42.4199C27.6787 42.0652 27.742 41.5965 27.742 41.0139L27.742 38.9239L33.062 38.9239L33.062 40.7479C33.062 42.9772 32.454 44.6745 31.238 45.8399C30.022 47.0052 28.274 47.5879 25.994 47.5879ZM24.284 33.7939L27.742 33.7939L27.742 31.6279C27.742 30.9945 27.6787 30.4879 27.552 30.1079C27.4254 29.7025 27.2227 29.4239 26.944 29.2719C26.6907 29.0945 26.3614 29.0059 25.956 29.0059C25.576 29.0059 25.2594 29.0945 25.006 29.2719C24.778 29.4492 24.6007 29.7659 24.474 30.2219C24.3474 30.6525 24.284 31.2732 24.284 32.0839L24.284 33.7939ZM43.5106 47.5879C41.6359 47.5372 40.1666 47.1825 39.1026 46.5239C38.0639 45.8652 37.3419 44.9025 36.9366 43.6359C36.5312 42.3692 36.3286 40.8365 36.3286 39.0379L36.3286 26.6499C36.3286 24.6232 36.5186 23.0019 36.8986 21.7859C37.3039 20.5699 37.8612 19.6325 38.5706 18.9739C39.3052 18.3152 40.1792 17.7959 41.1926 17.4159C42.1806 17.0359 43.1559 16.7572 44.1186 16.5799C45.1066 16.3772 46.0566 16.1492 46.9686 15.8959C47.8806 15.6425 48.7419 15.2499 49.5526 14.7179L49.8946 19.3539C49.0839 19.7845 48.2226 20.1012 47.3106 20.3039C46.3986 20.5065 45.5119 20.6839 44.6506 20.8359C43.7892 20.9625 42.9912 21.1905 42.2566 21.5199C41.5726 21.7985 41.0786 22.2925 40.7746 23.0019C40.4706 23.6859 40.3186 24.6359 40.3186 25.8519L40.3186 27.9419C40.6479 27.5619 41.0659 27.2452 41.5726 26.9919C42.0792 26.7385 42.6619 26.5359 43.3206 26.3839C43.9792 26.2319 44.6886 26.1559 45.4486 26.1559C46.6899 26.1559 47.7159 26.4092 48.5266 26.9159C49.3626 27.4225 49.9832 28.2585 50.3886 29.4239C50.7939 30.5892 50.9966 32.1725 50.9966 34.1739L50.9966 39.2659C50.9966 41.5205 50.6799 43.2559 50.0466 44.4719C49.4132 45.6625 48.5266 46.4859 47.3866 46.9419C46.2719 47.3725 44.9799 47.5879 43.5106 47.5879ZM43.7766 43.7879C44.2832 43.7879 44.6506 43.6612 44.8786 43.4079C45.1319 43.1545 45.3092 42.6859 45.4106 42.0019C45.5119 41.3179 45.5626 40.3299 45.5626 39.0379L45.5626 33.0339C45.5626 32.1725 45.5119 31.4885 45.4106 30.9819C45.3346 30.4752 45.1699 30.1205 44.9166 29.9179C44.6886 29.6899 44.3466 29.5759 43.8906 29.5759C43.6372 29.5759 43.3712 29.6519 43.0926 29.8039C42.8392 29.9559 42.6112 30.1965 42.4086 30.5259C42.2312 30.8299 42.0666 31.2732 41.9146 31.8559L41.9146 38.9619C41.9146 40.2285 41.9526 41.2165 42.0286 41.9259C42.1299 42.6099 42.3199 43.0912 42.5986 43.3699C42.8772 43.6485 43.2699 43.7879 43.7766 43.7879ZM61.4335 47.5879C59.8122 47.5879 58.4568 47.2965 57.3675 46.7139C56.2782 46.1059 55.4548 45.2319 54.8975 44.0919C54.3402 42.9265 54.0615 41.5332 54.0615 39.9119L54.0615 32.5399C54.0615 30.8679 54.3402 29.4745 54.8975 28.3599C55.4548 27.2199 56.2908 26.3585 57.4055 25.7759C58.5202 25.1679 59.8628 24.8639 61.4335 24.8639C63.1055 24.8639 64.4608 25.1679 65.4995 25.7759C66.5382 26.3839 67.2982 27.2705 67.7795 28.4359C68.2862 29.6012 68.5395 31.0199 68.5395 32.6919L68.5395 36.5299L59.7235 36.5299L59.7235 40.7859C59.7235 41.4192 59.7868 41.9385 59.9135 42.3439C60.0655 42.7492 60.2682 43.0405 60.5215 43.2179C60.7748 43.3699 61.0915 43.4459 61.4715 43.4459C61.8262 43.4459 62.1302 43.3699 62.3835 43.2179C62.6622 43.0405 62.8648 42.7745 62.9915 42.4199C63.1182 42.0652 63.1815 41.5965 63.1815 41.0139L63.1815 38.9239L68.5015 38.9239L68.5015 40.7479C68.5015 42.9772 67.8935 44.6745 66.6775 45.8399C65.4615 47.0052 63.7135 47.5879 61.4335 47.5879ZM59.7235 33.7939L63.1815 33.7939L63.1815 31.6279C63.1815 30.9945 63.1182 30.4879 62.9915 30.1079C62.8648 29.7025 62.6622 29.4239 62.3835 29.2719C62.1302 29.0945 61.8008 29.0059 61.3955 29.0059C61.0155 29.0059 60.6988 29.0945 60.4455 29.2719C60.2175 29.4492 60.0402 29.7659 59.9135 30.2219C59.7868 30.6525 59.7235 31.2732 59.7235 32.0839L59.7235 33.7939Z" fill="#FEAB6B"/>
<path d="M81.838 47.2079L81.838 16.4279L89.628 16.4279C90.9707 16.4279 92.212 16.5419 93.352 16.7699C94.492 16.9979 95.4927 17.4032 96.354 17.9859C97.2407 18.5685 97.912 19.3792 98.368 20.4179C98.8493 21.4312 99.09 22.7612 99.09 24.4079C99.09 25.6492 98.9127 26.7132 98.558 27.5999C98.2033 28.4612 97.6967 29.1452 97.038 29.6519C96.3793 30.1585 95.5687 30.5005 94.606 30.6779C95.7967 30.8552 96.7973 31.2605 97.608 31.8939C98.4187 32.5272 99.0267 33.3632 99.432 34.4019C99.8373 35.4405 100.04 36.6945 100.04 38.1639C100.04 39.7092 99.8373 41.0519 99.432 42.1919C99.052 43.3319 98.482 44.2692 97.722 45.0039C96.962 45.7385 96.0247 46.2959 94.91 46.6759C93.7953 47.0305 92.5033 47.2079 91.034 47.2079L81.838 47.2079ZM88.108 42.7999L89.856 42.7999C91.4267 42.7999 92.5033 42.4072 93.086 41.6219C93.694 40.8365 93.998 39.6585 93.998 38.0879C93.998 36.8719 93.8587 35.9092 93.58 35.1999C93.3013 34.4652 92.8453 33.9332 92.212 33.6039C91.604 33.2492 90.7807 33.0719 89.742 33.0719L88.108 33.0719L88.108 42.7999ZM88.108 28.8539L89.666 28.8539C90.7553 28.8539 91.5787 28.7019 92.136 28.3979C92.6933 28.0685 93.0733 27.5872 93.276 26.9539C93.504 26.2952 93.618 25.4972 93.618 24.5599C93.618 23.6225 93.4533 22.8752 93.124 22.3179C92.82 21.7352 92.3387 21.3172 91.68 21.0639C91.0467 20.8105 90.236 20.6839 89.248 20.6839L88.108 20.6839L88.108 28.8539ZM110.27 47.5879C108.7 47.5879 107.357 47.3092 106.242 46.7519C105.128 46.1692 104.279 45.3332 103.696 44.2439C103.139 43.1545 102.86 41.7992 102.86 40.1779L102.86 32.2739C102.86 30.6525 103.139 29.2972 103.696 28.2079C104.279 27.1185 105.128 26.2952 106.242 25.7379C107.357 25.1552 108.7 24.8639 110.27 24.8639C111.841 24.8639 113.184 25.1552 114.298 25.7379C115.413 26.2952 116.262 27.1185 116.844 28.2079C117.427 29.2972 117.718 30.6525 117.718 32.2739L117.718 40.1779C117.718 41.7992 117.427 43.1545 116.844 44.2439C116.262 45.3332 115.413 46.1692 114.298 46.7519C113.184 47.3092 111.841 47.5879 110.27 47.5879ZM110.308 43.7119C110.79 43.7119 111.157 43.5852 111.41 43.3319C111.664 43.0532 111.828 42.6859 111.904 42.2299C111.98 41.7485 112.018 41.2039 112.018 40.5959L112.018 31.8939C112.018 31.2605 111.98 30.7159 111.904 30.2599C111.828 29.8039 111.664 29.4365 111.41 29.1579C111.157 28.8792 110.79 28.7399 110.308 28.7399C109.827 28.7399 109.46 28.8792 109.206 29.1579C108.953 29.4365 108.776 29.8039 108.674 30.2599C108.598 30.7159 108.56 31.2605 108.56 31.8939L108.56 40.5959C108.56 41.2039 108.598 41.7485 108.674 42.2299C108.776 42.6859 108.953 43.0532 109.206 43.3319C109.46 43.5852 109.827 43.7119 110.308 43.7119ZM119.733 53.0979L119.733 43.6739C120.543 43.2432 121.253 42.6985 121.861 42.0399C122.469 41.3812 122.988 40.5705 123.419 39.6079C123.875 38.6199 124.229 37.4672 124.483 36.1499C124.761 34.8072 124.939 33.2492 125.015 31.4759L125.547 25.2439L137.175 25.2439L137.175 43.5979L140.253 43.5979L140.253 53.0979L136.111 53.0979L135.693 47.2079L124.255 47.2079L123.913 53.0979L119.733 53.0979ZM125.813 43.5979L131.893 43.5979L131.893 28.7779L129.841 28.7779L129.461 32.8439C129.385 34.4905 129.245 35.9092 129.043 37.0999C128.84 38.2905 128.574 39.3039 128.245 40.1399C127.941 40.9759 127.573 41.6725 127.143 42.2299C126.737 42.7619 126.294 43.2179 125.813 43.5979ZM142.875 47.2079L142.875 25.2439L147.435 25.2439L147.435 37.6319L153.363 25.2439L157.847 25.2439L157.847 47.2079L153.173 47.2079L153.173 34.8959L147.397 47.2079L142.875 47.2079ZM164.386 47.2079L164.386 29.1959L160.358 29.1959L160.358 25.2439L174.114 25.2439L174.114 29.1959L170.086 29.1959L170.086 47.2079L164.386 47.2079ZM176.644 47.2079L176.644 25.2439L182.382 25.2439L182.382 34.0979C182.408 34.0979 182.433 34.0979 182.458 34.0979C182.484 34.0979 182.509 34.0979 182.534 34.0979C182.585 34.0979 182.623 34.0979 182.648 34.0979C184.168 34.1232 185.498 34.2372 186.638 34.4399C187.778 34.6172 188.716 34.9592 189.45 35.4659C190.21 35.9472 190.78 36.6059 191.16 37.4419C191.566 38.2525 191.768 39.2912 191.768 40.5579C191.768 41.7485 191.591 42.7745 191.236 43.6359C190.907 44.4719 190.375 45.1559 189.64 45.6879C188.906 46.1945 187.956 46.5745 186.79 46.8279C185.625 47.0812 184.232 47.2079 182.61 47.2079L176.644 47.2079ZM182.382 43.9019L182.496 43.9019C183.51 43.9019 184.308 43.8132 184.89 43.6359C185.498 43.4332 185.929 43.0912 186.182 42.6099C186.436 42.1285 186.562 41.4825 186.562 40.6719C186.562 39.8612 186.436 39.2279 186.182 38.7719C185.929 38.3159 185.511 37.9865 184.928 37.7839C184.371 37.5812 183.598 37.4799 182.61 37.4799C182.585 37.4799 182.547 37.4799 182.496 37.4799C182.446 37.4799 182.408 37.4799 182.382 37.4799L182.382 43.9019Z" fill="white"/>
</svg>
