<svg width="130" height="130" viewBox="0 0 130 130" fill="none" xmlns="http://www.w3.org/2000/svg">
<circle cx="65" cy="65" r="65" fill="#00A7C7"/>
<path d="M92.8009 25H43.5325C41.7645 25 40.333 26.4726 40.333 28.2912V97.0631C40.333 98.8808 41.7645 100.354 43.5325 100.354H92.8009C94.5679 100.354 96.0004 98.8808 96.0004 97.0631V28.2912C96.0004 26.4726 94.5679 25 92.8009 25ZM92.8009 97.0631H43.5325V28.2912H92.8009V97.0631Z" fill="#F3E9E7"/>
<path d="M53.8084 69.2397C53.8084 69.2397 53.8084 69.2407 53.8084 69.2397C57.518 73.3124 62.7496 75.6473 68.1649 75.6473C68.1722 75.6473 68.1796 75.6473 68.186 75.6473C68.1878 75.6473 68.1896 75.6473 68.1914 75.6473C68.1951 75.6473 68.1978 75.6464 68.2015 75.6464C73.6022 75.6361 78.8201 73.303 82.5206 69.2397C85.9504 65.4745 87.8399 60.5621 87.8399 55.409C87.8399 50.2567 85.9513 45.3443 82.5206 41.5782C78.8119 37.5064 73.5794 35.1715 68.1649 35.1715C62.7496 35.1715 57.517 37.5064 53.8093 41.5782C53.8084 41.5791 53.8084 41.5791 53.8084 41.5791C50.3804 45.3415 48.4927 50.253 48.4927 55.409C48.4927 60.5649 50.3804 65.4783 53.8084 69.2397ZM64.3959 45.6114C64.4508 45.396 64.5075 45.1929 64.5641 44.9898C64.5916 44.8901 64.6199 44.7848 64.6482 44.6889C64.7168 44.451 64.7881 44.2272 64.8603 44.0062C64.8777 43.9535 64.8932 43.8971 64.9106 43.8454C65.0011 43.5764 65.0925 43.3188 65.1858 43.0762C65.2049 43.0273 65.2241 42.984 65.2433 42.937C65.3174 42.748 65.3914 42.5627 65.4664 42.3897C65.4993 42.3126 65.5331 42.243 65.5669 42.1687C65.6273 42.0342 65.6894 41.9007 65.7507 41.7756C65.7891 41.6976 65.8275 41.6271 65.8659 41.5528C65.9235 41.4437 65.9792 41.3346 66.0368 41.2331C66.077 41.1616 66.1182 41.0948 66.1584 41.0262C66.2132 40.934 66.2681 40.8437 66.3229 40.7591C66.3641 40.6952 66.4052 40.635 66.4463 40.5757C66.5003 40.4977 66.5524 40.4225 66.6054 40.3519C66.6465 40.2974 66.6868 40.2457 66.727 40.1949C66.78 40.1291 66.8312 40.067 66.8833 40.0078C66.9226 39.9636 66.9619 39.9194 67.0003 39.8789C67.0515 39.8244 67.1018 39.7755 67.1521 39.7275C67.1895 39.6927 67.227 39.657 67.2636 39.626C67.3139 39.5827 67.3623 39.5451 67.4108 39.5084C67.4455 39.4831 67.4802 39.4548 67.5141 39.4323C67.5634 39.3994 67.61 39.373 67.6585 39.3467C67.6887 39.3298 67.7188 39.31 67.749 39.2959C67.8011 39.2724 67.8486 39.2564 67.898 39.2395C67.9209 39.232 67.9455 39.2207 67.9675 39.216C68.0369 39.1981 68.1037 39.1887 68.1668 39.1887C68.2298 39.1887 68.2956 39.1991 68.3651 39.216C68.388 39.2216 68.4145 39.2339 68.4383 39.2414C68.4858 39.2564 68.5333 39.2715 68.5836 39.2959C68.6138 39.311 68.6458 39.3298 68.6778 39.3476C68.7244 39.373 68.771 39.3994 68.8195 39.4313C68.8533 39.4548 68.8898 39.484 68.9246 39.5103C68.973 39.5461 69.0196 39.5827 69.069 39.625C69.1065 39.657 69.1449 39.6937 69.1833 39.7304C69.2326 39.7764 69.2811 39.8253 69.3314 39.8771C69.3716 39.9194 69.4127 39.9655 69.4529 40.0115C69.5032 40.0689 69.5526 40.1281 69.6038 40.1911C69.6458 40.2438 69.6879 40.2974 69.7308 40.3548C69.782 40.4234 69.8323 40.4958 69.8844 40.571C69.9274 40.6331 69.9704 40.6961 70.0133 40.7619C70.0663 40.8437 70.1184 40.9312 70.1715 41.0196C70.2135 41.0901 70.2565 41.1606 70.2985 41.2359C70.3534 41.3327 70.4064 41.4362 70.4612 41.5396C70.5024 41.6186 70.5444 41.6957 70.5856 41.7794C70.6432 41.896 70.6998 42.022 70.7574 42.1471C70.7949 42.2289 70.8324 42.3069 70.8699 42.3935C70.9375 42.5496 71.0042 42.7179 71.0719 42.8862C71.0975 42.952 71.1249 43.0132 71.1505 43.0809C71.2419 43.3216 71.3324 43.5745 71.422 43.8416C71.4449 43.9103 71.4677 43.9874 71.4896 44.0579C71.5555 44.261 71.6213 44.466 71.6844 44.6832C71.7154 44.7895 71.7456 44.9052 71.7767 45.0161C71.8306 45.2089 71.8846 45.4026 71.9367 45.6076C71.9687 45.7346 71.9988 45.8681 72.0308 45.9988C72.0656 46.1445 72.1003 46.2931 72.1341 46.4445C71.7392 46.5451 71.3416 46.6288 70.9421 46.6994C70.8635 46.7135 70.7858 46.7238 70.7071 46.736C70.3589 46.7925 70.0078 46.8357 69.6577 46.8696C69.5818 46.8771 69.506 46.8855 69.4301 46.8903C68.5909 46.9561 67.7472 46.9561 66.908 46.8903C66.8339 46.8846 66.7599 46.8761 66.6859 46.8696C66.3321 46.8376 65.9792 46.7925 65.6273 46.736C65.5523 46.7229 65.4764 46.7135 65.4006 46.7003C65.0002 46.6298 64.6007 46.5461 64.204 46.4455C64.2396 46.2894 64.2744 46.1361 64.3109 45.9866C64.3356 45.8606 64.3658 45.7317 64.3959 45.6114ZM72.0793 65.3288C72.0281 65.546 71.9751 65.7538 71.9211 65.9607C71.8937 66.0698 71.8663 66.1845 71.837 66.2917C71.7538 66.5992 71.6679 66.8964 71.5811 67.1794C71.5728 67.2057 71.5637 67.2302 71.5555 67.2565C71.475 67.5123 71.3937 67.7596 71.3096 67.9956C71.2785 68.084 71.2465 68.1649 71.2145 68.2505C71.1532 68.4179 71.0911 68.5834 71.0289 68.7404C70.9914 68.8335 70.954 68.9181 70.9156 69.0075C70.858 69.1448 70.7995 69.283 70.7401 69.4128C70.6998 69.5002 70.6596 69.582 70.6194 69.6657C70.5618 69.7851 70.5042 69.9027 70.4475 70.0127C70.4055 70.0936 70.3634 70.1688 70.3214 70.245C70.2647 70.3475 70.2089 70.4481 70.1514 70.5421C70.1093 70.6136 70.0663 70.6813 70.0243 70.749C69.9676 70.8374 69.9118 70.923 69.8561 71.0039C69.814 71.065 69.772 71.1242 69.7299 71.1806C69.6742 71.2559 69.6193 71.3273 69.5645 71.396C69.5224 71.4468 69.4813 71.4975 69.4402 71.5446C69.3853 71.6066 69.3323 71.664 69.2783 71.7195C69.2381 71.7608 69.1979 71.8032 69.1586 71.8398C69.1047 71.8906 69.0526 71.9339 69.0004 71.9771C68.963 72.0082 68.9246 72.0411 68.8871 72.0683C68.8341 72.1078 68.7829 72.1379 68.7308 72.169C68.697 72.1887 68.6631 72.2132 68.6302 72.2291C68.5735 72.2573 68.5196 72.2771 68.4657 72.2959C68.4401 72.3053 68.4127 72.3185 68.3871 72.3251C68.3094 72.3467 68.2344 72.358 68.1631 72.358C68.0918 72.358 68.0159 72.3467 67.9382 72.3251C67.9126 72.3185 67.8852 72.3053 67.8596 72.2959C67.8048 72.2762 67.7517 72.2573 67.6951 72.2291C67.6622 72.2122 67.6283 72.1887 67.5945 72.169C67.5424 72.1379 67.4912 72.1078 67.4373 72.0683C67.4007 72.042 67.3623 72.0082 67.3239 71.9762C67.2718 71.9339 67.2206 71.8906 67.1667 71.8398C67.1265 71.8032 67.0862 71.7599 67.0451 71.7185C66.9921 71.664 66.94 71.6076 66.886 71.5455C66.844 71.4975 66.801 71.4458 66.759 71.3932C66.705 71.3273 66.6511 71.2568 66.5972 71.1835C66.5533 71.1242 66.5094 71.064 66.4665 71.001C66.4116 70.922 66.3586 70.8393 66.3037 70.7537C66.2599 70.6841 66.2151 70.6136 66.1703 70.5384C66.1154 70.4462 66.0615 70.3503 66.0066 70.2506C65.9628 70.1716 65.9189 70.0926 65.8759 70.009C65.8192 69.9018 65.7644 69.788 65.7086 69.6723C65.6666 69.5858 65.6236 69.5002 65.5825 69.4099C65.5249 69.2849 65.4691 69.1523 65.4125 69.0188C65.3722 68.9247 65.3329 68.8354 65.2936 68.7376C65.2333 68.5871 65.173 68.4254 65.1144 68.2655C65.0806 68.1743 65.0468 68.0887 65.0139 67.9956C64.9298 67.7587 64.8475 67.5085 64.7662 67.2518C64.7579 67.2274 64.7497 67.2057 64.7433 67.1813C64.6546 66.8964 64.5696 66.5983 64.4855 66.2889C64.4618 66.1977 64.4389 66.1008 64.4151 66.0077C64.3575 65.7839 64.299 65.5582 64.2442 65.3222C64.2159 65.2 64.1884 65.0702 64.161 64.9461C64.1235 64.7712 64.0851 64.5953 64.0486 64.4157C64.4663 64.3047 64.8887 64.2154 65.3128 64.1392C65.4015 64.1223 65.4902 64.1101 65.5788 64.095C65.9262 64.0386 66.2763 63.9944 66.6264 63.9596C66.7096 63.9512 66.7928 63.9418 66.8751 63.9361C67.7298 63.8675 68.5891 63.8675 69.4447 63.9361C69.527 63.9427 69.6093 63.9521 69.6915 63.9596C70.0417 63.9925 70.3909 64.0377 70.7382 64.095C70.8296 64.1101 70.9192 64.1223 71.0097 64.1392C71.4339 64.2154 71.8553 64.3057 72.2731 64.4157C72.2402 64.5793 72.2054 64.7392 72.1707 64.8972C72.1423 65.0392 72.1122 65.1877 72.0793 65.3288ZM65.194 49.9963C65.5578 50.0536 65.9235 50.0997 66.29 50.1354C66.4463 50.1514 66.6018 50.1655 66.759 50.1777C67.174 50.2078 67.5908 50.2266 68.0077 50.2304C68.0607 50.2313 68.1119 50.237 68.1649 50.237C68.217 50.237 68.2673 50.2313 68.3194 50.2304C68.7363 50.2276 69.1531 50.2088 69.569 50.1777C69.7281 50.1655 69.8863 50.1505 70.0444 50.1345C70.4055 50.0997 70.7657 50.0527 71.1249 49.9972C71.241 49.9784 71.3571 49.9652 71.4723 49.9445C71.8846 49.8731 72.2959 49.7894 72.7036 49.6897C72.7338 49.9173 72.7557 50.1524 72.7822 50.3837C72.8225 50.7279 72.8654 51.0701 72.8974 51.4218C72.9203 51.6776 72.9349 51.9409 72.9541 52.1986C72.9797 52.5512 73.0089 52.901 73.0272 53.2593C73.0281 53.2884 73.0291 53.3185 73.03 53.3486H63.3035C63.3054 53.3167 63.3054 53.2828 63.3072 53.2508C63.3246 52.9142 63.352 52.5841 63.3758 52.2512C63.395 51.9748 63.4105 51.6945 63.4352 51.4218C63.4663 51.0842 63.5074 50.7542 63.5449 50.4222C63.5732 50.1777 63.597 49.9304 63.6281 49.6888C64.0367 49.7884 64.449 49.8721 64.864 49.9436C64.9737 49.9662 65.0843 49.9793 65.194 49.9963ZM71.3891 60.863C70.8936 60.7784 70.3954 60.7163 69.8945 60.6703C69.8433 60.6656 69.793 60.6599 69.7418 60.6562C69.218 60.6129 68.6924 60.5828 68.164 60.5828C67.6356 60.5828 67.11 60.6129 66.5853 60.6562C66.5332 60.6609 66.4829 60.6656 66.4317 60.6703C65.9317 60.7163 65.4353 60.7784 64.9417 60.863C64.9152 60.8668 64.8887 60.8706 64.8631 60.8753C64.4197 60.9533 63.9773 61.0417 63.5394 61.1508C63.5275 61.0502 63.5202 60.9439 63.5101 60.8423C63.4507 60.2894 63.3986 59.7308 63.3593 59.1647C63.3429 58.9344 63.3328 58.6993 63.3191 58.4661C63.2935 57.9931 63.2734 57.5163 63.2615 57.0358C63.2578 56.9041 63.256 56.7734 63.2542 56.6418H73.0748C73.0729 56.7734 73.0711 56.9032 73.0675 57.0339C73.0556 57.5163 73.0355 57.994 73.0099 58.4679C72.9971 58.6974 72.987 58.9278 72.9706 59.1553C72.9294 59.7374 72.8773 60.312 72.8151 60.8809C72.8051 60.9702 72.7996 61.0614 72.7896 61.1498C72.3508 61.0408 71.9065 60.9514 71.4622 60.8734C71.4385 60.8706 71.4138 60.8677 71.3891 60.863ZM60.0465 56.6408C60.0483 56.7668 60.0602 56.8881 60.0629 57.0132C60.0794 57.7326 60.1095 58.4435 60.1552 59.1459C60.1653 59.2889 60.1699 59.4356 60.1799 59.5785C60.2403 60.4004 60.3234 61.2063 60.424 62.0018C60.4322 62.0695 60.4359 62.141 60.4441 62.2096C60.3792 62.2388 60.3171 62.2745 60.2521 62.3046C59.8938 62.4673 59.5409 62.6394 59.1927 62.8246C59.0647 62.8914 58.9394 62.9619 58.8124 63.0324C58.4833 63.2158 58.1588 63.4095 57.8407 63.6117C57.7465 63.6719 57.6505 63.7283 57.5573 63.7894C57.156 64.0537 56.7638 64.333 56.3826 64.6273C56.3003 64.6903 56.2217 64.7589 56.1404 64.8229C55.8387 65.0627 55.5434 65.3119 55.2555 65.5695C55.1997 65.6184 55.1412 65.6617 55.0864 65.7106C53.1283 63.0889 51.9664 59.9481 51.7342 56.6418H60.0465V56.6408ZM57.2757 68.1217C57.3214 68.0803 57.3662 68.038 57.4119 67.9966C57.5801 67.848 57.752 67.7032 57.9257 67.5621C58.0326 67.4747 58.1377 67.3854 58.2474 67.3017C58.4358 67.1559 58.6296 67.0158 58.8243 66.8785C58.923 66.808 59.0199 66.7346 59.1204 66.666C59.3846 66.4873 59.6543 66.3171 59.9276 66.1535C59.9615 66.1337 59.9934 66.1112 60.0273 66.0914C60.3362 65.9109 60.6507 65.7416 60.9697 65.5817C60.9853 65.5733 61.0017 65.5667 61.0182 65.5592C61.0356 65.6382 61.0557 65.7078 61.073 65.7858C61.1681 66.2118 61.2687 66.6265 61.3747 67.028C61.4021 67.1324 61.4286 67.2424 61.457 67.3459C61.5904 67.8339 61.7331 68.3013 61.883 68.7489C61.9186 68.8551 61.957 68.9539 61.9936 69.0573C62.1133 69.4015 62.2386 69.7334 62.3675 70.0532C62.4187 70.1773 62.4689 70.3005 62.521 70.4218C62.6646 70.7556 62.8136 71.0753 62.9681 71.3809C62.9909 71.428 63.0128 71.4816 63.0357 71.5267C60.924 70.8195 58.9714 69.6695 57.2757 68.1217ZM73.3645 71.3715C73.5163 71.0706 73.6635 70.7547 73.8061 70.4237C73.8591 70.3014 73.9094 70.1763 73.9615 70.0513C74.0895 69.7344 74.2129 69.4062 74.3326 69.0658C74.3701 68.9586 74.4094 68.8551 74.4469 68.7451C74.5959 68.3003 74.7367 67.8367 74.8701 67.3543C74.9021 67.2377 74.9314 67.1145 74.9634 66.9951C75.0639 66.6105 75.1617 66.2156 75.2522 65.8084C75.2714 65.7219 75.2943 65.6447 75.3126 65.5573C75.329 65.5658 75.3446 65.5723 75.361 65.5799C75.6791 65.7388 75.9927 65.909 76.3008 66.0886C76.3401 66.1112 76.3775 66.1375 76.4159 66.161C76.6838 66.3209 76.9489 66.4883 77.2076 66.6632C77.31 66.7327 77.4096 66.808 77.5111 66.8794C77.7021 67.0158 77.8932 67.1521 78.0788 67.297C78.1903 67.3835 78.2991 67.4737 78.4088 67.564C78.5788 67.7023 78.747 67.8443 78.9115 67.9891C78.9591 68.0314 79.0057 68.0756 79.0523 68.1188C77.3557 69.6667 75.4022 70.8158 73.2896 71.5239C73.3179 71.4787 73.3399 71.4204 73.3645 71.3715ZM81.2435 65.7096C81.1877 65.6589 81.1274 65.6147 81.0716 65.5658C80.7855 65.31 80.493 65.0636 80.1941 64.8257C80.11 64.7599 80.0295 64.6894 79.9463 64.6245C79.5661 64.3311 79.1748 64.0537 78.7744 63.7885C78.6803 63.7264 78.5824 63.6691 78.4874 63.6089C78.1702 63.4067 77.8493 63.2149 77.5211 63.0324C77.3932 62.961 77.2652 62.8904 77.1354 62.8218C76.7917 62.6403 76.4434 62.4692 76.0905 62.3093C76.0219 62.2783 75.957 62.2397 75.8867 62.2096C75.8958 62.141 75.8994 62.0686 75.9077 61.998C76.0073 61.2025 76.0896 60.3966 76.1508 59.5766C76.1618 59.4299 76.1673 59.2804 76.1755 59.1318C76.2212 58.4341 76.2514 57.7279 76.2688 57.0151C76.2715 56.8891 76.2825 56.7678 76.2852 56.6418H84.5975C84.3653 59.9452 83.2016 63.0851 81.2435 65.7096ZM76.2349 53.3496C76.2313 53.2706 76.2221 53.1954 76.2185 53.1173C76.1847 52.4412 76.139 51.7726 76.0786 51.1143C76.0731 51.056 76.0704 50.9959 76.0649 50.9376C75.9982 50.2238 75.9113 49.5251 75.8135 48.8359C75.8053 48.7757 75.8007 48.7117 75.7925 48.6515C75.8629 48.6215 75.9287 48.5829 76 48.5509C76.3583 48.3911 76.7112 48.219 77.0604 48.0375C77.192 47.9688 77.3219 47.8983 77.4526 47.8259C77.789 47.6397 78.119 47.4441 78.4444 47.2382C78.5386 47.1789 78.6336 47.1235 78.7278 47.0623C79.1337 46.7953 79.5313 46.5132 79.918 46.217C80.0085 46.1483 80.0944 46.074 80.184 46.0016C80.4839 45.7637 80.7773 45.5164 81.0634 45.2616C81.1219 45.2089 81.1868 45.1628 81.2444 45.1092C83.0389 47.5137 84.1651 50.3498 84.5207 53.3496H76.2349ZM79.0541 42.6972C79.0039 42.7423 78.9545 42.7893 78.9042 42.8345C78.7314 42.9868 78.5541 43.1345 78.3759 43.2812C78.2671 43.3696 78.1601 43.4589 78.0495 43.5445C77.8447 43.7024 77.6354 43.852 77.4233 44.0005C77.3319 44.0635 77.2441 44.1312 77.1518 44.1924C76.8465 44.3983 76.5348 44.5939 76.2176 44.7773C76.1728 44.8036 76.1252 44.8262 76.0814 44.8516C75.8071 45.0067 75.5292 45.1543 75.2468 45.2935C75.2202 45.3067 75.1928 45.318 75.1663 45.3311C75.1499 45.2625 75.1307 45.2032 75.1142 45.1355C74.9807 44.5798 74.84 44.04 74.6882 43.5313C74.6772 43.4956 74.6654 43.4636 74.6544 43.4279C74.509 42.9483 74.3536 42.4969 74.1928 42.0596C74.1507 41.9458 74.1087 41.8321 74.0657 41.722C73.8929 41.2754 73.7128 40.8485 73.5236 40.4507C73.4971 40.3952 73.4688 40.3463 73.4422 40.2918C73.2704 39.9401 73.0894 39.61 72.9047 39.2987C72.8764 39.2498 72.8499 39.1915 72.8206 39.1436C75.1133 39.8329 77.2313 41.0356 79.0541 42.6972ZM63.4269 39.294C63.2396 39.6091 63.0586 39.9419 62.883 40.2983C62.8593 40.3491 62.8318 40.3952 62.8081 40.446C62.617 40.8466 62.4369 41.2763 62.2614 41.7249C62.2203 41.8311 62.1801 41.9402 62.1398 42.0512C61.9744 42.4969 61.8162 42.9586 61.6672 43.4485C61.659 43.4739 61.6499 43.4984 61.6426 43.5238C61.489 44.0381 61.3473 44.5836 61.2111 45.1449C61.1955 45.2089 61.1773 45.2653 61.1617 45.3302C61.1352 45.317 61.1078 45.3057 61.0813 45.2926C60.8025 45.1553 60.5282 45.0086 60.2567 44.8553C60.2083 44.828 60.158 44.8036 60.1095 44.7754C59.7923 44.593 59.4815 44.3974 59.1762 44.1924C59.083 44.1303 58.9952 44.0626 58.9038 43.9986C58.6926 43.851 58.4833 43.7006 58.2785 43.5426C58.1679 43.4579 58.0619 43.3686 57.954 43.2812C57.7748 43.1354 57.5966 42.9868 57.4229 42.8326C57.3726 42.7884 57.3242 42.7414 57.2739 42.6963C59.0967 41.0337 61.2156 39.831 63.5074 39.1417C63.4809 39.1897 63.4562 39.2461 63.4269 39.294ZM55.0864 45.1102C55.1439 45.1628 55.2061 45.208 55.2637 45.2587C55.5498 45.5154 55.8451 45.7628 56.1449 46.0016C56.2354 46.0731 56.3223 46.1483 56.4137 46.2179C56.7994 46.5132 57.1944 46.7943 57.6002 47.0605C57.6962 47.1235 57.7968 47.1808 57.8937 47.2419C58.2145 47.4451 58.54 47.6388 58.8718 47.8221C59.0053 47.8955 59.1378 47.9679 59.2722 48.0375C59.6177 48.218 59.9669 48.3873 60.3216 48.5462C60.3938 48.5791 60.4624 48.6186 60.5355 48.6497C60.5246 48.7202 60.5191 48.7935 60.5099 48.865C60.4231 49.4809 60.3481 50.1072 60.286 50.7429C60.2777 50.8266 60.2668 50.9065 60.2585 50.9902C60.1918 51.7124 60.1425 52.4459 60.1059 53.1878C60.1031 53.2424 60.0967 53.2941 60.094 53.3486H51.811C52.1675 50.3489 53.2928 47.5118 55.0864 45.1102Z" fill="#F3E9E7"/>
<path d="M84.0119 81.09H52.3214C51.4375 81.09 50.7217 81.8272 50.7217 82.7356C50.7217 83.6449 51.4375 84.3812 52.3214 84.3812H84.0119C84.8958 84.3812 85.6116 83.6449 85.6116 82.7356C85.6116 81.8281 84.8958 81.09 84.0119 81.09Z" fill="#F3E9E7"/>
<path d="M76.8094 89.179H59.5231C58.64 89.179 57.9233 89.9162 57.9233 90.8247C57.9233 91.734 58.64 92.4704 59.5231 92.4704H76.8094C77.6934 92.4704 78.4092 91.734 78.4092 90.8247C78.4092 89.9162 77.6934 89.179 76.8094 89.179Z" fill="#F3E9E7"/>
<path d="M34.5997 25.2601C33.7158 25.2601 33 25.9974 33 26.9058V98.4455C33 99.3539 33.7158 100.091 34.5997 100.091C35.4828 100.091 36.1995 99.3539 36.1995 98.4455V26.9058C36.1995 25.9983 35.4828 25.2601 34.5997 25.2601Z" fill="#F3E9E7"/>
</svg>
