<svg width="130" height="130" viewBox="0 0 130 130" fill="none" xmlns="http://www.w3.org/2000/svg">
<circle cx="65" cy="65" r="65" fill="#00A7C7"/>
<path d="M101.333 48.4308C101.334 48.1835 101.279 47.9385 101.172 47.71C101.065 47.4814 100.908 47.2737 100.71 47.0988C100.513 46.924 100.278 46.7853 100.019 46.6909C99.7602 46.5965 99.483 46.5482 99.2032 46.5487H89.9668V50.3129H99.2032C99.4829 50.313 99.7599 50.2645 100.018 50.1699C100.277 50.0754 100.512 49.9368 100.71 49.762C100.907 49.5872 101.064 49.3796 101.171 49.1512C101.278 48.9228 101.333 48.678 101.333 48.4308V48.4308Z" fill="#F3E9E7"/>
<path d="M38.3224 59.8485C37.0718 59.8474 35.8604 59.4628 34.895 58.7603C33.9296 58.0577 33.2701 57.0808 33.029 55.9964C32.9588 55.6904 32.9249 55.3788 32.928 55.0667C32.9631 53.7956 33.5591 52.587 34.5886 51.6988C35.6181 50.8106 36.9997 50.3132 38.4385 50.3128H40.0347V46.5486H38.4807C35.89 46.5457 33.4033 47.4494 31.5644 49.0621C29.7254 50.6747 28.6837 52.8652 28.667 55.1546C28.6791 56.2135 28.667 59.5355 28.667 60.3187V97.5091C28.6707 98.6622 29.1907 99.7671 30.1134 100.582C31.036 101.398 32.2863 101.857 33.5912 101.861H96.4103C97.7149 101.857 98.965 101.398 99.8874 100.582C100.81 99.7669 101.33 98.662 101.333 97.5091V88.064H80.3264C78.9533 88.0636 77.594 87.8219 76.3275 87.353C75.0611 86.8841 73.9127 86.1974 72.9493 85.3327C71.9859 84.4681 71.2267 83.4428 70.7157 82.3165C70.2048 81.1902 69.9524 79.9853 69.9731 78.772C70.042 76.3538 71.1811 74.0559 73.1459 72.3716C75.1106 70.6873 77.7444 69.7511 80.4817 69.7638H101.333V60.3187C101.333 60.1617 101.324 60.0047 101.306 59.8485H38.3224Z" fill="#F3E9E7"/>
<path d="M72.6338 78.9132C72.636 80.7157 73.4473 82.4437 74.8895 83.7183C76.3317 84.9928 78.2871 85.7097 80.3268 85.7117H101.333V72.1174H80.3268C78.2875 72.119 76.3323 72.8354 74.8901 74.1095C73.4478 75.3835 72.6364 77.1111 72.6338 78.9132V78.9132ZM85.3173 77.1577C85.5906 77.1577 85.8613 77.2053 86.1138 77.2977C86.3664 77.3901 86.5958 77.5256 86.7891 77.6964C86.9824 77.8673 87.1357 78.07 87.2404 78.2932C87.345 78.5164 87.3988 78.7556 87.3988 78.9972C87.3988 79.2387 87.345 79.4779 87.2404 79.7011C87.1357 79.9243 86.9824 80.127 86.7891 80.2979C86.5958 80.4687 86.3664 80.6042 86.1138 80.6966C85.8613 80.789 85.5906 80.8366 85.3173 80.8366H80.693C80.141 80.8366 79.6115 80.6428 79.2212 80.2979C78.8308 79.9529 78.6115 79.485 78.6115 78.9972C78.6115 78.5093 78.8308 78.0414 79.2212 77.6964C79.6115 77.3515 80.141 77.1577 80.693 77.1577H85.3173Z" fill="#F3E9E7"/>
<path d="M52.3368 28.1393H48.5958C47.907 28.1393 47.2249 28.2592 46.5885 28.4921C45.9522 28.725 45.3739 29.0665 44.8869 29.4969C44.3998 29.9273 44.0134 30.4383 43.7498 31.0007C43.4862 31.5631 43.3506 32.1659 43.3506 32.7746V56.5679H52.3368V28.1393Z" fill="#F3E9E7"/>
<path d="M86.6498 32.7746C86.6499 31.5454 86.0975 30.3666 85.1141 29.4973C84.1308 28.628 82.797 28.1395 81.4061 28.1393H59.2842V56.5679H86.6498V32.7746ZM81.703 46.7551C81.703 46.9622 81.6569 47.1673 81.5672 47.3587C81.4775 47.55 81.3461 47.7239 81.1803 47.8703C81.0146 48.0168 80.8179 48.133 80.6014 48.2122C80.3848 48.2915 80.1528 48.3322 79.9184 48.3322H75.7328C75.2593 48.3323 74.8052 48.1662 74.4702 47.8705C74.1353 47.5747 73.947 47.1735 73.9467 46.7551V34.0986C73.947 33.6802 74.1353 33.279 74.4702 32.9833C74.8052 32.6875 75.2593 32.5214 75.7328 32.5215H79.9184C80.1528 32.5215 80.3848 32.5623 80.6014 32.6415C80.8179 32.7208 81.0146 32.8369 81.1803 32.9834C81.3461 33.1298 81.4775 33.3037 81.5672 33.495C81.6569 33.6864 81.703 33.8915 81.703 34.0986L81.703 46.7551Z" fill="#F3E9E7"/>
</svg>
