<svg width="21" height="20" viewBox="0 0 21 20" fill="none" xmlns="http://www.w3.org/2000/svg">
<path d="M15.9198 12.3202C15.6598 12.5702 15.5398 12.9392 15.6008 13.2902L16.4898 18.2102C16.5608 18.6302 16.3908 19.0492 16.0398 19.2902C15.6998 19.5402 15.2498 19.5702 14.8698 19.3702L10.4408 17.0602C10.2798 16.9802 10.1098 16.9292 9.94083 16.9292H9.66983C9.56983 16.9392 9.48083 16.9802 9.39983 17.0192L4.96983 19.3402C4.74983 19.4502 4.49983 19.4902 4.25983 19.4502C3.65983 19.3302 3.27083 18.7692 3.36983 18.1792L4.25983 13.2592C4.31983 12.9002 4.19983 12.5402 3.94083 12.2802L0.329831 8.78024C0.0298314 8.48024 -0.0801686 8.04924 0.0608314 7.65024C0.190831 7.25924 0.529831 6.96924 0.949831 6.90024L5.91983 6.17924C6.29983 6.13924 6.62983 5.91024 6.79983 5.57024L8.98983 1.08024C9.03983 0.980244 9.10983 0.889244 9.19083 0.810244L9.27983 0.740244C9.31983 0.689244 9.37983 0.650244 9.44083 0.610244L9.54983 0.570244L9.71983 0.500244H10.1408C10.5208 0.540244 10.8508 0.769244 11.0208 1.09924L13.2398 5.57024C13.3998 5.90024 13.7098 6.12024 14.0698 6.17924L19.0398 6.90024C19.4598 6.96024 19.8108 7.25024 19.9498 7.65024C20.0798 8.04924 19.9698 8.49024 19.6598 8.78024L15.9198 12.3202Z" fill="#FEAB6B"/>
</svg>
