<svg width="39" height="39" viewBox="0 0 39 39" fill="none" xmlns="http://www.w3.org/2000/svg">
<path fill-rule="evenodd" clip-rule="evenodd" d="M19.5 0C8.73048 0 0 8.73048 0 19.5C0 30.2695 8.73048 39 19.5 39C30.2695 39 39 30.2695 39 19.5C39 8.73048 30.2695 0 19.5 0ZM21.0877 25.6557C20.8955 25.8584 20.5201 25.8993 20.5201 25.8993H19.2769C19.2769 25.8993 16.5341 26.0611 14.118 23.5926C11.4831 20.8993 9.15647 15.5557 9.15647 15.5557C9.15647 15.5557 9.02224 15.2052 9.16768 15.0364C9.33148 14.8458 9.77811 14.8337 9.77811 14.8337L12.7497 14.8148C12.7497 14.8148 13.0295 14.8597 13.2299 15.0045C13.3957 15.1244 13.4883 15.3471 13.4883 15.3471C13.4883 15.3471 13.9685 16.5394 14.6043 17.6178C15.8464 19.7239 16.4243 20.1843 16.8455 19.9586C17.46 19.6301 17.2758 16.9817 17.2758 16.9817C17.2758 16.9817 17.287 16.0211 16.9665 15.5927C16.7183 15.2612 16.2503 15.1643 16.0438 15.1374C15.8759 15.1153 16.1506 14.7339 16.5067 14.5632C17.0418 14.3065 17.9859 14.2915 19.1019 14.3025C19.9717 14.3115 20.222 14.3644 20.5618 14.4453C21.3504 14.6321 21.3258 15.2307 21.2726 16.5228C21.2567 16.9092 21.2383 17.3575 21.2383 17.8755C21.2383 17.9919 21.2349 18.116 21.2313 18.2436C21.2128 18.9055 21.1917 19.6635 21.6361 19.9457C21.864 20.0894 22.4205 19.9666 23.8132 17.6458C24.4734 16.5453 24.9678 15.2522 24.9678 15.2522C24.9678 15.2522 25.0767 15.0215 25.2445 14.9226C25.4165 14.8218 25.6484 14.8527 25.6484 14.8527L28.7757 14.8337C28.7757 14.8337 29.7157 14.7229 29.8673 15.1404C30.027 15.5767 29.5163 16.5973 28.2385 18.269C27.0264 19.8551 26.4366 20.4391 26.4908 20.9556C26.5303 21.333 26.9137 21.6743 27.6495 22.3442C29.1854 23.7441 29.5972 24.4805 29.6961 24.6575C29.7043 24.6721 29.7103 24.6829 29.7147 24.69C30.4034 25.8114 28.9507 25.8993 28.9507 25.8993L26.1723 25.9373C26.1723 25.9373 25.5762 26.0531 24.7908 25.5239C24.3794 25.2468 23.9774 24.7944 23.5945 24.3635C23.0097 23.7053 22.4695 23.0974 22.0084 23.241C21.2342 23.4827 21.2576 25.1194 21.2576 25.1194C21.2576 25.1194 21.2637 25.4699 21.0877 25.6557Z" fill="#FEAB6B"/>
</svg>
